<svg width="18" height="19" viewBox="0 0 18 19" fill="none" xmlns="http://www.w3.org/2000/svg">
<path d="M17.9583 9.49984C17.9583 9.15466 17.6785 8.87484 17.3333 8.87484C16.9881 8.87484 16.7083 9.15466 16.7083 9.49984H17.3333H17.9583ZM8.99996 1.7915C9.34514 1.7915 9.62496 1.51168 9.62496 1.1665C9.62496 0.821326 9.34514 0.541504 8.99996 0.541504V1.1665V1.7915ZM0.255063 9.44625C-0.00471117 9.67355 -0.0310364 10.0684 0.196264 10.3282C0.423564 10.588 0.818415 10.6143 1.07819 10.387L0.666626 9.91662L0.255063 9.44625ZM2.12628 8.63943L2.53784 9.10979L2.53784 9.10979L2.12628 8.63943ZM4.7437 8.72659L5.18564 8.28464L5.18564 8.28464L4.7437 8.72659ZM8.31847 12.3014L8.76041 11.8594L8.76041 11.8594L8.31847 12.3014ZM10.4553 12.4864L10.8147 12.9978L10.8147 12.9978L10.4553 12.4864ZM10.7038 12.3118L10.3444 11.8005L10.3444 11.8005L10.7038 12.3118ZM13.8137 12.499L13.3956 12.9635L13.3956 12.9635L13.8137 12.499ZM16.0819 15.3812C16.3384 15.6121 16.7336 15.5913 16.9645 15.3347C17.1954 15.0782 17.1746 14.683 16.9181 14.4521L16.5 14.9166L16.0819 15.3812ZM14.4683 1.946L14.0264 1.50406L14.0264 1.50406L14.4683 1.946ZM14.8159 1.59842L15.2578 2.04036L15.2578 2.04036L14.8159 1.59842ZM16.9014 3.6839L17.3433 4.12584L17.3433 4.12584L16.9014 3.6839ZM9.85371 8.14306L10.4466 8.34071L10.4466 8.34071L9.85371 8.14306ZM10.3641 6.61181L10.9571 6.80945L10.9571 6.80945L10.3641 6.61181ZM11.2729 5.14147L11.7148 5.58341L11.7148 5.58341L11.2729 5.14147ZM13.3583 7.22694L13.8003 7.66889L13.8003 7.66889L13.3583 7.22694ZM11.888 8.13567L11.6903 7.54274L11.6903 7.54274L11.888 8.13567ZM10.3567 8.64608L10.1591 8.05316L10.1591 8.05316L10.3567 8.64608ZM12.9144 7.64467L12.53 7.15185L12.53 7.15185L12.9144 7.64467ZM12.4602 7.92537L12.1913 7.36117L12.1913 7.36117L12.4602 7.92537ZM10.5744 6.03964L10.0102 5.77075L10.0102 5.77075L10.5744 6.03964ZM10.8551 5.58544L11.3479 5.96983L11.3479 5.96983L10.8551 5.58544ZM10.9583 8.44557L11.1559 9.03849L11.1559 9.03849L10.9583 8.44557ZM10.0542 7.5415L9.4613 7.34386L9.4613 7.34386L10.0542 7.5415ZM8.99996 17.8332V17.2082C7.01811 17.2082 5.59459 17.2068 4.51127 17.0612C3.44594 16.918 2.80367 16.6456 2.32896 16.1708L1.88701 16.6128L1.44507 17.0547C2.19075 17.8004 3.14077 18.1382 4.34471 18.3C5.53068 18.4595 7.05344 18.4582 8.99996 18.4582V17.8332ZM0.666626 9.49984H0.041626C0.041626 11.4464 0.0402986 12.9691 0.199748 14.1551C0.361614 15.359 0.699398 16.309 1.44507 17.0547L1.88701 16.6128L2.32896 16.1708C1.85424 15.6961 1.58183 15.0539 1.4386 13.9885C1.29295 12.9052 1.29163 11.4817 1.29163 9.49984H0.666626ZM17.3333 9.49984H16.7083C16.7083 11.4817 16.707 12.9052 16.5613 13.9885C16.4181 15.0539 16.1457 15.6961 15.671 16.1708L16.1129 16.6128L16.5548 17.0547C17.3005 16.309 17.6383 15.359 17.8002 14.1551C17.9596 12.9691 17.9583 11.4464 17.9583 9.49984H17.3333ZM8.99996 17.8332V18.4582C10.9465 18.4582 12.4692 18.4595 13.6552 18.3C14.8592 18.1382 15.8092 17.8004 16.5548 17.0547L16.1129 16.6128L15.671 16.1708C15.1962 16.6456 14.554 16.918 13.4886 17.0612C12.4053 17.2068 10.9818 17.2082 8.99996 17.2082V17.8332ZM8.99996 1.1665V0.541504C7.05344 0.541504 5.53068 0.540177 4.34471 0.699626C3.14077 0.861492 2.19075 1.19928 1.44507 1.94495L1.88701 2.38689L2.32896 2.82883C2.80367 2.35412 3.44594 2.08171 4.51127 1.93848C5.59459 1.79283 7.01811 1.7915 8.99996 1.7915V1.1665ZM0.666626 9.49984H1.29163C1.29163 7.51798 1.29295 6.09447 1.4386 5.01115C1.58183 3.94582 1.85424 3.30355 2.32896 2.82883L1.88701 2.38689L1.44507 1.94495C0.699398 2.69063 0.361614 3.64064 0.199748 4.84459C0.0402986 6.03056 0.041626 7.55332 0.041626 9.49984H0.666626ZM0.666626 9.91662L1.07819 10.387L2.53784 9.10979L2.12628 8.63943L1.71472 8.16907L0.255063 9.44625L0.666626 9.91662ZM4.7437 8.72659L4.30176 9.16853L7.87653 12.7433L8.31847 12.3014L8.76041 11.8594L5.18564 8.28464L4.7437 8.72659ZM10.4553 12.4864L10.8147 12.9978L11.0632 12.8232L10.7038 12.3118L10.3444 11.8005L10.0959 11.9751L10.4553 12.4864ZM13.8137 12.499L13.3956 12.9635L16.0819 15.3812L16.5 14.9166L16.9181 14.4521L14.2318 12.0344L13.8137 12.499ZM10.7038 12.3118L11.0632 12.8232C11.7783 12.3206 12.7459 12.3788 13.3956 12.9635L13.8137 12.499L14.2318 12.0344C13.1489 11.0598 11.5363 10.9628 10.3444 11.8005L10.7038 12.3118ZM8.31847 12.3014L7.87653 12.7433C8.66398 13.5308 9.90354 13.6381 10.8147 12.9978L10.4553 12.4864L10.0959 11.9751C9.68178 12.2662 9.11834 12.2173 8.76041 11.8594L8.31847 12.3014ZM2.12628 8.63943L2.53784 9.10979C3.04961 8.662 3.82091 8.68769 4.30176 9.16853L4.7437 8.72659L5.18564 8.28464C4.23946 7.33847 2.72174 7.28793 1.71472 8.16907L2.12628 8.63943ZM14.4683 1.946L14.9103 2.38794L15.2578 2.04036L14.8159 1.59842L14.374 1.15648L14.0264 1.50406L14.4683 1.946ZM16.9014 3.6839L16.4594 3.24196L16.1119 3.58954L16.5538 4.03148L16.9957 4.47342L17.3433 4.12584L16.9014 3.6839ZM14.4683 1.946C13.8444 1.9827 13.8444 1.98296 13.8444 1.98322C13.8444 1.98331 13.8444 1.98357 13.8445 1.98375C13.8445 1.98411 13.8445 1.98448 13.8445 1.98486C13.8446 1.98563 13.8446 1.98644 13.8447 1.98731C13.8448 1.98903 13.8449 1.99094 13.8451 1.99304C13.8454 1.99724 13.8458 2.00218 13.8462 2.00783C13.8472 2.01914 13.8486 2.03333 13.8505 2.05019C13.8544 2.08387 13.8605 2.1284 13.8701 2.18201C13.8893 2.28898 13.9228 2.43372 13.981 2.60163C14.0976 2.93748 14.3157 3.37242 14.7215 3.77826L15.1635 3.33632L15.6054 2.89438C15.3596 2.64851 15.2301 2.38828 15.162 2.19191C15.1279 2.0937 15.1098 2.01306 15.1005 1.96118C15.0958 1.93536 15.0935 1.91709 15.0924 1.90784C15.0919 1.90322 15.0917 1.90091 15.0917 1.90108C15.0917 1.90116 15.0917 1.90188 15.0918 1.90324C15.0919 1.90392 15.092 1.90476 15.092 1.90577C15.0921 1.90627 15.0921 1.90682 15.0921 1.90741C15.0921 1.9077 15.0922 1.90801 15.0922 1.90832C15.0922 1.90848 15.0922 1.90872 15.0922 1.9088C15.0922 1.90905 15.0922 1.9093 14.4683 1.946ZM15.1635 3.33632L14.7215 3.77826C15.1274 4.18411 15.5623 4.40224 15.8982 4.51876C16.0661 4.57702 16.2108 4.61048 16.3178 4.62968C16.3714 4.6393 16.4159 4.64541 16.4496 4.64927C16.4665 4.65121 16.4807 4.65258 16.492 4.65355C16.4976 4.65403 16.5026 4.65442 16.5068 4.65472C16.5089 4.65487 16.5108 4.655 16.5125 4.65511C16.5134 4.65517 16.5142 4.65522 16.5149 4.65527C16.5153 4.65529 16.5157 4.65532 16.516 4.65534C16.5162 4.65535 16.5165 4.65536 16.5166 4.65537C16.5168 4.65539 16.5171 4.6554 16.5538 4.03148C16.5905 3.40756 16.5907 3.40757 16.591 3.40759C16.5911 3.40759 16.5913 3.40761 16.5915 3.40762C16.5918 3.40763 16.5921 3.40765 16.5924 3.40767C16.593 3.40771 16.5935 3.40774 16.594 3.40778C16.595 3.40784 16.5959 3.4079 16.5966 3.40795C16.5979 3.40805 16.5986 3.40811 16.5987 3.40812C16.5989 3.40813 16.5966 3.40793 16.592 3.40741C16.5827 3.40634 16.5644 3.40397 16.5386 3.39934C16.4867 3.39003 16.4061 3.37189 16.3079 3.33782C16.1115 3.26969 15.8513 3.14025 15.6054 2.89438L15.1635 3.33632ZM11.2729 5.14147L11.7148 5.58341L14.9103 2.38794L14.4683 1.946L14.0264 1.50406L10.8309 4.69952L11.2729 5.14147ZM16.5538 4.03148L16.1119 3.58954L12.9164 6.785L13.3583 7.22694L13.8003 7.66889L16.9957 4.47342L16.5538 4.03148ZM13.3583 7.22694L12.9164 6.785C12.6895 7.01186 12.612 7.08786 12.53 7.15185L12.9144 7.64467L13.2987 8.13749C13.4553 8.01534 13.5943 7.87491 13.8003 7.66889L13.3583 7.22694ZM11.888 8.13567L12.0856 8.72859C12.362 8.63646 12.5498 8.57502 12.729 8.48958L12.4602 7.92537L12.1913 7.36117C12.0973 7.40593 11.9947 7.44129 11.6903 7.54274L11.888 8.13567ZM12.9144 7.64467L12.53 7.15185C12.425 7.23372 12.3114 7.3039 12.1913 7.36117L12.4602 7.92537L12.729 8.48958C12.9312 8.39325 13.1222 8.27519 13.2987 8.13749L12.9144 7.64467ZM9.94978 8.55002L10.3917 8.10807C10.4526 8.16896 10.4739 8.25902 10.4466 8.34071L9.85371 8.14306L9.26078 7.94542C9.13829 8.3129 9.23393 8.71805 9.50784 8.99196L9.94978 8.55002ZM10.3641 6.61181L10.9571 6.80945C11.0585 6.5051 11.0939 6.40245 11.1386 6.30852L10.5744 6.03964L10.0102 5.77075C9.92477 5.95004 9.86334 6.13776 9.7712 6.41417L10.3641 6.61181ZM11.2729 5.14147L10.8309 4.69952C10.6249 4.90554 10.4845 5.04445 10.3623 5.20105L10.8551 5.58544L11.3479 5.96983C11.4119 5.88779 11.4879 5.81026 11.7148 5.58341L11.2729 5.14147ZM10.5744 6.03964L11.1386 6.30853C11.1959 6.18836 11.2661 6.07479 11.3479 5.96983L10.8551 5.58544L10.3623 5.20105C10.2246 5.3776 10.1065 5.56863 10.0102 5.77075L10.5744 6.03964ZM9.94978 8.55002L9.50784 8.99196C9.78174 9.26586 10.1869 9.36151 10.5544 9.23901L10.3567 8.64608L10.1591 8.05316C10.2408 8.02593 10.3308 8.04719 10.3917 8.10807L9.94978 8.55002ZM16.9014 1.59842L16.4594 2.04036C16.7912 2.37217 16.7912 2.91015 16.4594 3.24196L16.9014 3.6839L17.3433 4.12584C18.1633 3.30587 18.1633 1.97645 17.3433 1.15648L16.9014 1.59842ZM16.9014 1.59842L17.3433 1.15648C16.5234 0.336512 15.1939 0.336512 14.374 1.15648L14.8159 1.59842L15.2578 2.04036C15.5897 1.70855 16.1276 1.70855 16.4594 2.04036L16.9014 1.59842ZM11.888 8.13567L11.6903 7.54274L10.7606 7.85264L10.9583 8.44557L11.1559 9.03849L12.0856 8.72859L11.888 8.13567ZM10.9583 8.44557L10.7607 7.85264L10.1591 8.05316L10.3567 8.64608L10.5544 9.23901L11.1559 9.03849L10.9583 8.44557ZM9.85371 8.14306L10.4466 8.34071L10.6472 7.73915L10.0542 7.5415L9.4613 7.34386L9.26078 7.94542L9.85371 8.14306ZM10.0542 7.5415L10.6472 7.73915L10.9571 6.80945L10.3641 6.61181L9.7712 6.41417L9.4613 7.34386L10.0542 7.5415ZM10.9583 8.44557L11.4002 8.00362L10.4962 7.09956L10.0542 7.5415L9.61229 7.98345L10.5164 8.88751L10.9583 8.44557Z" fill="#2E2E34"/>
</svg>
