<svg width="28" height="20" viewBox="0 0 28 20" fill="none" xmlns="http://www.w3.org/2000/svg">
<g clip-path="url(#clip0_304_3426)">
<mask id="mask0_304_3426" style="mask-type:luminance" maskUnits="userSpaceOnUse" x="0" y="0" width="28" height="20">
<path d="M0.0012207 0H27.9985V20H0.0012207V0Z" fill="white"/>
</mask>
<g mask="url(#mask0_304_3426)">
<path fill-rule="evenodd" clip-rule="evenodd" d="M-1.75 0H29.75V20H-1.75V0Z" fill="#165D31"/>
<path fill-rule="evenodd" clip-rule="evenodd" d="M6.18656 5.668C6.15375 6.13675 6.10453 6.95706 6.52699 7.043C7.03149 7.08988 6.75258 6.2305 6.93715 6.07425C6.96996 5.99613 7.03149 5.99613 7.03559 6.09378V6.82425C7.03559 7.05863 7.19965 7.12894 7.3227 7.17581C7.45395 7.168 7.54418 7.17581 7.5934 7.293L7.65902 8.55472C7.65902 8.55472 7.96254 8.64066 7.97895 7.84769C7.99125 7.37894 7.88051 6.99222 7.94613 6.90238C7.94613 6.81253 8.06918 6.80863 8.15121 6.8516C8.28246 6.93753 8.33988 7.04691 8.54496 7.00785C8.85668 6.92191 9.04535 6.77738 9.04945 6.55081C9.0433 6.32816 8.99465 6.10844 8.9059 5.90238C8.92231 5.86331 8.84848 5.75785 8.86488 5.71878C8.9182 5.80472 9.00434 5.79691 9.02074 5.71878C8.96742 5.55472 8.88539 5.39456 8.75414 5.32816C8.6434 5.23441 8.47934 5.25003 8.42602 5.44535C8.3932 5.668 8.50805 5.92972 8.67621 6.14847C8.71313 6.2305 8.76235 6.37113 8.74184 6.49613C8.6516 6.54691 8.56137 6.52347 8.48344 6.44925C8.48344 6.44925 8.23734 6.27347 8.23734 6.2305C8.30297 5.83206 8.24965 5.78519 8.21274 5.67191C8.18813 5.51956 8.1102 5.46878 8.04867 5.36722C7.98715 5.30472 7.90512 5.30472 7.8641 5.36722C7.75336 5.54691 7.80668 5.93363 7.88461 6.10941C7.94203 6.26956 8.02817 6.37113 7.98715 6.37113C7.95434 6.46097 7.88461 6.43753 7.83129 6.33206C7.77127 6.1101 7.7423 5.88156 7.74516 5.65238C7.72465 5.47269 7.70004 5.08988 7.57289 4.98831C7.49906 4.89456 7.38832 4.94144 7.34731 5.02738C7.33648 5.20188 7.34059 5.37694 7.35961 5.55081C7.44164 5.83988 7.47035 6.09769 7.51137 6.39066C7.52367 6.78519 7.27348 6.56253 7.28578 6.36331C7.33959 6.11286 7.33539 5.85425 7.27348 5.6055C7.23246 5.50394 7.18734 5.4805 7.08481 5.49613C7.00688 5.49613 6.8059 5.70316 6.74848 6.05472C6.74848 6.05472 6.69926 6.23441 6.67875 6.39456C6.65004 6.57425 6.52699 6.70706 6.43676 6.37113C6.36293 6.12503 6.31371 5.52738 6.19066 5.668H6.18656Z" fill="white"/>
<path fill-rule="evenodd" clip-rule="evenodd" d="M7.56055 7.58594L6.24805 8.1875C6.26035 7.90234 6.86738 7.39062 7.28574 7.38672C7.55234 7.39062 7.48672 7.48437 7.55645 7.58594H7.56055Z" fill="white"/>
<path fill-rule="evenodd" clip-rule="evenodd" d="M7.32687 7.97652C6.6378 9.67574 8.94698 9.91402 9.20538 8.04684C9.22999 7.96871 9.32843 7.89449 9.34484 8.01949C9.29151 9.7109 7.55655 9.82418 7.26124 9.29293C7.19177 9.11013 7.15705 8.91701 7.1587 8.72262C7.11769 8.39059 6.93312 8.51949 6.90441 8.84762C6.87569 9.03121 6.8839 9.08199 6.8839 9.25777C6.97413 10.5937 9.20948 10.0195 9.57452 8.91793C9.7673 8.30855 9.54171 7.85934 9.64425 7.85934C9.86573 8.0859 10.1775 7.89059 10.2472 7.81246C10.2759 7.7734 10.3497 7.74605 10.3989 7.79684C10.5712 7.91402 10.8747 7.85934 10.9403 7.6523C10.9773 7.44527 11.006 7.23434 11.0142 7.01949C10.8706 7.05855 10.7681 7.0859 10.7558 7.14449L10.7271 7.32418C10.7148 7.38277 10.5958 7.38277 10.5876 7.30855C10.5343 7.07418 10.3128 7.04684 10.1775 7.40621C10.0913 7.47652 9.92726 7.49215 9.91085 7.38668C9.93136 7.14449 9.82882 7.11324 9.62374 7.22652L9.42687 5.81246C9.5089 5.81246 9.59093 5.87105 9.66886 5.7773C9.58683 5.5234 9.40226 5.00777 9.29972 4.96871C9.2546 4.91402 9.21358 4.94918 9.14796 4.9648C9.04132 4.99605 8.94288 5.08199 8.97569 5.25387C9.09874 5.98824 9.18077 6.54684 9.30792 7.28512C9.32843 7.36715 9.2546 7.48043 9.15616 7.46871C8.9921 7.36324 8.95109 7.1484 8.66398 7.15621C8.4589 7.15621 8.22921 7.37105 8.2005 7.57418C8.16358 7.73824 8.15128 7.91402 8.2005 8.05465C8.34405 8.21871 8.51632 8.20309 8.66808 8.16793C8.79112 8.11715 8.89366 7.99996 8.93878 8.0273C8.96749 8.06246 8.94288 8.45309 8.35226 8.74996C7.99542 8.90621 7.70831 8.93746 7.55655 8.66012C7.46222 8.48434 7.56476 7.82418 7.32687 7.97652Z" fill="white"/>
<path fill-rule="evenodd" clip-rule="evenodd" d="M10.2676 6.25003C10.403 6.20316 11.0592 5.48441 11.0592 5.48441L10.9608 5.40628C10.9239 5.37894 10.928 5.34769 10.9608 5.32034C11.1248 5.22659 11.0715 5.03128 10.9895 4.93753C10.9338 4.91168 10.8725 4.89857 10.8106 4.89925C10.7486 4.89992 10.6877 4.91437 10.6327 4.94144C10.5178 5.04691 10.4932 5.21488 10.5834 5.31644C10.6696 5.3555 10.7557 5.44144 10.6983 5.48831C10.4276 5.76175 9.6934 6.23441 9.77954 6.25003C9.79594 6.27347 10.2512 6.27347 10.2635 6.25003H10.2676ZM6.2891 8.78909C6.04301 9.16409 6.0225 9.72269 6.15785 9.89066C6.23168 9.96878 6.35063 10.0039 6.43676 9.97659C6.59262 9.91409 6.66235 9.61331 6.62543 9.50784C6.57211 9.42972 6.5311 9.418 6.47778 9.4805C6.37114 9.69144 6.32602 9.54691 6.31371 9.42972C6.30196 9.23126 6.31296 9.03216 6.34653 8.83597C6.37524 8.67191 6.34653 8.71878 6.2891 8.78909ZM16.8342 8.19144C16.5963 7.69925 16.2641 7.21488 16.1616 7.03128C15.8419 6.55006 15.5026 6.08095 15.1444 5.62503C14.8901 5.33597 15.5627 5.74613 15.0623 5.168L14.6973 4.87503C14.6153 4.82035 14.4184 4.71878 14.3856 4.88285C14.3692 5.03128 14.3774 5.10941 14.402 5.2305C14.4225 5.30863 14.5456 5.44534 14.6071 5.52347C15.4479 6.5842 16.1865 7.71509 16.8137 8.90238C16.9204 8.85159 16.8957 8.27347 16.8342 8.19144Z" fill="white"/>
<path fill-rule="evenodd" clip-rule="evenodd" d="M15.7883 9.8241C15.7391 9.87488 15.9032 10.0897 16.1165 10.0897C16.4692 10.0507 16.7809 9.86316 17.068 9.36316C17.1847 9.19683 17.2591 9.00693 17.2854 8.80848C17.3201 7.8602 17.2403 6.91127 17.0475 5.98035C17.0352 5.90223 17.0475 5.80848 17.0557 5.78504C17.0803 5.75769 17.1583 5.78504 17.1993 5.71863C17.2608 5.66004 17.0352 5.17176 16.9122 4.98816C16.8711 4.90223 16.8506 4.84754 16.7768 4.99598C16.6877 5.15976 16.6453 5.34294 16.6538 5.52723C16.8219 6.64051 16.8752 7.61316 16.9819 8.72644C16.9942 8.83582 16.9778 8.99207 16.8999 9.05457C16.5904 9.38275 16.2116 9.64498 15.7883 9.8241ZM20.5667 9.82019C20.3124 9.96082 20.3124 10.121 20.5174 10.1249C20.8702 10.0858 21.2885 10.0585 21.5756 9.64441C21.677 9.44939 21.7357 9.23673 21.7479 9.01941C21.7995 8.08574 21.7348 7.14952 21.5551 6.23035C21.5469 6.15223 21.51 5.96863 21.5223 5.94519C21.5469 5.89051 21.6618 5.9491 21.7028 5.8866C21.7602 5.82801 21.4034 5.39051 21.2762 5.20301C21.2352 5.11707 21.2188 5.06238 21.1409 5.21082C21.0583 5.37612 21.0324 5.562 21.067 5.74207C21.2557 6.95301 21.3952 7.85926 21.4239 8.92957C21.4075 9.03113 21.4034 9.08582 21.3541 9.21473C21.2434 9.34754 21.1204 9.51941 21.0055 9.60144C20.8907 9.67957 20.6446 9.75769 20.5667 9.82019Z" fill="white"/>
<path fill-rule="evenodd" clip-rule="evenodd" d="M20.7554 8.73829C20.7554 8.45313 20.7595 8.21094 20.7513 7.9961C20.7486 7.81415 20.7067 7.63465 20.6282 7.46876C20.5544 7.3086 20.5995 7.17969 20.5626 7.00782C20.5298 6.83594 20.538 6.57813 20.4888 6.37891C20.4724 6.30079 20.4313 6.04688 20.4436 6.01954C20.4642 5.96485 20.5421 6.01954 20.5831 5.95704C20.6405 5.89844 20.378 5.25391 20.2468 5.07032C20.2017 4.98829 20.1114 5.01563 20.0089 5.14844C19.9063 5.23829 19.9433 5.43751 19.9843 5.62891C20.2345 6.89063 20.4272 8.03516 20.3862 9.23438C20.3698 9.33594 20.7554 8.92969 20.7554 8.73829ZM18.8809 7.17579C18.721 7.16797 18.3888 6.87501 18.2903 6.70704C18.2742 6.66599 18.2673 6.62217 18.2702 6.57842C18.273 6.53468 18.2855 6.49199 18.3067 6.45313C18.3683 6.41407 18.4585 6.37501 18.5282 6.41407C18.5282 6.41407 18.5979 6.50782 18.5856 6.51954C18.6677 6.5586 18.7087 6.53907 18.7169 6.50391C18.721 6.44532 18.6923 6.41016 18.6923 6.34766C18.7292 6.16797 18.9384 6.14063 19.0204 6.25391C19.0778 6.32422 19.1024 6.46876 19.1065 6.56641C19.1065 6.61719 19.0245 6.5586 18.9712 6.56641C18.9261 6.58204 18.9138 6.63672 18.9097 6.6836C18.9015 6.81251 18.8851 7.01954 18.8809 7.17188V7.17579ZM15.936 9.05079C15.977 8.66797 15.9196 7.98438 15.9155 7.75782C15.8936 7.17515 15.8429 6.59378 15.7638 6.01563C15.7145 5.68751 15.9032 6.05079 15.8786 5.85938C15.8171 5.53516 15.6284 5.31251 15.4028 5.01954C15.3331 4.92188 15.3331 4.90235 15.2224 5.04297C15.0993 5.30469 15.2059 5.48829 15.2388 5.69532C15.3987 6.36719 15.4931 6.98438 15.5382 7.59766C15.5854 8.23474 15.5909 8.874 15.5546 9.51172C15.6776 9.51563 15.8663 9.32813 15.936 9.05079Z" fill="white"/>
<path fill-rule="evenodd" clip-rule="evenodd" d="M21.3008 8.43749C21.0178 7.98436 20.5953 7.49999 20.4805 7.31639C20.1001 6.81056 19.7007 6.31805 19.2828 5.83983C18.9342 5.48827 19.4469 5.78124 19.2172 5.5078C19.0244 5.30858 18.9711 5.24217 18.8029 5.12108C18.7209 5.0703 18.6717 4.97264 18.6389 5.14061C18.6258 5.2861 18.6231 5.43227 18.6307 5.57811C18.6307 5.64452 18.7045 5.77342 18.7701 5.85155C19.6191 6.84764 20.5502 7.86327 21.2967 9.14061C21.4033 9.08983 21.3664 8.51561 21.2967 8.43749H21.3008Z" fill="white"/>
<path fill-rule="evenodd" clip-rule="evenodd" d="M8.52857 7.60537C8.50806 7.64052 8.46294 7.68349 8.47935 7.72646C8.50806 7.76552 8.53677 7.77724 8.58599 7.77724C8.63111 7.77724 8.69673 7.78896 8.70904 7.76552C8.73365 7.73818 8.75005 7.6874 8.73365 7.63662C8.68443 7.51943 8.55318 7.56631 8.52857 7.60537Z" fill="#165D31"/>
<path fill-rule="evenodd" clip-rule="evenodd" d="M18.0277 14.1601C18.405 14.1757 18.6511 14.1796 18.9833 14.2147L19.3771 14.1757C19.8119 14.1366 19.8283 14.7655 19.8283 14.7655C19.8283 15.1366 19.6765 15.1561 19.4837 15.1952C19.373 15.2108 19.3197 15.1327 19.2582 15.0546C19.1654 15.0829 19.0666 15.0883 18.971 15.0702C18.8111 15.0624 18.6552 15.0624 18.4994 15.0507C18.3353 15.039 18.2451 15.0702 18.0769 15.0546C18.0441 15.1054 17.9949 15.1757 17.8964 15.1561C17.8144 15.1444 17.7119 14.9218 17.7406 14.746C17.8021 14.621 17.7816 14.664 17.7816 14.6093C16.2394 14.5702 14.6849 14.5038 13.1755 14.5233C11.9943 14.5272 10.8294 14.5741 9.6605 14.621C9.03706 14.6132 8.56128 14.5194 8.23315 14.0624C8.26597 14.0624 9.82456 14.1444 10.2798 14.1171C11.1207 14.1093 11.8917 14.0429 12.749 14.0194C14.4388 14.0468 16.1164 14.0468 17.8062 14.1601C17.6421 14.0546 17.6421 13.8085 17.8882 13.746C17.9087 13.7304 17.921 13.8671 17.958 13.8632C18.1589 13.8515 18.0687 14.1093 18.0277 14.1601ZM11.2355 5.28505C10.9812 5.98036 11.3832 6.74599 11.6621 6.67177C11.8671 6.74989 11.9902 6.38271 12.0722 5.98427C12.1337 5.87099 12.1748 5.85927 12.2035 5.91786C12.1953 6.44911 12.2445 6.57021 12.388 6.73036C12.708 6.96474 12.9746 6.76161 12.9951 6.74208L13.2412 6.5038C13.2986 6.44521 13.3724 6.44521 13.4503 6.49208C13.5283 6.55849 13.516 6.67177 13.68 6.74989C13.8195 6.80458 14.1107 6.76552 14.1804 6.65224C14.2707 6.49989 14.2953 6.44911 14.3363 6.39443C14.4019 6.31239 14.5126 6.34755 14.5126 6.37489C14.5003 6.42177 14.4347 6.46474 14.4798 6.55068C14.5619 6.60536 14.5783 6.57021 14.6234 6.55849C14.7875 6.48036 14.9105 6.14443 14.9105 6.14443C14.9146 6.01943 14.8408 6.02724 14.7916 6.05849L14.6644 6.14052C14.5824 6.15224 14.4306 6.20302 14.3527 6.08974C14.2748 5.95693 14.2748 5.76552 14.2173 5.6288C14.2173 5.62099 14.1107 5.41396 14.2091 5.40224C14.2583 5.41005 14.3609 5.43739 14.3773 5.35536C14.4265 5.27333 14.2707 5.04286 14.1599 4.92568C14.0656 4.82802 13.9343 4.8163 13.8072 4.91786C13.7169 4.99599 13.7292 5.08193 13.7128 5.16396C13.6973 5.22274 13.6966 5.28421 13.7109 5.34329C13.7251 5.40237 13.7539 5.45739 13.7949 5.5038C13.8851 5.66786 14.0451 5.88271 13.9917 6.18739C13.9917 6.18739 13.8974 6.32802 13.7333 6.30849C13.6636 6.29677 13.5529 6.26943 13.4955 5.84755C13.4503 5.53505 13.5037 5.08974 13.3642 4.88271C13.3109 4.7538 13.274 4.63271 13.1509 4.84755C13.1181 4.93349 12.9746 5.06239 13.0771 5.32411C13.1741 5.55996 13.2025 5.81638 13.1591 6.0663C13.0976 6.15224 13.0853 6.17958 13.0074 6.26161C12.9007 6.3788 12.7818 6.34755 12.6916 6.30458C12.6095 6.2538 12.5439 6.22646 12.5029 6.05068C12.5111 5.77724 12.5275 5.32802 12.4742 5.23427C12.3962 5.08583 12.2691 5.14052 12.2158 5.18739C11.9718 5.44554 11.8084 5.76349 11.7441 6.10536C11.6703 6.33193 11.5923 6.26552 11.539 6.17568C11.4078 6.05849 11.3955 5.13271 11.2355 5.28505Z" fill="white"/>
<path fill-rule="evenodd" clip-rule="evenodd" d="M12.0066 6.80071C12.1255 6.72259 12.0722 6.6679 12.2445 6.83196C12.4668 7.20665 12.5959 7.62494 12.6218 8.05462C12.6136 8.15618 12.6874 8.21868 12.7244 8.19524C12.7408 7.96087 13.3437 7.63274 13.8974 7.58587C13.9794 7.56634 13.9384 7.41399 13.9507 7.33587C13.9179 7.0429 14.123 6.77727 14.4101 6.75774C14.8039 6.81243 14.9351 7.01165 14.9433 7.31243C14.8982 7.89837 14.2583 7.99602 13.9015 8.0429C13.8482 8.06243 13.8236 8.08587 13.9015 8.11321L15.4027 8.12102L15.4806 8.16009C15.4888 8.19915 15.456 8.1679 15.3986 8.26165C15.316 8.39981 15.2643 8.55276 15.2468 8.71087C14.7998 8.85149 14.3363 8.90618 13.8687 8.96477C13.7046 9.0429 13.6226 9.14837 13.6554 9.26555C13.7128 9.39446 14.0738 9.52727 14.0738 9.53118C14.1435 9.57024 14.2214 9.6679 14.0533 9.86712C13.3232 9.83587 12.7531 9.53899 12.5562 9.12102C12.4988 9.07805 12.4332 9.12102 12.3921 9.17571C12.105 9.52727 11.8261 9.83977 11.338 10.0116C11.0509 10.082 10.7515 9.96868 10.6121 9.78899C10.5177 9.68352 10.5218 9.57024 10.489 9.5468C10.3291 9.61321 8.97554 10.1601 9.1478 9.90227C9.47593 9.57024 10.0501 9.32024 10.5505 8.99212C10.5875 8.87884 10.6531 8.50384 10.85 8.38274C10.8623 8.38274 10.8212 8.60149 10.8253 8.69524C10.8253 8.77337 10.8171 8.80071 10.8335 8.78118C10.8705 8.76165 11.4775 8.30462 11.5308 8.16399C11.5882 8.08587 11.5431 7.88274 11.5431 7.87493C11.4283 7.59368 11.2683 7.57024 11.2109 7.42962C11.1576 7.24602 11.1822 7.03509 11.2929 6.97259C11.3914 6.89055 11.5062 6.89837 11.6169 6.99212C11.74 7.09759 11.8466 7.30462 11.8794 7.45696C11.8589 7.51555 11.7154 7.4179 11.6744 7.44524C11.7533 7.53164 11.8058 7.63704 11.8261 7.74993C11.9082 8.07024 11.8835 8.19524 11.8015 8.40227C11.5308 8.94524 11.1863 9.1054 10.8828 9.30852C10.8746 9.30852 10.8705 9.44524 10.9812 9.51946C11.0222 9.55852 11.1822 9.57805 11.3667 9.51946C11.7611 9.31091 12.0799 8.99363 12.2814 8.6093C12.3162 8.31687 12.2826 8.02071 12.183 7.74212C12.064 7.4804 11.9246 7.1093 11.9246 7.10149C11.9205 6.93743 11.9328 6.88274 12.0066 6.80071ZM8.07729 5.2929C8.24956 5.37102 8.57768 5.33587 8.56128 5.07024L8.55308 4.94915C8.52026 4.87102 8.42183 4.89055 8.40132 4.96868C8.39311 4.99602 8.41362 5.03899 8.38901 5.05071C8.37261 5.06634 8.31929 5.05852 8.31929 4.9843C8.31929 4.96087 8.30288 4.93743 8.29058 4.9218C8.28237 4.91399 8.27417 4.91399 8.25366 4.91399C8.22905 4.91399 8.22905 4.9179 8.21675 4.93743C8.21265 4.95696 8.20444 4.97649 8.20444 4.99993C8.20444 5.02727 8.18804 5.03509 8.17163 5.03899C8.14702 5.03899 8.15112 5.03899 8.13061 5.03118C8.12241 5.01946 8.11011 5.01555 8.11011 4.99212L8.0978 4.92962C8.0896 4.9179 8.07319 4.91009 8.05679 4.90618C7.96245 4.90618 7.95425 5.01165 7.96245 5.05071C7.95425 5.05852 7.95015 5.24212 8.07729 5.2929Z" fill="white"/>
<path fill-rule="evenodd" clip-rule="evenodd" d="M13.1428 7.332C13.3151 7.41012 13.7294 7.36715 13.6268 7.11325L13.6186 6.98825C13.5817 6.91012 13.4874 6.92965 13.4669 7.01169C13.4587 7.03512 13.4792 7.07809 13.4505 7.08981C13.4381 7.10544 13.3807 7.09762 13.3848 7.02731C13.3848 7.00387 13.3684 6.97653 13.3561 6.9609C13.3438 6.957 13.3397 6.95309 13.3151 6.95309C13.2946 6.95309 13.2946 6.9609 13.2823 6.98044C13.2741 6.99997 13.27 7.0195 13.27 7.04294C13.2659 7.06637 13.2536 7.07419 13.2331 7.082C13.2126 7.082 13.2167 7.082 13.2003 7.07028C13.188 7.05856 13.1756 7.05465 13.1756 7.03512L13.1633 6.97262C13.1551 6.9609 13.1387 6.95309 13.1223 6.94919C13.028 6.94919 13.0198 7.05075 13.0239 7.08981C13.0198 7.09762 13.0157 7.28512 13.1469 7.332H13.1428ZM16.096 6.48825C16.2682 6.56637 16.5922 6.53122 16.5799 6.2695L16.5717 6.1445C16.5348 6.06637 16.4405 6.0859 16.42 6.16403C16.4118 6.19137 16.4323 6.23434 16.4036 6.24997C16.3913 6.26169 16.3338 6.25387 16.338 6.17965C16.338 6.15622 16.3215 6.13278 16.3092 6.11715C16.2969 6.10934 16.2928 6.10934 16.2682 6.10934C16.2477 6.10934 16.2477 6.11715 16.2354 6.13669L16.2231 6.19528C16.219 6.22262 16.2067 6.23434 16.1862 6.23434C16.1657 6.23434 16.1698 6.23434 16.1534 6.22653C16.1411 6.21481 16.1288 6.2109 16.1288 6.19137C16.1288 6.17184 16.1247 6.14059 16.1165 6.12497C16.1083 6.11325 16.0919 6.10934 16.0755 6.10544C15.9811 6.10544 15.9729 6.207 15.977 6.24606C15.9729 6.25387 15.9688 6.43747 16.1001 6.48825H16.096ZM17.6258 8.60934C17.3264 8.93356 17.4577 9.46872 17.5274 9.5859C17.6258 9.7734 17.7038 9.8945 17.8965 9.98825C18.0729 10.1093 18.2124 10.0351 18.2862 9.94919C18.4626 9.7734 18.4667 9.32419 18.5487 9.23825C18.6061 9.07419 18.7538 9.10153 18.8235 9.17575C18.8887 9.26394 18.9762 9.33512 19.0778 9.38278C19.2419 9.5195 19.4387 9.54684 19.6356 9.42184C19.7669 9.34762 19.853 9.25778 19.9309 9.07419C20.013 8.85544 19.9719 7.83981 19.9514 7.23825L19.7792 6.3984C19.7792 6.39059 19.7587 5.99997 19.7381 5.91012C19.7381 5.87106 19.7258 5.85934 19.7669 5.86325C19.812 5.90231 19.8161 5.90231 19.8489 5.91403C19.8899 5.92184 19.9309 5.84762 19.9022 5.78512L19.4921 5.05856C19.4592 5.02731 19.4141 4.99606 19.3608 5.06637C19.3293 5.0935 19.3043 5.12668 19.2873 5.16372C19.2704 5.20076 19.2619 5.24081 19.2624 5.28122C19.2747 5.45309 19.3034 5.62887 19.3157 5.80075L19.4797 6.68356C19.5331 7.30856 19.5454 7.82419 19.5987 8.45309C19.5905 8.71872 19.5044 8.94919 19.4223 8.98434C19.4223 8.98434 19.2993 9.05075 19.2172 8.97653C19.1557 8.95309 18.9137 8.58981 18.9137 8.58981C18.7907 8.48434 18.7087 8.51169 18.6225 8.58981C18.3764 8.81637 18.2698 9.23044 18.1016 9.5195C18.0606 9.5859 17.9376 9.63669 17.8063 9.51559C17.47 9.07419 17.6669 8.44919 17.6258 8.60934ZM16.1739 4.94919C16.3297 5.00778 16.4364 5.30856 16.4036 5.457C16.3708 5.63278 16.2887 5.82809 16.2313 5.80465C16.1657 5.78122 16.2723 5.62497 16.2108 5.4609C16.178 5.35153 15.9647 5.15622 15.9893 5.10153C15.9483 4.98044 16.0796 4.92575 16.1739 4.94528V4.94919Z" fill="white"/>
<path fill-rule="evenodd" clip-rule="evenodd" d="M18.1263 8.78905C18.155 8.42967 18.1016 8.21092 18.0934 7.99998C18.0852 7.78905 17.8432 6.17967 17.794 6.02342C17.7325 5.71873 18.0278 5.98436 17.995 5.80467C17.8925 5.58592 17.6423 5.2617 17.5643 5.0703C17.5151 4.99217 17.5356 4.91405 17.429 5.05077C17.3372 5.29047 17.3049 5.54718 17.3347 5.80077C17.5889 7.06248 17.8473 8.10936 17.8063 9.30858C17.9294 9.30858 18.0647 9.04686 18.1263 8.78905ZM20.7677 5.45702C20.9112 5.52342 20.9932 5.89842 20.9768 6.00389C20.9481 6.1992 20.8743 6.41014 20.821 6.3828C20.7595 6.35936 20.8333 6.09373 20.8046 6.0117C20.7718 5.89451 20.579 5.68358 20.5995 5.62108C20.5585 5.48826 20.6815 5.43358 20.7677 5.45702ZM10.28 8.10936C10.4153 8.16014 10.4973 8.43358 10.485 8.5117C10.4522 8.65623 10.3825 8.81248 10.3292 8.78905C10.2759 8.77342 10.3415 8.57811 10.3169 8.51561C10.3046 8.37108 10.1159 8.29295 10.12 8.23045C10.0872 8.11327 10.202 8.09373 10.2841 8.10936H10.28Z" fill="white"/>
<path fill-rule="evenodd" clip-rule="evenodd" d="M13.5448 8.52344C13.7171 8.53125 13.8032 8.66406 13.6432 8.71875C13.4792 8.76953 13.3274 8.8125 13.3233 9.03125C13.3848 9.34375 13.2413 9.23438 13.1593 9.19531C13.0608 9.125 12.7819 8.96094 12.7409 8.60938C12.7368 8.52734 12.8065 8.45312 12.9173 8.45312C13.0813 8.49609 13.3274 8.5 13.5448 8.52344Z" fill="#165D31"/>
<path fill-rule="evenodd" clip-rule="evenodd" d="M6.6747 4.8594C6.87158 4.91409 6.88388 5.19534 6.87158 5.27737C6.84286 5.42581 6.77314 5.58597 6.72392 5.56643C6.6665 5.5469 6.72392 5.34378 6.69521 5.28128C6.6665 5.19534 6.49833 5.03128 6.51474 4.9844C6.47783 4.88675 6.59677 4.83987 6.6747 4.8594ZM10.6081 6.1719C10.4522 6.25003 10.3948 6.4844 10.4892 6.62503C10.5794 6.74222 10.7188 6.69925 10.7352 6.69925C10.887 6.71487 10.9772 6.42972 10.9772 6.42972C10.9772 6.42972 10.9813 6.35159 10.805 6.50393C10.727 6.51565 10.7229 6.48831 10.7024 6.44925C10.6837 6.37488 10.6909 6.29671 10.7229 6.22659C10.7517 6.15628 10.6942 6.12503 10.6081 6.1719ZM11.7565 4.75003C11.6745 4.80081 11.5227 4.95315 11.5186 5.12503C11.5145 5.22268 11.494 5.22268 11.5597 5.28128C11.613 5.35159 11.6581 5.34768 11.7565 5.2969C11.7811 5.2822 11.8021 5.2628 11.8184 5.23994C11.8346 5.21707 11.8457 5.19124 11.8509 5.16409C11.8755 5.05472 11.7278 5.21878 11.7114 5.09378C11.6786 4.97659 11.7729 4.92972 11.8632 4.82034C11.8632 4.74222 11.8632 4.69143 11.7524 4.75003H11.7565ZM12.6753 4.90628C12.6391 5.04852 12.6172 5.1937 12.6097 5.33987C12.5851 5.44925 12.7327 5.49612 12.7942 5.3555C12.8927 5.10159 12.8927 4.99222 12.9009 4.88675C12.8722 4.71878 12.7532 4.72268 12.6753 4.90628ZM18.4995 7.7305C18.5159 7.71097 19.3198 7.168 19.3198 7.168C19.4018 7.14065 19.3813 7.44925 19.3444 7.44534C19.0951 7.67418 18.8084 7.86284 18.4954 8.00393C18.4544 8.03128 18.4175 7.7969 18.4954 7.7305H18.4995ZM19.2255 7.72268C19.369 7.78909 19.4265 8.18362 19.4101 8.28909C19.4101 8.50003 19.2747 8.66409 19.2173 8.64065C19.1599 8.61331 19.2255 8.37893 19.1968 8.2969C19.164 8.17972 19.045 7.96487 19.0655 7.90237C19.0245 7.76956 19.1393 7.69925 19.2296 7.72268H19.2255ZM14.4677 9.418C14.5342 9.34404 14.6116 9.27957 14.6974 9.22659C14.7794 9.18753 14.8532 9.25784 14.8491 9.25393C14.8614 9.33206 14.7999 9.39847 14.8204 9.50003C14.8368 9.53909 14.8491 9.58597 14.927 9.57034C15.0542 9.47268 15.1731 9.46487 15.2962 9.46097C15.3987 9.46487 15.4028 9.62503 15.3372 9.62503C15.1034 9.6719 15.0009 9.7344 14.8327 9.793C14.7507 9.83987 14.6851 9.78128 14.6851 9.77737C14.6851 9.77347 14.6399 9.7344 14.6686 9.63284C14.6768 9.55472 14.644 9.50784 14.5702 9.51565C14.521 9.5469 14.4718 9.56253 14.4472 9.50393C14.4349 9.46487 14.4308 9.44143 14.4677 9.418ZM20.0704 9.62893C20.1032 9.668 20.1278 9.70706 20.0663 9.77737L19.9145 9.90237C19.8899 9.94143 19.8735 10.0117 19.9556 10.0313C20.1032 10.0703 20.4477 9.8555 20.4477 9.85159C20.5052 9.81253 20.4888 9.7344 20.4806 9.7344C20.4477 9.69925 20.3739 9.72268 20.3247 9.71487C20.3001 9.71487 20.2222 9.70706 20.2591 9.63675C20.2866 9.60223 20.3087 9.56407 20.3247 9.52347C20.3452 9.47659 20.3247 9.44534 20.2427 9.418C20.1565 9.40237 20.1196 9.41018 20.0253 9.418C19.9761 9.42581 19.9597 9.44925 19.9474 9.50784C19.9515 9.59768 20.0089 9.59378 20.0704 9.62503V9.62893Z" fill="white"/>
<path fill-rule="evenodd" clip-rule="evenodd" d="M14.4963 7.41005C14.4758 7.44911 14.4019 7.44911 14.3322 7.41005C14.2625 7.37099 14.2215 7.30849 14.2461 7.27333C14.2707 7.23818 14.3404 7.23818 14.4101 7.27333C14.4799 7.30849 14.5168 7.3749 14.4963 7.41005ZM10.8459 5.3163C10.8049 5.32802 10.7474 5.29286 10.7228 5.23818C10.6982 5.18349 10.7105 5.13661 10.7515 5.1249C10.7926 5.11318 10.8459 5.15224 10.8746 5.20302C10.9033 5.2538 10.8869 5.30849 10.8418 5.32021L10.8459 5.3163ZM18.0687 14.6483C18.4543 14.664 18.8152 14.6483 19.1967 14.6679C19.2664 14.7265 19.2172 14.8632 19.1721 14.8554L18.8521 14.8436C18.848 14.7265 18.5363 14.746 18.5445 14.8476C18.3763 14.8671 18.2246 14.8436 18.0523 14.8358C18.0031 14.7772 18.0113 14.6718 18.0687 14.6483Z" fill="#165D31"/>
</g>
</g>
<defs>
<clipPath id="clip0_304_3426">
<rect width="28" height="20" fill="white"/>
</clipPath>
</defs>
</svg>
