<svg width="23" height="16" viewBox="0 0 23 16" fill="none" xmlns="http://www.w3.org/2000/svg">
<g clip-path="url(#clip0_2018_708)">
<mask id="mask0_2018_708" style="mask-type:luminance" maskUnits="userSpaceOnUse" x="0" y="0" width="23" height="16">
<path d="M0.000976562 0H22.3988V16H0.000976562V0Z" fill="white"/>
</mask>
<g mask="url(#mask0_2018_708)">
<path fill-rule="evenodd" clip-rule="evenodd" d="M-1.40002 0H23.8V16H-1.40002V0Z" fill="#165D31"/>
<path fill-rule="evenodd" clip-rule="evenodd" d="M4.94937 4.53421C4.92312 4.90921 4.88375 5.56546 5.22172 5.63421C5.62531 5.67171 5.40219 4.98421 5.54984 4.85921C5.57609 4.79671 5.62531 4.79671 5.62859 4.87483V5.45921C5.62859 5.64671 5.75984 5.70296 5.85828 5.74046C5.96328 5.73421 6.03547 5.74046 6.07484 5.83421L6.12734 6.84358C6.12734 6.84358 6.37015 6.91233 6.38328 6.27796C6.39312 5.90296 6.30453 5.59358 6.35703 5.52171C6.35703 5.44983 6.45547 5.44671 6.52109 5.48108C6.62609 5.54983 6.67203 5.63733 6.83609 5.60608C7.08547 5.53733 7.2364 5.42171 7.23969 5.24046C7.23476 5.06234 7.19585 4.88656 7.12484 4.72171C7.13797 4.69046 7.0789 4.60608 7.09203 4.57483C7.13469 4.64358 7.20359 4.63733 7.21672 4.57483C7.17406 4.44358 7.10844 4.31546 7.00344 4.26233C6.91484 4.18733 6.78359 4.19983 6.74094 4.35608C6.71469 4.53421 6.80656 4.74358 6.94109 4.91858C6.97062 4.98421 7.01 5.09671 6.99359 5.19671C6.9214 5.23733 6.84922 5.21858 6.78687 5.15921C6.78687 5.15921 6.59 5.01858 6.59 4.98421C6.6425 4.66546 6.59984 4.62796 6.57031 4.53733C6.55062 4.41546 6.48828 4.37483 6.43906 4.29358C6.38984 4.24358 6.32422 4.24358 6.2914 4.29358C6.20281 4.43733 6.24547 4.74671 6.30781 4.88733C6.35375 5.01546 6.42265 5.09671 6.38984 5.09671C6.36359 5.16858 6.30781 5.14983 6.26515 5.06546C6.21714 4.88789 6.19397 4.70506 6.19625 4.52171C6.17984 4.37796 6.16015 4.07171 6.05844 3.99046C5.99937 3.91546 5.91078 3.95296 5.87797 4.02171C5.8693 4.16131 5.87259 4.30136 5.88781 4.44046C5.95344 4.67171 5.9764 4.87796 6.00922 5.11233C6.01906 5.42796 5.8189 5.24983 5.82875 5.09046C5.87179 4.8901 5.86843 4.6832 5.8189 4.48421C5.78609 4.40296 5.75 4.38421 5.66797 4.39671C5.60562 4.39671 5.44484 4.56233 5.3989 4.84358C5.3989 4.84358 5.35953 4.98733 5.34312 5.11546C5.32015 5.25921 5.22172 5.36546 5.14953 5.09671C5.09047 4.89983 5.05109 4.42171 4.95265 4.53421H4.94937Z" fill="white"/>
<path fill-rule="evenodd" clip-rule="evenodd" d="M6.04854 6.06855L4.99854 6.5498C5.00838 6.32168 5.494 5.9123 5.82869 5.90918C6.04197 5.9123 5.98947 5.9873 6.04525 6.06855H6.04854Z" fill="white"/>
<path fill-rule="evenodd" clip-rule="evenodd" d="M5.86159 6.38102C5.31034 7.7404 7.15768 7.93102 7.3644 6.43727C7.38409 6.37477 7.46284 6.3154 7.47597 6.4154C7.43331 7.76852 6.04534 7.85915 5.80909 7.43415C5.75351 7.28791 5.72574 7.13341 5.72706 6.9779C5.69425 6.71227 5.54659 6.8154 5.52362 7.0779C5.50065 7.22477 5.50722 7.2654 5.50722 7.40602C5.5794 8.47477 7.36768 8.0154 7.65972 7.13415C7.81393 6.64665 7.63347 6.28727 7.7155 6.28727C7.89268 6.46852 8.14206 6.31227 8.19784 6.24977C8.22081 6.21852 8.27987 6.19665 8.31925 6.23727C8.45706 6.33102 8.69987 6.28727 8.75237 6.12165C8.7819 5.95602 8.80487 5.78727 8.81143 5.6154C8.69659 5.64665 8.61456 5.66852 8.60472 5.7154L8.58175 5.85915C8.5719 5.90602 8.47675 5.90602 8.47018 5.84665C8.42753 5.65915 8.25034 5.63727 8.14206 5.92477C8.07315 5.98102 7.9419 5.99352 7.92878 5.90915C7.94518 5.7154 7.86315 5.6904 7.69909 5.78102L7.54159 4.64977C7.60722 4.64977 7.67284 4.69665 7.73518 4.62165C7.66956 4.41852 7.5219 4.00602 7.43987 3.97477C7.40378 3.93102 7.37097 3.95915 7.31847 3.97165C7.23315 3.99665 7.1544 4.0654 7.18065 4.2029C7.27909 4.7904 7.34472 5.23727 7.44643 5.8279C7.46284 5.89352 7.40378 5.98415 7.32503 5.97477C7.19378 5.8904 7.16097 5.71852 6.93128 5.72477C6.76722 5.72477 6.58347 5.89665 6.5605 6.05915C6.53097 6.1904 6.52112 6.33102 6.5605 6.44352C6.67534 6.57477 6.81315 6.56227 6.93456 6.53415C7.033 6.49352 7.11503 6.39977 7.15112 6.42165C7.17409 6.44977 7.1544 6.76227 6.6819 6.99977C6.39643 7.12477 6.16675 7.14977 6.04534 6.9279C5.96987 6.78727 6.0519 6.25915 5.86159 6.38102Z" fill="white"/>
<path fill-rule="evenodd" clip-rule="evenodd" d="M8.21419 5.00022C8.32248 4.96272 8.84748 4.38772 8.84748 4.38772L8.76873 4.32522C8.73919 4.30335 8.74248 4.27835 8.76873 4.25647C8.89998 4.18147 8.85732 4.02522 8.79169 3.95022C8.74714 3.92954 8.69813 3.91905 8.64857 3.91959C8.59901 3.92013 8.55027 3.93169 8.50623 3.95335C8.41435 4.03772 8.39466 4.1721 8.46685 4.25335C8.53576 4.2846 8.60466 4.35335 8.55873 4.39085C8.34216 4.6096 7.75482 4.98772 7.82373 5.00022C7.83685 5.01897 8.20107 5.01897 8.21091 5.00022H8.21419ZM5.03138 7.03147C4.83451 7.33147 4.8181 7.77835 4.92638 7.91272C4.98544 7.97522 5.0806 8.00335 5.14951 7.98147C5.27419 7.93147 5.32998 7.69085 5.30044 7.60647C5.25779 7.54397 5.22498 7.5346 5.18232 7.5846C5.09701 7.75335 5.06091 7.63772 5.05107 7.54397C5.04166 7.3852 5.05047 7.22593 5.07732 7.06897C5.10029 6.93772 5.07732 6.97522 5.03138 7.03147ZM13.4675 6.55335C13.2772 6.1596 13.0114 5.7721 12.9294 5.62522C12.6736 5.24024 12.4022 4.86495 12.1156 4.50022C11.9122 4.26897 12.4503 4.5971 12.05 4.1346L11.7579 3.90022C11.6923 3.85647 11.5348 3.77522 11.5086 3.90647C11.4954 4.02522 11.502 4.08772 11.5217 4.1846C11.5381 4.2471 11.6365 4.35647 11.6858 4.41897C12.3585 5.26755 12.9493 6.17227 13.4511 7.1221C13.5364 7.08147 13.5167 6.61897 13.4675 6.55335Z" fill="white"/>
<path fill-rule="evenodd" clip-rule="evenodd" d="M12.6307 7.85948C12.5913 7.9001 12.7226 8.07198 12.8932 8.07198C13.1754 8.04073 13.4248 7.89073 13.6544 7.49073C13.7478 7.35766 13.8073 7.20574 13.8283 7.04698C13.8561 6.28836 13.7923 5.52921 13.638 4.78448C13.6282 4.72198 13.638 4.64698 13.6446 4.62823C13.6643 4.60635 13.7266 4.62823 13.7594 4.5751C13.8087 4.52823 13.6282 4.1376 13.5298 3.99073C13.4969 3.92198 13.4805 3.87823 13.4215 3.99698C13.3502 4.12801 13.3163 4.27455 13.323 4.42198C13.4576 5.3126 13.5002 6.09073 13.5855 6.98135C13.5954 7.06885 13.5823 7.19385 13.5199 7.24385C13.2723 7.50639 12.9693 7.71618 12.6307 7.85948ZM16.4533 7.85635C16.2499 7.96885 16.2499 8.09698 16.414 8.1001C16.6962 8.06885 17.0308 8.04698 17.2605 7.71573C17.3417 7.55971 17.3886 7.38958 17.3983 7.21573C17.4397 6.46879 17.3879 5.71981 17.2441 4.98448C17.2376 4.92198 17.208 4.7751 17.2179 4.75635C17.2376 4.7126 17.3294 4.75948 17.3623 4.70948C17.4082 4.6626 17.1227 4.3126 17.021 4.1626C16.9882 4.09385 16.9751 4.0501 16.9127 4.16885C16.8466 4.30109 16.826 4.44979 16.8537 4.59385C17.0046 5.5626 17.1162 6.2876 17.1391 7.14385C17.126 7.2251 17.1227 7.26885 17.0833 7.37198C16.9948 7.47823 16.8963 7.61573 16.8044 7.68135C16.7126 7.74385 16.5157 7.80635 16.4533 7.85635Z" fill="white"/>
<path fill-rule="evenodd" clip-rule="evenodd" d="M16.6044 6.99073C16.6044 6.7626 16.6076 6.56885 16.6011 6.39698C16.599 6.25141 16.5655 6.10782 16.5026 5.9751C16.4436 5.84698 16.4797 5.74385 16.4501 5.60635C16.4239 5.46885 16.4305 5.2626 16.3911 5.10323C16.378 5.04073 16.3451 4.8376 16.355 4.81573C16.3714 4.77198 16.4337 4.81573 16.4666 4.76573C16.5125 4.71885 16.3025 4.20323 16.1975 4.05635C16.1614 3.99073 16.0892 4.0126 16.0072 4.11885C15.9251 4.19073 15.9547 4.3501 15.9875 4.50323C16.1876 5.5126 16.3419 6.42823 16.3091 7.3876C16.2959 7.46885 16.6044 7.14385 16.6044 6.99073ZM15.1048 5.74073C14.9769 5.73448 14.7111 5.5001 14.6323 5.36573C14.6194 5.33289 14.6139 5.29783 14.6162 5.26284C14.6185 5.22784 14.6284 5.19369 14.6455 5.1626C14.6947 5.13135 14.7669 5.1001 14.8226 5.13135C14.8226 5.13135 14.8784 5.20635 14.8686 5.21573C14.9342 5.24698 14.967 5.23135 14.9736 5.20323C14.9769 5.15635 14.9539 5.12823 14.9539 5.07823C14.9834 4.93448 15.1508 4.9126 15.2164 5.00323C15.2623 5.05948 15.282 5.1751 15.2853 5.25323C15.2853 5.29385 15.2197 5.24698 15.177 5.25323C15.1409 5.26573 15.1311 5.30948 15.1278 5.34698C15.1212 5.4501 15.1081 5.61573 15.1048 5.7376V5.74073ZM12.7489 7.24073C12.7817 6.93448 12.7358 6.3876 12.7325 6.20635C12.7149 5.74022 12.6744 5.27512 12.6111 4.8126C12.5717 4.5501 12.7226 4.84073 12.703 4.6876C12.6537 4.42823 12.5028 4.2501 12.3223 4.01573C12.2666 3.9376 12.2666 3.92198 12.178 4.03448C12.0795 4.24385 12.1648 4.39073 12.1911 4.55635C12.3191 5.09385 12.3945 5.5876 12.4306 6.07823C12.4684 6.58789 12.4728 7.0993 12.4437 7.60948C12.5422 7.6126 12.6931 7.4626 12.7489 7.24073Z" fill="white"/>
<path fill-rule="evenodd" clip-rule="evenodd" d="M17.0407 6.74999C16.8143 6.38749 16.4763 5.99999 16.3844 5.85311C16.0802 5.44845 15.7606 5.05444 15.4263 4.67186C15.1474 4.39061 15.5576 4.62499 15.3738 4.40624C15.2196 4.24686 15.1769 4.19374 15.0424 4.09686C14.9768 4.05624 14.9374 3.97811 14.9112 4.11249C14.9007 4.22888 14.8985 4.34581 14.9046 4.46249C14.9046 4.51561 14.9637 4.61874 15.0162 4.68124C15.6954 5.47811 16.4402 6.29061 17.0374 7.31249C17.1227 7.27186 17.0932 6.81249 17.0374 6.74999H17.0407Z" fill="white"/>
<path fill-rule="evenodd" clip-rule="evenodd" d="M6.82295 6.08429C6.80655 6.11242 6.77045 6.14679 6.78358 6.18117C6.80655 6.21242 6.82952 6.2218 6.86889 6.2218C6.90498 6.2218 6.95748 6.23117 6.96733 6.21242C6.98702 6.19054 7.00014 6.14992 6.98702 6.10929C6.94764 6.01554 6.84264 6.05304 6.82295 6.08429Z" fill="#165D31"/>
<path fill-rule="evenodd" clip-rule="evenodd" d="M14.4222 11.3282C14.724 11.3407 14.9209 11.3439 15.1867 11.372L15.5017 11.3407C15.8495 11.3095 15.8626 11.8126 15.8626 11.8126C15.8626 12.1095 15.7412 12.1251 15.587 12.1564C15.4984 12.1689 15.4558 12.1064 15.4065 12.0439C15.3323 12.0665 15.2533 12.0708 15.1769 12.0564C15.0489 12.0501 14.9242 12.0501 14.7995 12.0407C14.6683 12.0314 14.5961 12.0564 14.4615 12.0439C14.4353 12.0845 14.3959 12.1407 14.3172 12.1251C14.2515 12.1157 14.1695 11.9376 14.1925 11.797C14.2417 11.697 14.2253 11.7314 14.2253 11.6876C12.9915 11.6564 11.748 11.6032 10.5405 11.6189C9.59545 11.622 8.66358 11.6595 7.72842 11.697C7.22967 11.6907 6.84905 11.6157 6.58655 11.2501C6.6128 11.2501 7.85967 11.3157 8.22389 11.2939C8.89655 11.2876 9.51342 11.2345 10.1992 11.2157C11.5511 11.2376 12.8931 11.2376 14.245 11.3282C14.1137 11.2439 14.1137 11.047 14.3106 10.997C14.327 10.9845 14.3369 11.0939 14.3664 11.0907C14.5272 11.0814 14.455 11.2876 14.4222 11.3282ZM8.98842 4.22824C8.78499 4.78449 9.10655 5.39699 9.32967 5.33761C9.49374 5.40011 9.59217 5.10636 9.6578 4.78761C9.70702 4.69699 9.73983 4.68761 9.7628 4.73449C9.75624 5.15949 9.79561 5.25636 9.91045 5.38449C10.1664 5.57199 10.3797 5.40949 10.3961 5.39386L10.593 5.20324C10.6389 5.15636 10.698 5.15636 10.7603 5.19386C10.8226 5.24699 10.8128 5.33761 10.944 5.40011C11.0556 5.44386 11.2886 5.41261 11.3444 5.32199C11.4165 5.20011 11.4362 5.15949 11.469 5.11574C11.5215 5.05011 11.6101 5.07824 11.6101 5.10011C11.6003 5.13761 11.5478 5.17199 11.5839 5.24074C11.6495 5.28449 11.6626 5.25636 11.6987 5.24699C11.83 5.18449 11.9284 4.91574 11.9284 4.91574C11.9317 4.81574 11.8726 4.82199 11.8333 4.84699L11.7315 4.91261C11.6659 4.92199 11.5445 4.96261 11.4822 4.87199C11.4198 4.76574 11.4198 4.61261 11.3739 4.50324C11.3739 4.49699 11.2886 4.33136 11.3673 4.32199C11.4067 4.32824 11.4887 4.35011 11.5019 4.28449C11.5412 4.21886 11.4165 4.03449 11.328 3.94074C11.2525 3.86261 11.1475 3.85324 11.0458 3.93449C10.9736 3.99699 10.9834 4.06574 10.9703 4.13136C10.9579 4.17839 10.9573 4.22756 10.9687 4.27483C10.9801 4.32209 11.0032 4.3661 11.0359 4.40324C11.1081 4.53449 11.2361 4.70636 11.1934 4.95011C11.1934 4.95011 11.118 5.06261 10.9867 5.04699C10.9309 5.03761 10.8423 5.01574 10.7964 4.67824C10.7603 4.42824 10.803 4.07199 10.6914 3.90636C10.6487 3.80324 10.6192 3.70636 10.5208 3.87824C10.4945 3.94699 10.3797 4.05011 10.4617 4.25949C10.5393 4.44816 10.562 4.6533 10.5273 4.85324C10.4781 4.92199 10.4683 4.94386 10.4059 5.00949C10.3206 5.10324 10.2255 5.07824 10.1533 5.04386C10.0876 5.00324 10.0351 4.98136 10.0023 4.84074C10.0089 4.62199 10.022 4.26261 9.97936 4.18761C9.91702 4.06886 9.8153 4.11261 9.77264 4.15011C9.57745 4.35662 9.44675 4.61098 9.3953 4.88449C9.33624 5.06574 9.27389 5.01261 9.23124 4.94074C9.12624 4.84699 9.11639 4.10636 8.98842 4.22824Z" fill="white"/>
<path fill-rule="evenodd" clip-rule="evenodd" d="M9.60539 5.44047C9.70055 5.37797 9.65789 5.33422 9.79571 5.46547C9.97359 5.76522 10.0769 6.09985 10.0976 6.4436C10.091 6.52485 10.1501 6.57485 10.1796 6.5561C10.1927 6.3686 10.6751 6.1061 11.1181 6.0686C11.1837 6.05297 11.1509 5.9311 11.1607 5.8686C11.1345 5.63422 11.2985 5.42172 11.5282 5.4061C11.8432 5.44985 11.9482 5.60922 11.9548 5.84985C11.9187 6.3186 11.4068 6.39672 11.1213 6.43422C11.0787 6.44985 11.059 6.4686 11.1213 6.49047L12.3223 6.49672L12.3846 6.52797C12.3912 6.55922 12.3649 6.53422 12.319 6.60922C12.2529 6.71975 12.2116 6.84211 12.1976 6.9686C11.8399 7.0811 11.4691 7.12485 11.0951 7.17172C10.9638 7.23422 10.8982 7.3186 10.9245 7.41235C10.9704 7.51547 11.2591 7.62172 11.2591 7.62485C11.3149 7.6561 11.3773 7.73422 11.2427 7.8936C10.6587 7.8686 10.2026 7.6311 10.0451 7.29672C9.99914 7.26235 9.94664 7.29672 9.91383 7.34047C9.68414 7.62172 9.46102 7.87172 9.07055 8.00922C8.84086 8.06547 8.60133 7.97485 8.48977 7.8311C8.4143 7.74672 8.41758 7.6561 8.39133 7.63735C8.26336 7.69047 7.18055 8.12797 7.31836 7.92172C7.58086 7.6561 8.04024 7.4561 8.44055 7.1936C8.47008 7.10297 8.52258 6.80297 8.68008 6.7061C8.68993 6.7061 8.65711 6.8811 8.66039 6.9561C8.66039 7.0186 8.65383 7.04047 8.66696 7.02485C8.69649 7.00922 9.18211 6.6436 9.22477 6.5311C9.27071 6.4686 9.23461 6.3061 9.23461 6.29985C9.14274 6.07485 9.01477 6.0561 8.96883 5.9436C8.92618 5.79672 8.94586 5.62797 9.03446 5.57797C9.11321 5.51235 9.20508 5.5186 9.29368 5.5936C9.39211 5.67797 9.47743 5.8436 9.50368 5.96547C9.48727 6.01235 9.37243 5.93422 9.33961 5.9561C9.40277 6.02522 9.44477 6.10954 9.46102 6.19985C9.52664 6.4561 9.50696 6.5561 9.44133 6.72172C9.22477 7.1561 8.94914 7.28422 8.70633 7.44672C8.69977 7.44672 8.69649 7.5561 8.78508 7.61547C8.81789 7.64672 8.94586 7.66235 9.09352 7.61547C9.40897 7.44863 9.66405 7.1948 9.82524 6.88735C9.85312 6.65339 9.82622 6.41647 9.74649 6.1936C9.65133 5.98422 9.53977 5.68735 9.53977 5.6811C9.53649 5.54985 9.54633 5.5061 9.60539 5.44047ZM6.46196 4.23422C6.59977 4.29672 6.86227 4.2686 6.84914 4.0561L6.84258 3.95922C6.81633 3.89672 6.73758 3.91235 6.72118 3.97485C6.71461 3.99672 6.73102 4.0311 6.71133 4.04047C6.69821 4.05297 6.65555 4.04672 6.65555 3.98735C6.65555 3.9686 6.64243 3.94985 6.63258 3.93735C6.62602 3.9311 6.61946 3.9311 6.60305 3.9311C6.58336 3.9311 6.58336 3.93422 6.57352 3.94985C6.57024 3.96547 6.56368 3.9811 6.56368 3.99985C6.56368 4.02172 6.55055 4.02797 6.53743 4.0311C6.51774 4.0311 6.52102 4.0311 6.50461 4.02485C6.49805 4.01547 6.48821 4.01235 6.48821 3.9936L6.47836 3.9436C6.4718 3.93422 6.45868 3.92797 6.44555 3.92485C6.37008 3.92485 6.36352 4.00922 6.37008 4.04047C6.36352 4.04672 6.36024 4.1936 6.46196 4.23422Z" fill="white"/>
<path fill-rule="evenodd" clip-rule="evenodd" d="M10.5144 5.8656C10.6522 5.9281 10.9836 5.89372 10.9016 5.6906L10.895 5.5906C10.8655 5.5281 10.79 5.54372 10.7736 5.60935C10.767 5.6281 10.7835 5.66247 10.7605 5.67185C10.7506 5.68435 10.7047 5.6781 10.708 5.62185C10.708 5.6031 10.6949 5.58122 10.685 5.56872C10.6752 5.5656 10.6719 5.56247 10.6522 5.56247C10.6358 5.56247 10.6358 5.56872 10.626 5.58435C10.6194 5.59997 10.6161 5.6156 10.6161 5.63435C10.6128 5.6531 10.603 5.65935 10.5866 5.6656C10.5702 5.6656 10.5735 5.6656 10.5603 5.65622C10.5505 5.64685 10.5406 5.64372 10.5406 5.6281L10.5308 5.5781C10.5242 5.56872 10.5111 5.56247 10.498 5.55935C10.4225 5.55935 10.416 5.6406 10.4192 5.67185C10.416 5.6781 10.4127 5.8281 10.5177 5.8656H10.5144ZM12.8769 5.1906C13.0147 5.2531 13.2739 5.22497 13.2641 5.0156L13.2575 4.9156C13.228 4.8531 13.1525 4.86872 13.1361 4.93122C13.1295 4.9531 13.146 4.98747 13.123 4.99997C13.1131 5.00935 13.0672 5.0031 13.0705 4.94372C13.0705 4.92497 13.0574 4.90622 13.0475 4.89372C13.0377 4.88747 13.0344 4.88747 13.0147 4.88747C12.9983 4.88747 12.9983 4.89372 12.9885 4.90935L12.9786 4.95622C12.9753 4.9781 12.9655 4.98747 12.9491 4.98747C12.9327 4.98747 12.936 4.98747 12.9228 4.98122C12.913 4.97185 12.9031 4.96872 12.9031 4.9531C12.9031 4.93747 12.8999 4.91247 12.8933 4.89997C12.8867 4.8906 12.8736 4.88747 12.8605 4.88435C12.785 4.88435 12.7785 4.9656 12.7817 4.99685C12.7785 5.0031 12.7752 5.14997 12.8802 5.1906H12.8769ZM14.1008 6.88747C13.8613 7.14685 13.9663 7.57497 14.022 7.66872C14.1008 7.81872 14.1631 7.9156 14.3174 7.9906C14.4585 8.08747 14.57 8.0281 14.6291 7.95935C14.7702 7.81872 14.7735 7.45935 14.8391 7.3906C14.885 7.25935 15.0031 7.28122 15.0589 7.3406C15.1111 7.41115 15.1811 7.4681 15.2624 7.50622C15.3936 7.6156 15.5511 7.63747 15.7086 7.53747C15.8136 7.4781 15.8825 7.40622 15.9449 7.25935C16.0105 7.08435 15.9777 6.27185 15.9613 5.7906L15.8235 5.11872C15.8235 5.11247 15.807 4.79997 15.7906 4.7281C15.7906 4.69685 15.7808 4.68747 15.8136 4.6906C15.8497 4.72185 15.853 4.72185 15.8792 4.73122C15.912 4.73747 15.9449 4.6781 15.9219 4.6281L15.5938 4.04685C15.5675 4.02185 15.5314 3.99685 15.4888 4.0531C15.4636 4.0748 15.4436 4.10134 15.43 4.13097C15.4164 4.1606 15.4096 4.19265 15.41 4.22497C15.4199 4.36247 15.4428 4.5031 15.4527 4.6406L15.5839 5.34685C15.6266 5.84685 15.6364 6.25935 15.6791 6.76247C15.6725 6.97497 15.6036 7.15935 15.538 7.18747C15.538 7.18747 15.4395 7.2406 15.3739 7.18122C15.3247 7.16247 15.1311 6.87185 15.1311 6.87185C15.0327 6.78747 14.967 6.80935 14.8981 6.87185C14.7013 7.0531 14.616 7.38435 14.4814 7.6156C14.4486 7.66872 14.3502 7.70935 14.2452 7.61247C13.9761 7.25935 14.1336 6.75935 14.1008 6.88747ZM12.9392 3.95935C13.0639 4.00622 13.1492 4.24685 13.123 4.3656C13.0967 4.50622 13.0311 4.66247 12.9852 4.64372C12.9327 4.62497 13.018 4.49997 12.9688 4.36872C12.9425 4.28122 12.7719 4.12497 12.7916 4.08122C12.7588 3.98435 12.8638 3.9406 12.9392 3.95622V3.95935Z" fill="white"/>
<path fill-rule="evenodd" clip-rule="evenodd" d="M14.501 7.03133C14.524 6.74383 14.4813 6.56884 14.4748 6.40008C14.4682 6.23133 14.2746 4.94383 14.2352 4.81883C14.186 4.57508 14.4223 4.78758 14.396 4.64383C14.314 4.46883 14.1138 4.20946 14.0515 4.05633C14.0121 3.99383 14.0285 3.93133 13.9432 4.04071C13.8698 4.23248 13.8439 4.43784 13.8677 4.64071C14.0712 5.65008 14.2779 6.48759 14.2451 7.44696C14.3435 7.44696 14.4518 7.23758 14.501 7.03133ZM16.6142 4.36571C16.729 4.41883 16.7946 4.71883 16.7815 4.80321C16.7585 4.95946 16.6995 5.12821 16.6568 5.10633C16.6076 5.08758 16.6667 4.87508 16.6437 4.80946C16.6174 4.71571 16.4632 4.54696 16.4796 4.49696C16.4468 4.39071 16.5452 4.34696 16.6142 4.36571ZM8.224 6.48759C8.33228 6.52821 8.3979 6.74696 8.38806 6.80946C8.36181 6.92508 8.30603 7.05008 8.26337 7.03133C8.22071 7.01883 8.27321 6.86258 8.25353 6.81258C8.24368 6.69696 8.09275 6.63446 8.09603 6.58446C8.06978 6.49071 8.16165 6.47509 8.22728 6.48759H8.224Z" fill="white"/>
<path fill-rule="evenodd" clip-rule="evenodd" d="M10.8359 6.81895C10.9737 6.8252 11.0426 6.93145 10.9146 6.9752C10.7834 7.01582 10.662 7.0502 10.6587 7.2252C10.7079 7.4752 10.5931 7.3877 10.5275 7.35645C10.4487 7.3002 10.2256 7.16895 10.1928 6.8877C10.1895 6.82207 10.2453 6.7627 10.3339 6.7627C10.4651 6.79707 10.662 6.8002 10.8359 6.81895Z" fill="#165D31"/>
<path fill-rule="evenodd" clip-rule="evenodd" d="M5.33981 3.88762C5.49731 3.93137 5.50715 4.15637 5.49731 4.222C5.47434 4.34075 5.41856 4.46887 5.37918 4.45325C5.33325 4.43762 5.37918 4.27512 5.35622 4.22512C5.33325 4.15637 5.19872 4.02512 5.21184 3.98762C5.18231 3.9095 5.27747 3.872 5.33981 3.88762ZM8.48653 4.93762C8.36184 5.00012 8.3159 5.18762 8.39137 5.30012C8.46356 5.39387 8.57512 5.3595 8.58825 5.3595C8.70965 5.372 8.78184 5.14387 8.78184 5.14387C8.78184 5.14387 8.78512 5.08137 8.64403 5.20325C8.58168 5.21262 8.5784 5.19075 8.562 5.1595C8.54697 5.1 8.55273 5.03746 8.5784 4.98137C8.60137 4.92512 8.55543 4.90012 8.48653 4.93762ZM9.40528 3.80012C9.33965 3.84075 9.21825 3.96262 9.21497 4.10012C9.21168 4.17825 9.19528 4.17825 9.24778 4.22512C9.29043 4.28137 9.32653 4.27825 9.40528 4.23762C9.4249 4.22586 9.44174 4.21034 9.45473 4.19205C9.46772 4.17376 9.47658 4.15309 9.48075 4.13137C9.50043 4.04387 9.38231 4.17512 9.36918 4.07512C9.34293 3.98137 9.4184 3.94387 9.49059 3.85637C9.49059 3.79387 9.49059 3.75325 9.402 3.80012H9.40528ZM10.1403 3.92512C10.1114 4.03891 10.0938 4.15505 10.0878 4.272C10.0681 4.3595 10.1862 4.397 10.2354 4.2845C10.3142 4.08137 10.3142 3.99387 10.3207 3.9095C10.2978 3.77512 10.2026 3.77825 10.1403 3.92512ZM14.7997 6.1845C14.8128 6.16887 15.4559 5.7345 15.4559 5.7345C15.5215 5.71262 15.5051 5.9595 15.4756 5.95637C15.2761 6.13944 15.0467 6.29037 14.7964 6.40325C14.7636 6.42512 14.734 6.23762 14.7964 6.1845H14.7997ZM15.3804 6.17825C15.4953 6.23137 15.5412 6.547 15.5281 6.63137C15.5281 6.80012 15.4198 6.93137 15.3739 6.91262C15.3279 6.89075 15.3804 6.70325 15.3575 6.63762C15.3312 6.54387 15.2361 6.372 15.2525 6.322C15.2197 6.21575 15.3115 6.1595 15.3837 6.17825H15.3804ZM11.5742 7.5345C11.6274 7.47533 11.6893 7.42376 11.7579 7.38137C11.8236 7.35012 11.8826 7.40637 11.8793 7.40325C11.8892 7.46575 11.84 7.51887 11.8564 7.60012C11.8695 7.63137 11.8793 7.66887 11.9417 7.65637C12.0434 7.57825 12.1386 7.572 12.237 7.56887C12.319 7.572 12.3223 7.70012 12.2698 7.70012C12.0828 7.73762 12.0007 7.78762 11.8662 7.8345C11.8006 7.872 11.7481 7.82512 11.7481 7.822C11.7481 7.81887 11.712 7.78762 11.735 7.70637C11.7415 7.64387 11.7153 7.60637 11.6562 7.61262C11.6168 7.63762 11.5775 7.65012 11.5578 7.60325C11.5479 7.572 11.5447 7.55325 11.5742 7.5345ZM16.0564 7.70325C16.0826 7.7345 16.1023 7.76575 16.0531 7.822L15.9317 7.922C15.912 7.95325 15.8989 8.0095 15.9645 8.02512C16.0826 8.05637 16.3582 7.8845 16.3582 7.88137C16.4042 7.85012 16.3911 7.78762 16.3845 7.78762C16.3582 7.7595 16.2992 7.77825 16.2598 7.772C16.2401 7.772 16.1778 7.76575 16.2073 7.7095C16.2293 7.68188 16.247 7.65135 16.2598 7.61887C16.2762 7.58137 16.2598 7.55637 16.1942 7.5345C16.1253 7.522 16.0957 7.52825 16.0203 7.5345C15.9809 7.54075 15.9678 7.5595 15.9579 7.60637C15.9612 7.67825 16.0072 7.67512 16.0564 7.70012V7.70325Z" fill="white"/>
<path fill-rule="evenodd" clip-rule="evenodd" d="M11.5971 5.92794C11.5807 5.95919 11.5216 5.95919 11.4658 5.92794C11.4101 5.89669 11.3772 5.84669 11.3969 5.81857C11.4166 5.79044 11.4724 5.79044 11.5282 5.81857C11.584 5.84669 11.6135 5.89982 11.5971 5.92794ZM8.67678 4.25294C8.64396 4.26232 8.59803 4.23419 8.57834 4.19044C8.55865 4.14669 8.56849 4.10919 8.60131 4.09982C8.63412 4.09044 8.67678 4.12169 8.69974 4.16232C8.72271 4.20294 8.70959 4.24669 8.67349 4.25607L8.67678 4.25294ZM14.4551 11.7186C14.7635 11.7311 15.0522 11.7186 15.3574 11.7342C15.4132 11.7811 15.3738 11.8904 15.3377 11.8842L15.0818 11.8748C15.0785 11.7811 14.8291 11.7967 14.8357 11.8779C14.7011 11.8936 14.5797 11.8748 14.4419 11.8686C14.4026 11.8217 14.4091 11.7373 14.4551 11.7186Z" fill="#165D31"/>
</g>
</g>
<defs>
<clipPath id="clip0_2018_708">
<rect width="22.4" height="16" fill="white"/>
</clipPath>
</defs>
</svg>
