<svg width="16" height="17" viewBox="0 0 16 17" fill="none" xmlns="http://www.w3.org/2000/svg">
<path d="M16 8.875C16 9.43437 15.8656 9.95312 15.5969 10.4281C15.3281 10.9031 14.9688 11.275 14.5156 11.5344C14.5281 11.6188 14.5344 11.75 14.5344 11.9281C14.5344 12.775 14.25 13.4937 13.6875 14.0875C13.1219 14.6844 12.4406 14.9812 11.6438 14.9812C11.2875 14.9812 10.9469 14.9156 10.625 14.7844C10.375 15.2969 10.0156 15.7094 9.54375 16.025C9.075 16.3438 8.55937 16.5 8 16.5C7.42812 16.5 6.90938 16.3469 6.44688 16.0344C5.98125 15.725 5.625 15.3094 5.375 14.7844C5.05312 14.9156 4.71562 14.9812 4.35625 14.9812C3.55937 14.9812 2.875 14.6844 2.30312 14.0875C1.73125 13.4937 1.44687 12.7719 1.44687 11.9281C1.44687 11.8344 1.45938 11.7031 1.48125 11.5344C1.02813 11.2719 0.66875 10.9031 0.4 10.4281C0.134375 9.95312 0 9.43437 0 8.875C0 8.28125 0.15 7.73438 0.446875 7.24062C0.74375 6.74687 1.14375 6.38125 1.64375 6.14375C1.5125 5.7875 1.44687 5.42812 1.44687 5.07188C1.44687 4.22813 1.73125 3.50625 2.30312 2.9125C2.875 2.31875 3.55937 2.01875 4.35625 2.01875C4.7125 2.01875 5.05312 2.08438 5.375 2.21563C5.625 1.70312 5.98438 1.29062 6.45625 0.975C6.925 0.659375 7.44063 0.5 8 0.5C8.55937 0.5 9.075 0.659375 9.54375 0.971875C10.0125 1.2875 10.375 1.7 10.625 2.2125C10.9469 2.08125 11.2844 2.01562 11.6438 2.01562C12.4406 2.01562 13.1219 2.3125 13.6875 2.90937C14.2531 3.50625 14.5344 4.225 14.5344 5.06875C14.5344 5.4625 14.475 5.81875 14.3562 6.14062C14.8562 6.37813 15.2563 6.74375 15.5531 7.2375C15.85 7.73438 16 8.28125 16 8.875ZM7.65938 11.2844L10.9625 6.3375C11.0469 6.20625 11.0719 6.0625 11.0437 5.90938C11.0125 5.75625 10.9344 5.63438 10.8031 5.55312C10.6719 5.46875 10.5281 5.44063 10.375 5.4625C10.2188 5.4875 10.0938 5.5625 10 5.69375L7.09062 10.0688L5.75 8.73125C5.63125 8.6125 5.49375 8.55625 5.34062 8.5625C5.18437 8.56875 5.05 8.625 4.93125 8.73125C4.825 8.8375 4.77187 8.97187 4.77187 9.13437C4.77187 9.29375 4.825 9.42813 4.93125 9.5375L6.77187 11.3781L6.8625 11.45C6.96875 11.5219 7.07812 11.5562 7.18437 11.5562C7.39375 11.5531 7.55313 11.4656 7.65938 11.2844Z" fill="#3897F0"/>
</svg>
