<svg width="24" height="16" viewBox="0 0 24 16" fill="none" xmlns="http://www.w3.org/2000/svg">
<path d="M15.2446 2.10352H8.75537V13.8952H15.2446V2.10352Z" fill="#FF5F00"/>
<path d="M9.16714 7.99978C9.16714 5.70811 10.2178 3.52061 11.9895 2.10395C8.77573 -0.458552 4.11993 0.103948 1.58603 3.37478C-0.947878 6.62478 -0.391655 11.3331 2.84268 13.8956C5.54139 16.0414 9.31135 16.0414 12.0101 13.8956C10.2178 12.4789 9.16714 10.2914 9.16714 7.99978Z" fill="#EB001B"/>
<path d="M24 7.99978C24 12.1456 20.6832 15.4998 16.5836 15.4998C14.915 15.4998 13.3081 14.9373 12.0103 13.8956C15.224 11.3331 15.7802 6.62478 13.2463 3.35395C12.8755 2.89561 12.4635 2.45811 12.0103 2.10395C15.224 -0.458552 19.9004 0.103948 22.4137 3.37478C23.4437 4.68728 24 6.31228 24 7.99978Z" fill="#F79E1B"/>
<path d="M23.2995 12.6462V12.3962H23.4025V12.3545H23.1553V12.3962H23.2583V12.6462H23.2995ZM23.7733 12.6462V12.3545H23.6909L23.6085 12.5628L23.5261 12.3545H23.4437V12.6462H23.5055V12.417L23.5879 12.6045H23.6497L23.7321 12.417V12.6462H23.7733Z" fill="#F79E1B"/>
</svg>
