<svg width="24" height="25" viewBox="0 0 24 25" fill="none" xmlns="http://www.w3.org/2000/svg">
<path d="M12 3.5H13.6C15.8498 3.5 16.9748 3.5 17.7634 4.07295C18.018 4.25799 18.242 4.48196 18.4271 4.73664C19 5.52524 19 6.65016 19 8.9V12.5" stroke="#B58C43" stroke-opacity="0.29" stroke-width="1.5" stroke-linecap="round" stroke-linejoin="round"/>
<path d="M12 3.5H10.4C8.15016 3.5 7.02524 3.5 6.23664 4.07295C5.98196 4.25799 5.75799 4.48196 5.57295 4.73664C5 5.52524 5 6.65016 5 8.9V17.3219C5 18.9743 5 19.8005 5.15836 20.1744C5.64552 21.3247 7.05628 21.7519 8.0997 21.065C8.43886 20.8417 8.89716 20.1543 9.81376 18.7794V18.7794C10.2768 18.0848 10.5083 17.7375 10.7511 17.5434C11.4814 16.9596 12.5186 16.9596 13.2489 17.5434C13.4917 17.7375 13.7232 18.0848 14.1862 18.7794V18.7794C15.1028 20.1543 15.5611 20.8417 15.9003 21.065C16.9437 21.7519 18.3545 21.3247 18.8416 20.1744C19 19.8005 19 18.9743 19 17.3219V12.5" stroke="#B58C43" stroke-width="1.5" stroke-linecap="round" stroke-linejoin="round"/>
</svg>
