<svg width="24" height="24" viewBox="0 0 24 24" fill="none" xmlns="http://www.w3.org/2000/svg">
<path d="M21.25 14C21.25 14.4142 21.5858 14.75 22 14.75C22.4142 14.75 22.75 14.4142 22.75 14H22H21.25ZM12 22.75C12.4142 22.75 12.75 22.4142 12.75 22C12.75 21.5858 12.4142 21.25 12 21.25V22V22.75ZM3.17157 20.8284L3.7019 20.2981H3.7019L3.17157 20.8284ZM6.25 4C6.25 4.41421 6.58579 4.75 7 4.75C7.41421 4.75 7.75 4.41421 7.75 4H7H6.25ZM7.75 2.5C7.75 2.08579 7.41421 1.75 7 1.75C6.58579 1.75 6.25 2.08579 6.25 2.5H7H7.75ZM16.25 4C16.25 4.41421 16.5858 4.75 17 4.75C17.4142 4.75 17.75 4.41421 17.75 4H17H16.25ZM17.75 2.5C17.75 2.08579 17.4142 1.75 17 1.75C16.5858 1.75 16.25 2.08579 16.25 2.5H17H17.75ZM2.5 8.25C2.08579 8.25 1.75 8.58579 1.75 9C1.75 9.41421 2.08579 9.75 2.5 9.75V9V8.25ZM21.5 9.75C21.9142 9.75 22.25 9.41421 22.25 9C22.25 8.58579 21.9142 8.25 21.5 8.25V9V9.75ZM21.49 17.7641L22.0697 17.2882L21.49 17.7641ZM21.49 20.2359L22.0697 20.7118L21.49 20.2359ZM22 19H21.25H22ZM14.51 17.7641L13.9303 17.2882L14.51 17.7641ZM14.51 20.2359L13.9303 20.7118L14.51 20.2359ZM10 4V4.75H14V4V3.25H10V4ZM22 12H21.25V14H22H22.75V12H22ZM12 22V21.25H10V22V22.75H12V22ZM2 14H2.75V12H2H1.25V14H2ZM10 22V21.25C8.09318 21.25 6.73851 21.2484 5.71085 21.1102C4.70476 20.975 4.12511 20.7213 3.7019 20.2981L3.17157 20.8284L2.64124 21.3588C3.38961 22.1071 4.33855 22.4392 5.51098 22.5969C6.66182 22.7516 8.13558 22.75 10 22.75V22ZM2 14H1.25C1.25 15.8644 1.24841 17.3382 1.40313 18.489C1.56076 19.6614 1.89288 20.6104 2.64124 21.3588L3.17157 20.8284L3.7019 20.2981C3.27869 19.8749 3.02502 19.2952 2.88976 18.2892C2.75159 17.2615 2.75 15.9068 2.75 14H2ZM14 4V4.75C15.9068 4.75 17.2615 4.75159 18.2892 4.88976C19.2952 5.02502 19.8749 5.27869 20.2981 5.7019L20.8284 5.17157L21.3588 4.64124C20.6104 3.89288 19.6614 3.56076 18.489 3.40313C17.3382 3.24841 15.8644 3.25 14 3.25V4ZM22 12H22.75C22.75 10.1356 22.7516 8.66182 22.5969 7.51098C22.4392 6.33855 22.1071 5.38961 21.3588 4.64124L20.8284 5.17157L20.2981 5.7019C20.7213 6.12511 20.975 6.70476 21.1102 7.71085C21.2484 8.73851 21.25 10.0932 21.25 12H22ZM10 4V3.25C8.13558 3.25 6.66182 3.24841 5.51098 3.40313C4.33855 3.56076 3.38961 3.89288 2.64124 4.64124L3.17157 5.17157L3.7019 5.7019C4.12511 5.27869 4.70476 5.02502 5.71085 4.88976C6.73851 4.75159 8.09318 4.75 10 4.75V4ZM2 12H2.75C2.75 10.0932 2.75159 8.73851 2.88976 7.71085C3.02502 6.70476 3.27869 6.12511 3.7019 5.7019L3.17157 5.17157L2.64124 4.64124C1.89288 5.38961 1.56076 6.33856 1.40313 7.51098C1.24841 8.66182 1.25 10.1356 1.25 12H2ZM7 4H7.75V2.5H7H6.25V4H7ZM17 4H17.75V2.5H17H16.25V4H17ZM2.5 9V9.75H21.5V9V8.25H2.5V9ZM14.51 17.7641L15.0896 18.24C15.6923 17.506 16.6387 16.75 18 16.75V16V15.25C16.0158 15.25 14.6853 16.3687 13.9303 17.2882L14.51 17.7641ZM18 16V16.75C19.3613 16.75 20.3077 17.506 20.9104 18.24L21.49 17.7641L22.0697 17.2882C21.3147 16.3687 19.9842 15.25 18 15.25V16ZM21.49 20.2359L20.9104 19.76C20.3077 20.494 19.3613 21.25 18 21.25V22V22.75C19.9842 22.75 21.3147 21.6313 22.0697 20.7118L21.49 20.2359ZM18 22V21.25C16.6387 21.25 15.6923 20.494 15.0896 19.76L14.51 20.2359L13.9303 20.7118C14.6853 21.6313 16.0158 22.75 18 22.75V22ZM21.49 17.7641L20.9104 18.24C21.0956 18.4656 21.1565 18.5467 21.1941 18.6265C21.2185 18.6784 21.25 18.7666 21.25 19H22H22.75C22.75 18.6187 22.6965 18.296 22.551 17.9871C22.4186 17.7062 22.2245 17.4767 22.0697 17.2882L21.49 17.7641ZM21.49 20.2359L22.0697 20.7118C22.2245 20.5233 22.4186 20.2938 22.551 20.0129C22.6965 19.704 22.75 19.3813 22.75 19H22H21.25C21.25 19.2334 21.2185 19.3216 21.1941 19.3735C21.1565 19.4533 21.0956 19.5344 20.9104 19.76L21.49 20.2359ZM14.51 17.7641L13.9303 17.2882C13.7755 17.4767 13.5814 17.7062 13.449 17.9871C13.3035 18.296 13.25 18.6187 13.25 19H14H14.75C14.75 18.7666 14.7815 18.6784 14.8059 18.6265C14.8435 18.5467 14.9044 18.4656 15.0896 18.24L14.51 17.7641ZM14.51 20.2359L15.0896 19.76C14.9044 19.5344 14.8435 19.4533 14.8059 19.3735C14.7815 19.3216 14.75 19.2334 14.75 19H14H13.25C13.25 19.3813 13.3035 19.704 13.449 20.0129C13.5814 20.2938 13.7755 20.5233 13.9303 20.7118L14.51 20.2359ZM19 19H18.25C18.25 19.1381 18.1381 19.25 18 19.25V20V20.75C18.9665 20.75 19.75 19.9665 19.75 19H19ZM18 20V19.25C17.8619 19.25 17.75 19.1381 17.75 19H17H16.25C16.25 19.9665 17.0335 20.75 18 20.75V20ZM17 19H17.75C17.75 18.8619 17.8619 18.75 18 18.75V18V17.25C17.0335 17.25 16.25 18.0335 16.25 19H17ZM18 18V18.75C18.1381 18.75 18.25 18.8619 18.25 19H19H19.75C19.75 18.0335 18.9665 17.25 18 17.25V18Z" fill="#2E2E34"/>
</svg>
