<svg width="20" height="19" viewBox="0 0 20 19" fill="none" xmlns="http://www.w3.org/2000/svg">
<path d="M5.08342 2.3335C5.08342 2.74771 5.4192 3.0835 5.83342 3.0835C6.24763 3.0835 6.58342 2.74771 6.58342 2.3335H5.83342H5.08342ZM6.58342 1.0835C6.58342 0.669283 6.24763 0.333496 5.83342 0.333496C5.4192 0.333496 5.08342 0.669283 5.08342 1.0835H5.83342H6.58342ZM13.4167 2.3335C13.4167 2.74771 13.7525 3.0835 14.1667 3.0835C14.581 3.0835 14.9167 2.74771 14.9167 2.3335H14.1667H13.4167ZM14.9167 1.0835C14.9167 0.669283 14.581 0.333496 14.1667 0.333496C13.7525 0.333496 13.4167 0.669283 13.4167 1.0835H14.1667H14.9167ZM2.08341 5.75016C1.6692 5.75016 1.33341 6.08595 1.33341 6.50016C1.33341 6.91438 1.6692 7.25016 2.08341 7.25016V6.50016V5.75016ZM17.9167 7.25016C18.331 7.25016 18.6667 6.91438 18.6667 6.50016C18.6667 6.08595 18.331 5.75016 17.9167 5.75016V6.50016V7.25016ZM8.33342 2.3335V3.0835H11.6667V2.3335V1.5835H8.33342V2.3335ZM18.3334 9.00016H17.5834V10.6668H18.3334H19.0834V9.00016H18.3334ZM11.6667 17.3335V16.5835H8.33341V17.3335V18.0835H11.6667V17.3335ZM1.66675 10.6668H2.41675V9.00016H1.66675H0.916748V10.6668H1.66675ZM8.33341 17.3335V16.5835C6.74086 16.5835 5.6219 16.5819 4.77578 16.4681C3.95123 16.3573 3.49897 16.1524 3.17339 15.8269L2.64306 16.3572L2.11273 16.8875C2.76346 17.5382 3.58503 17.8215 4.57591 17.9548C5.54521 18.0851 6.78327 18.0835 8.33341 18.0835V17.3335ZM1.66675 10.6668H0.916748C0.916748 12.217 0.915155 13.455 1.04547 14.4243C1.1787 15.4152 1.462 16.2368 2.11273 16.8875L2.64306 16.3572L3.17339 15.8269C2.84781 15.5013 2.64296 15.049 2.5321 14.2245C2.41834 13.3783 2.41675 12.2594 2.41675 10.6668H1.66675ZM18.3334 10.6668H17.5834C17.5834 12.2594 17.5818 13.3783 17.4681 14.2245C17.3572 15.049 17.1524 15.5013 16.8268 15.8269L17.3571 16.3572L17.8874 16.8875C18.5382 16.2368 18.8215 15.4152 18.9547 14.4243C19.085 13.455 19.0834 12.217 19.0834 10.6668H18.3334ZM11.6667 17.3335V18.0835C13.2169 18.0835 14.455 18.0851 15.4243 17.9548C16.4151 17.8215 17.2367 17.5382 17.8874 16.8875L17.3571 16.3572L16.8268 15.8269C16.5012 16.1524 16.0489 16.3573 15.2244 16.4681C14.3783 16.5819 13.2593 16.5835 11.6667 16.5835V17.3335ZM11.6667 2.3335V3.0835C13.2593 3.0835 14.3783 3.08509 15.2244 3.19885C16.0489 3.3097 16.5012 3.51456 16.8268 3.84014L17.3571 3.30981L17.8874 2.77948C17.2367 2.12874 16.4151 1.84544 15.4243 1.71222C14.455 1.5819 13.2169 1.5835 11.6667 1.5835V2.3335ZM18.3334 9.00016H19.0834C19.0834 7.45002 19.085 6.21196 18.9547 5.24265C18.8215 4.25177 18.5382 3.43021 17.8874 2.77948L17.3571 3.30981L16.8268 3.84014C17.1524 4.16572 17.3572 4.61798 17.4681 5.44253C17.5818 6.28865 17.5834 7.40761 17.5834 9.00016H18.3334ZM8.33342 2.3335V1.5835C6.78327 1.5835 5.54521 1.5819 4.57591 1.71222C3.58503 1.84544 2.76346 2.12874 2.11273 2.77948L2.64306 3.30981L3.17339 3.84014C3.49897 3.51456 3.95123 3.3097 4.77578 3.19885C5.6219 3.08509 6.74086 3.0835 8.33342 3.0835V2.3335ZM1.66675 9.00016H2.41675C2.41675 7.40761 2.41834 6.28865 2.5321 5.44253C2.64296 4.61798 2.84781 4.16572 3.17339 3.84014L2.64306 3.30981L2.11273 2.77948C1.462 3.43021 1.1787 4.25177 1.04547 5.24265C0.915155 6.21196 0.916748 7.45002 0.916748 9.00016H1.66675ZM5.83342 2.3335H6.58342V1.0835H5.83342H5.08342V2.3335H5.83342ZM14.1667 2.3335H14.9167V1.0835H14.1667H13.4167V2.3335H14.1667ZM15.0001 12.7502H14.2501C14.2501 13.0263 14.0262 13.2502 13.7501 13.2502V14.0002V14.7502C14.8547 14.7502 15.7501 13.8547 15.7501 12.7502H15.0001ZM13.7501 14.0002V13.2502C13.4739 13.2502 13.2501 13.0263 13.2501 12.7502H12.5001H11.7501C11.7501 13.8547 12.6455 14.7502 13.7501 14.7502V14.0002ZM12.5001 12.7502H13.2501C13.2501 12.474 13.4739 12.2502 13.7501 12.2502V11.5002V10.7502C12.6455 10.7502 11.7501 11.6456 11.7501 12.7502H12.5001ZM13.7501 11.5002V12.2502C14.0262 12.2502 14.2501 12.474 14.2501 12.7502H15.0001H15.7501C15.7501 11.6456 14.8547 10.7502 13.7501 10.7502V11.5002ZM2.08341 6.50016V7.25016H17.9167V6.50016V5.75016H2.08341V6.50016Z" fill="#2E2E34"/>
</svg>
