<svg width="16" height="16" viewBox="0 0 16 16" fill="none" xmlns="http://www.w3.org/2000/svg">
<path d="M6.36467 2.42982L6.90551 3.39892C7.3936 4.27349 7.19766 5.42078 6.42893 6.18951C6.42893 6.18951 5.49649 7.12196 7.18711 8.81258C8.87769 10.5032 9.81017 9.57075 9.81017 9.57075C10.5789 8.80202 11.7262 8.60609 12.6008 9.09417L13.5699 9.63501C14.8905 10.372 15.0464 12.224 13.8857 13.3848C13.1881 14.0823 12.3337 14.6251 11.3891 14.6609C9.79899 14.7212 7.09858 14.3187 4.38976 11.6099C1.68095 8.90111 1.27852 6.20069 1.3388 4.61058C1.37461 3.66601 1.91735 2.81154 2.61485 2.11403C3.77564 0.953243 5.62765 1.10921 6.36467 2.42982Z" stroke="#B78A44" stroke-width="1.25" stroke-linecap="round"/>
</svg>
