<svg width="20" height="20" viewBox="0 0 20 20" fill="none" xmlns="http://www.w3.org/2000/svg">
<path d="M3.31278 16.8872L2.96995 17.4097L2.96995 17.4097L3.31278 16.8872ZM2.29093 15.8839L1.77424 16.2355L1.77424 16.2355L2.29093 15.8839ZM17.7092 15.8839L18.2259 16.2355L18.2259 16.2355L17.7092 15.8839ZM16.6874 16.8872L17.0302 17.4097L17.0302 17.4097L16.6874 16.8872ZM17.7092 6.38884L18.2259 6.0372L18.2259 6.0372L17.7092 6.38884ZM16.6874 5.38557L17.0302 4.86298L17.0302 4.86298L16.6874 5.38557ZM2.29093 6.38884L1.77424 6.0372H1.77424L2.29093 6.38884ZM3.31278 5.38557L2.96995 4.86298L2.96995 4.86298L3.31278 5.38557ZM6.94453 3.86364L7.55695 3.98839V3.98839L6.94453 3.86364ZM5.81508 4.80071V4.17571H5.80142L5.78777 4.17631L5.81508 4.80071ZM13.0556 3.86364L13.6681 3.73888L13.6681 3.73888L13.0556 3.86364ZM14.1851 4.80071L14.2124 4.17631L14.1987 4.17571H14.1851V4.80071ZM15.8334 8.95833C16.1786 8.95833 16.4584 8.67851 16.4584 8.33333C16.4584 7.98816 16.1786 7.70833 15.8334 7.70833V8.33333V8.95833ZM15.0001 7.70833C14.6549 7.70833 14.3751 7.98816 14.3751 8.33333C14.3751 8.67851 14.6549 8.95833 15.0001 8.95833V8.33333V7.70833ZM12.5001 10.8333H11.8751C11.8751 11.8689 11.0356 12.7083 10.0001 12.7083V13.3333V13.9583C11.726 13.9583 13.1251 12.5592 13.1251 10.8333H12.5001ZM10.0001 13.3333V12.7083C8.96455 12.7083 8.12508 11.8689 8.12508 10.8333H7.50008H6.87508C6.87508 12.5592 8.27419 13.9583 10.0001 13.9583V13.3333ZM7.50008 10.8333H8.12508C8.12508 9.7978 8.96455 8.95833 10.0001 8.95833V8.33333V7.70833C8.27419 7.70833 6.87508 9.10744 6.87508 10.8333H7.50008ZM10.0001 8.33333V8.95833C11.0356 8.95833 11.8751 9.7978 11.8751 10.8333H12.5001H13.1251C13.1251 9.10744 11.726 7.70833 10.0001 7.70833V8.33333ZM11.8519 17.5V16.875H8.14823V17.5V18.125H11.8519V17.5ZM8.14823 17.5V16.875C6.83503 16.875 5.89632 16.8743 5.16761 16.8015C4.44878 16.7297 4.00355 16.5928 3.65561 16.3646L3.31278 16.8872L2.96995 17.4097C3.55618 17.7943 4.22824 17.9639 5.04338 18.0453C5.84864 18.1257 6.86058 18.125 8.14823 18.125V17.5ZM1.66675 11.1364H1.04175C1.04175 12.3999 1.04096 13.3955 1.1231 14.1882C1.20638 14.9919 1.38018 15.6565 1.77424 16.2355L2.29093 15.8839L2.80763 15.5323C2.5775 15.1941 2.43921 14.7617 2.36644 14.0594C2.29253 13.346 2.29175 12.4264 2.29175 11.1364H1.66675ZM3.31278 16.8872L3.65561 16.3646C3.31933 16.144 3.03134 15.861 2.80763 15.5323L2.29093 15.8839L1.77424 16.2355C2.09096 16.7009 2.49743 17.0998 2.96995 17.4097L3.31278 16.8872ZM18.3334 11.1364H17.7084C17.7084 12.4264 17.7076 13.346 17.6337 14.0594C17.561 14.7617 17.4227 15.1941 17.1925 15.5323L17.7092 15.8839L18.2259 16.2355C18.62 15.6565 18.7938 14.9919 18.8771 14.1882C18.9592 13.3955 18.9584 12.3999 18.9584 11.1364H18.3334ZM11.8519 17.5V18.125C13.1396 18.125 14.1515 18.1257 14.9568 18.0453C15.7719 17.9639 16.444 17.7943 17.0302 17.4097L16.6874 16.8872L16.3445 16.3646C15.9966 16.5928 15.5514 16.7297 14.8326 16.8015C14.1038 16.8743 13.1651 16.875 11.8519 16.875V17.5ZM17.7092 15.8839L17.1925 15.5323C16.9688 15.861 16.6808 16.144 16.3445 16.3646L16.6874 16.8872L17.0302 17.4097C17.5027 17.0998 17.9092 16.7009 18.2259 16.2355L17.7092 15.8839ZM18.3334 11.1364H18.9584C18.9584 9.87282 18.9592 8.87726 18.8771 8.08454C18.7938 7.28079 18.62 6.61622 18.2259 6.0372L17.7092 6.38884L17.1925 6.74047C17.4227 7.07862 17.561 7.51104 17.6337 8.21337C17.7076 8.92672 17.7084 9.84634 17.7084 11.1364H18.3334ZM16.6874 5.38557L16.3445 5.90815C16.6808 6.12876 16.9688 6.41175 17.1925 6.74047L17.7092 6.38884L18.2259 6.0372C17.9092 5.57181 17.5027 5.17297 17.0302 4.86298L16.6874 5.38557ZM1.66675 11.1364H2.29175C2.29175 9.84634 2.29253 8.92672 2.36644 8.21337C2.43921 7.51104 2.5775 7.07862 2.80763 6.74047L2.29093 6.38884L1.77424 6.0372C1.38018 6.61622 1.20638 7.28079 1.1231 8.08454C1.04096 8.87726 1.04175 9.87282 1.04175 11.1364H1.66675ZM3.31278 5.38557L2.96995 4.86298C2.49743 5.17297 2.09096 5.57181 1.77424 6.0372L2.29093 6.38884L2.80763 6.74047C3.03134 6.41175 3.31933 6.12876 3.65561 5.90815L3.31278 5.38557ZM8.6387 2.5V3.125H11.3615V2.5V1.875H8.6387V2.5ZM6.94453 3.86364L6.3321 3.73888C6.28077 3.99087 6.05248 4.17571 5.81508 4.17571V4.80071V5.42571C6.67577 5.42571 7.39293 4.7936 7.55695 3.98839L6.94453 3.86364ZM13.0556 3.86364L12.4432 3.98839C12.6072 4.7936 13.3244 5.42571 14.1851 5.42571V4.80071V4.17571C13.9477 4.17571 13.7194 3.99087 13.6681 3.73888L13.0556 3.86364ZM11.3615 2.5V3.125C11.8957 3.125 12.3425 3.49416 12.4432 3.98839L13.0556 3.86364L13.6681 3.73888C13.4457 2.64732 12.4743 1.875 11.3615 1.875V2.5ZM8.6387 2.5V1.875C7.52582 1.875 6.55446 2.64732 6.3321 3.73888L6.94453 3.86364L7.55695 3.98839C7.65762 3.49416 8.10443 3.125 8.6387 3.125V2.5ZM14.1851 4.80071L14.1578 5.42512C15.2894 5.4746 15.894 5.61258 16.3445 5.90815L16.6874 5.38557L17.0302 4.86298C16.2802 4.37097 15.3819 4.22745 14.2124 4.17631L14.1851 4.80071ZM5.81508 4.80071L5.78777 4.17631C4.61825 4.22745 3.71994 4.37097 2.96995 4.86298L3.31278 5.38557L3.65561 5.90815C4.10615 5.61258 4.71081 5.4746 5.84238 5.42512L5.81508 4.80071ZM15.8334 8.33333V7.70833H15.0001V8.33333V8.95833H15.8334V8.33333Z" fill="#2E2E34"/>
</svg>
