<svg width="21" height="22" viewBox="0 0 21 22" fill="none" xmlns="http://www.w3.org/2000/svg">
<path d="M6 11.125C5.51675 11.125 5.125 11.5167 5.125 12C5.125 12.4832 5.51675 12.875 6 12.875V12V11.125ZM10.5 12.875C10.9832 12.875 11.375 12.4832 11.375 12C11.375 11.5167 10.9832 11.125 10.5 11.125V12V12.875ZM6 7.125C5.51675 7.125 5.125 7.51675 5.125 8C5.125 8.48325 5.51675 8.875 6 8.875V8V7.125ZM8.5 8.875C8.98325 8.875 9.375 8.48325 9.375 8C9.375 7.51675 8.98325 7.125 8.5 7.125V8V8.875ZM6 15.125C5.51675 15.125 5.125 15.5167 5.125 16C5.125 16.4832 5.51675 16.875 6 16.875V16V15.125ZM12.5 16.875C12.9832 16.875 13.375 16.4832 13.375 16C13.375 15.5167 12.9832 15.125 12.5 15.125V16V16.875ZM17.8284 19.8284L17.2097 19.2097L17.2097 19.2097L17.8284 19.8284ZM17.2097 2.79029C17.5514 3.132 18.1054 3.132 18.4471 2.79029C18.7889 2.44858 18.7889 1.89456 18.4471 1.55285L17.8284 2.17157L17.2097 2.79029ZM19.8662 15.0127C19.8732 14.5295 19.4872 14.1321 19.004 14.1251C18.5208 14.1181 18.1234 14.5041 18.1164 14.9873L18.9913 15L19.8662 15.0127ZM17.875 6C17.875 5.51675 17.4832 5.125 17 5.125C16.5167 5.125 16.125 5.51675 16.125 6H17H17.875ZM16.125 12C16.125 12.4832 16.5167 12.875 17 12.875C17.4832 12.875 17.875 12.4832 17.875 12H17H16.125ZM14 8.125C13.5167 8.125 13.125 8.51675 13.125 9C13.125 9.48325 13.5167 9.875 14 9.875V9V8.125ZM20 9.875C20.4832 9.875 20.875 9.48325 20.875 9C20.875 8.51675 20.4832 8.125 20 8.125L20 9L20 9.875ZM6 12V12.875H10.5V12V11.125H6V12ZM6 8V8.875H8.5V8V7.125H6V8ZM6 16V16.875H12.5V16V15.125H6V16ZM9 1V1.875H11V1V0.125H9V1ZM11 21V20.125H9V21V21.875H11V21ZM1 13H1.875V9H1H0.125V13H1ZM9 21V20.125C7.08964 20.125 5.7449 20.1231 4.7275 19.9864C3.73528 19.853 3.1864 19.6058 2.79029 19.2097L2.17157 19.8284L1.55285 20.4471C2.32831 21.2226 3.30804 21.5613 4.49432 21.7207C5.65543 21.8769 7.13912 21.875 9 21.875V21ZM1 13H0.125C0.125 14.8609 0.123142 16.3446 0.279249 17.5057C0.438741 18.692 0.777395 19.6717 1.55285 20.4471L2.17157 19.8284L2.79029 19.2097C2.39418 18.8136 2.14705 18.2647 2.01364 17.2725C1.87686 16.2551 1.875 14.9104 1.875 13H1ZM11 21V21.875C12.8609 21.875 14.3446 21.8769 15.5057 21.7207C16.692 21.5613 17.6717 21.2226 18.4471 20.4471L17.8284 19.8284L17.2097 19.2097C16.8136 19.6058 16.2647 19.853 15.2725 19.9864C14.2551 20.1231 12.9104 20.125 11 20.125V21ZM11 1V1.875C12.9104 1.875 14.2551 1.87686 15.2725 2.01364C16.2647 2.14705 16.8136 2.39418 17.2097 2.79029L17.8284 2.17157L18.4471 1.55285C17.6717 0.777395 16.692 0.438741 15.5057 0.279249C14.3446 0.123142 12.8609 0.125 11 0.125V1ZM9 1V0.125C7.13912 0.125 5.65543 0.123142 4.49432 0.279249C3.30804 0.438741 2.32831 0.777395 1.55285 1.55285L2.17157 2.17157L2.79029 2.79029C3.1864 2.39418 3.73528 2.14705 4.7275 2.01364C5.7449 1.87686 7.08964 1.875 9 1.875V1ZM1 9H1.875C1.875 7.08964 1.87686 5.7449 2.01364 4.7275C2.14705 3.73528 2.39418 3.1864 2.79029 2.79029L2.17157 2.17157L1.55285 1.55285C0.777395 2.32831 0.438741 3.30804 0.279249 4.49432C0.123142 5.65543 0.125 7.13912 0.125 9H1ZM18.9913 15L18.1164 14.9873C18.0796 17.5277 17.8645 18.555 17.2097 19.2097L17.8284 19.8284L18.4471 20.4471C19.6786 19.2157 19.8312 17.4314 19.8662 15.0127L18.9913 15ZM17 6H16.125V9H17H17.875V6H17ZM17 9H16.125V12H17H17.875V9H17ZM14 9V9.875H17V9V8.125H14V9ZM17 9L17 9.875L20 9.875L20 9L20 8.125L17 8.125L17 9Z" fill="#2E2E34"/>
</svg>
