<svg width="20" height="20" viewBox="0 0 20 20" fill="none" xmlns="http://www.w3.org/2000/svg">
<path d="M17.0832 5.625C17.4284 5.625 17.7082 5.34518 17.7082 5C17.7082 4.65482 17.4284 4.375 17.0832 4.375V5V5.625ZM2.9165 4.375C2.57133 4.375 2.2915 4.65482 2.2915 5C2.2915 5.34518 2.57133 5.625 2.9165 5.625V5V4.375ZM15.3111 12.8326L14.6875 12.791L15.3111 12.8326ZM16.318 7.12491C16.3409 6.78049 16.0803 6.48268 15.7359 6.45972C15.3915 6.43676 15.0937 6.69735 15.0707 7.04176L15.6944 7.08333L16.318 7.12491ZM4.92908 7.04176C4.90612 6.69735 4.6083 6.43676 4.26389 6.45972C3.91948 6.48268 3.65889 6.78049 3.68185 7.12491L4.30546 7.08333L4.92908 7.04176ZM4.68875 12.8326L4.06513 12.8742L4.68875 12.8326ZM5.63083 16.8256L6.05782 16.3692L5.63083 16.8256ZM8.53847 9.10448C8.50413 8.76101 8.19785 8.51042 7.85438 8.54477C7.51092 8.57911 7.26033 8.88539 7.29468 9.22886L7.91657 9.16667L8.53847 9.10448ZM7.71134 13.3955C7.74569 13.739 8.05197 13.9896 8.39543 13.9552C8.7389 13.9209 8.98949 13.6146 8.95514 13.2711L8.33324 13.3333L7.71134 13.3955ZM12.7051 9.22886C12.7395 8.88539 12.4889 8.57911 12.1454 8.54477C11.802 8.51042 11.4957 8.76101 11.4613 9.10448L12.0832 9.16667L12.7051 9.22886ZM11.0447 13.2711C11.0103 13.6146 11.2609 13.9209 11.6044 13.9552C11.9478 13.9896 12.2541 13.739 12.2885 13.3955L11.6666 13.3333L11.0447 13.2711ZM12.857 3.57143L13.45 3.37379V3.37379L12.857 3.57143ZM12.938 3.81415L12.345 4.01179V4.01179L12.938 3.81415ZM7.06186 3.81415L6.46893 3.6165L6.46893 3.6165L7.06186 3.81415ZM7.14276 3.57143L6.54984 3.37379L6.54984 3.37379L7.14276 3.57143ZM7.03259 3.90027L7.62032 4.11287L7.62032 4.11286L7.03259 3.90027ZM5.41657 4.375C5.0714 4.375 4.79157 4.65482 4.79157 5C4.79157 5.34518 5.0714 5.625 5.41657 5.625V5V4.375ZM5.50753 4.99946L5.52336 5.62426H5.52337L5.50753 4.99946ZM12.9672 3.90027L13.555 3.68767L13.5549 3.68765L12.9672 3.90027ZM14.5832 5.625C14.9284 5.625 15.2082 5.34518 15.2082 5C15.2082 4.65482 14.9284 4.375 14.5832 4.375V5V5.625ZM14.4923 4.99946L14.4764 5.62426H14.4765L14.4923 4.99946ZM11.7961 2.51564L11.8946 1.89846V1.89846L11.7961 2.51564ZM12.7076 3.17267L13.262 2.884L13.262 2.884L12.7076 3.17267ZM8.20375 2.51564L8.10519 1.89846L8.20375 2.51564ZM7.29217 3.17267L6.73783 2.884L6.73782 2.884L7.29217 3.17267ZM17.0832 5V4.375H2.9165V5V5.625H17.0832V5ZM9.67767 17.5V18.125H10.3221V17.5V16.875H9.67767V17.5ZM15.3111 12.8326L15.9347 12.8742L16.318 7.12491L15.6944 7.08333L15.0707 7.04176L14.6875 12.791L15.3111 12.8326ZM4.30546 7.08333L3.68185 7.12491L4.06513 12.8742L4.68875 12.8326L5.31236 12.791L4.92908 7.04176L4.30546 7.08333ZM10.3221 17.5V18.125C11.4138 18.125 12.2934 18.1263 12.9878 18.0354C13.7 17.9423 14.303 17.7432 14.796 17.282L14.369 16.8256L13.942 16.3692C13.7142 16.5824 13.4024 16.7205 12.8257 16.796C12.2312 16.8737 11.4478 16.875 10.3221 16.875V17.5ZM15.3111 12.8326L14.6875 12.791C14.6126 13.9142 14.5592 14.6957 14.4421 15.2838C14.3284 15.8541 14.1698 16.1561 13.942 16.3692L14.369 16.8256L14.796 17.282C15.289 16.8208 15.5277 16.2324 15.668 15.528C15.8048 14.8412 15.8621 13.9634 15.9347 12.8742L15.3111 12.8326ZM9.67767 17.5V16.875C8.55197 16.875 7.76863 16.8737 7.17413 16.796C6.59746 16.7205 6.28566 16.5824 6.05782 16.3692L5.63083 16.8256L5.20384 17.282C5.69684 17.7432 6.29979 17.9423 7.012 18.0354C7.70638 18.1263 8.58604 18.125 9.67767 18.125V17.5ZM4.68875 12.8326L4.06513 12.8742C4.13775 13.9634 4.19501 14.8412 4.33183 15.528C4.47216 16.2324 4.71084 16.8208 5.20384 17.282L5.63083 16.8256L6.05782 16.3692C5.82998 16.1561 5.67136 15.8541 5.55774 15.2838C5.4406 14.6957 5.38724 13.9142 5.31236 12.791L4.68875 12.8326ZM7.91657 9.16667L7.29468 9.22886L7.71134 13.3955L8.33324 13.3333L8.95514 13.2711L8.53847 9.10448L7.91657 9.16667ZM12.0832 9.16667L11.4613 9.10448L11.0447 13.2711L11.6666 13.3333L12.2885 13.3955L12.7051 9.22886L12.0832 9.16667ZM8.62929 2.5V3.125H11.3705V2.5V1.875H8.62929V2.5ZM12.857 3.57143L12.2641 3.76907L12.345 4.01179L12.938 3.81415L13.5309 3.6165L13.45 3.37379L12.857 3.57143ZM7.06186 3.81415L7.65479 4.01179L7.73569 3.76907L7.14276 3.57143L6.54984 3.37379L6.46893 3.6165L7.06186 3.81415ZM7.06186 3.81415L6.46893 3.6165C6.45311 3.66398 6.44869 3.67706 6.44486 3.68767L7.03259 3.90027L7.62032 4.11286C7.63085 4.08376 7.64116 4.05267 7.65479 4.01179L7.06186 3.81415ZM5.41657 5V5.625C5.45967 5.625 5.49242 5.62505 5.52336 5.62426L5.50753 4.99946L5.4917 4.37467C5.48042 4.37495 5.46661 4.375 5.41657 4.375V5ZM7.03259 3.90027L6.44486 3.68767C6.29892 4.0911 5.92057 4.3638 5.4917 4.37467L5.50753 4.99946L5.52337 5.62426C6.46689 5.60035 7.29926 5.00042 7.62032 4.11287L7.03259 3.90027ZM12.938 3.81415L12.345 4.01179C12.3586 4.05239 12.369 4.08382 12.3795 4.11288L12.9672 3.90027L13.5549 3.68765C13.5511 3.67712 13.5466 3.66374 13.5309 3.6165L12.938 3.81415ZM14.5832 5V4.375C14.5332 4.375 14.5194 4.37495 14.5081 4.37467L14.4923 4.99946L14.4765 5.62426C14.5074 5.62505 14.5401 5.625 14.5832 5.625V5ZM12.9672 3.90027L12.3795 4.11287C12.7006 5.00042 13.5329 5.60035 14.4764 5.62426L14.4923 4.99946L14.5081 4.37467C14.0792 4.3638 13.7009 4.0911 13.555 3.68767L12.9672 3.90027ZM11.3705 2.5V3.125C11.6108 3.125 11.6604 3.12689 11.6975 3.13282L11.7961 2.51564L11.8946 1.89846C11.7359 1.87311 11.5671 1.875 11.3705 1.875V2.5ZM12.857 3.57143L13.45 3.37379C13.3878 3.18732 13.3362 3.0266 13.262 2.884L12.7076 3.17267L12.1533 3.46133C12.1707 3.49466 12.1881 3.54114 12.2641 3.76907L12.857 3.57143ZM11.7961 2.51564L11.6975 3.13282C11.8929 3.16402 12.0619 3.28586 12.1533 3.46133L12.7076 3.17267L13.262 2.884C12.9879 2.35759 12.4807 1.99205 11.8946 1.89846L11.7961 2.51564ZM8.62929 2.5V1.875C8.43274 1.875 8.26396 1.87311 8.10519 1.89846L8.20375 2.51564L8.3023 3.13282C8.33941 3.12689 8.38903 3.125 8.62929 3.125V2.5ZM7.14276 3.57143L7.73569 3.76907C7.81167 3.54115 7.82916 3.49466 7.84651 3.46133L7.29217 3.17267L6.73782 2.884C6.66357 3.0266 6.61199 3.18733 6.54984 3.37379L7.14276 3.57143ZM8.20375 2.51564L8.10519 1.89846C7.51911 1.99205 7.01195 2.35759 6.73783 2.884L7.29217 3.17267L7.84651 3.46133C7.93789 3.28586 8.10694 3.16402 8.3023 3.13282L8.20375 2.51564Z" fill="#2E2E34"/>
</svg>
