<svg width="20" height="20" viewBox="0 0 20 20" fill="none" xmlns="http://www.w3.org/2000/svg">
<path d="M13.4973 13.4473C13.2532 13.2032 12.8575 13.2032 12.6134 13.4473C12.3694 13.6913 12.3694 14.0871 12.6134 14.3311L13.0554 13.8892L13.4973 13.4473ZM14.8357 16.5534C15.0797 16.7974 15.4755 16.7974 15.7195 16.5534C15.9636 16.3093 15.9636 15.9136 15.7195 15.6695L15.2776 16.1114L14.8357 16.5534ZM15.7198 14.3311C15.9639 14.0871 15.9639 13.6913 15.7198 13.4473C15.4757 13.2032 15.08 13.2032 14.8359 13.4473L15.2779 13.8892L15.7198 14.3311ZM12.6137 15.6695C12.3696 15.9136 12.3696 16.3093 12.6137 16.5534C12.8578 16.7974 13.2535 16.7974 13.4976 16.5534L13.0556 16.1114L12.6137 15.6695ZM13.3333 5.00033H12.7083C12.7083 6.4961 11.4957 7.70866 9.99996 7.70866V8.33366V8.95866C12.1861 8.95866 13.9583 7.18645 13.9583 5.00033H13.3333ZM9.99996 8.33366V7.70866C8.50419 7.70866 7.29163 6.4961 7.29163 5.00033H6.66663H6.04163C6.04163 7.18645 7.81383 8.95866 9.99996 8.95866V8.33366ZM6.66663 5.00033H7.29163C7.29163 3.50455 8.50419 2.29199 9.99996 2.29199V1.66699V1.04199C7.81383 1.04199 6.04163 2.8142 6.04163 5.00033H6.66663ZM9.99996 1.66699V2.29199C11.4957 2.29199 12.7083 3.50455 12.7083 5.00033H13.3333H13.9583C13.9583 2.8142 12.1861 1.04199 9.99996 1.04199V1.66699ZM9.99996 17.5003V16.8753C8.47774 16.8753 7.13037 16.5214 6.18526 15.9814C5.22246 15.4312 4.79163 14.7664 4.79163 14.167H4.16663H3.54163C3.54163 15.4085 4.41662 16.4104 5.56508 17.0667C6.73122 17.733 8.30051 18.1253 9.99996 18.1253V17.5003ZM4.16663 14.167H4.79163C4.79163 13.5676 5.22246 12.9028 6.18526 12.3526C7.13037 11.8126 8.47774 11.4587 9.99996 11.4587V10.8337V10.2087C8.30051 10.2087 6.73122 10.601 5.56508 11.2673C4.41662 11.9236 3.54163 12.9254 3.54163 14.167H4.16663ZM11.6666 17.3623L11.5618 16.7461C11.069 16.83 10.5446 16.8753 9.99996 16.8753V17.5003V18.1253C10.6136 18.1253 11.2081 18.0742 11.7714 17.9784L11.6666 17.3623ZM9.99996 10.8337V11.4587C11.3472 11.4587 12.5609 11.7361 13.4795 12.177L13.75 11.6136L14.0204 11.0502C12.9111 10.5176 11.5085 10.2087 9.99996 10.2087V10.8337ZM17.5 15.0003H16.875C16.875 16.4961 15.6624 17.7087 14.1666 17.7087V18.3337V18.9587C16.3528 18.9587 18.125 17.1865 18.125 15.0003H17.5ZM14.1666 18.3337V17.7087C12.6709 17.7087 11.4583 16.4961 11.4583 15.0003H10.8333H10.2083C10.2083 17.1865 11.9805 18.9587 14.1666 18.9587V18.3337ZM10.8333 15.0003H11.4583C11.4583 13.5046 12.6709 12.292 14.1666 12.292V11.667V11.042C11.9805 11.042 10.2083 12.8142 10.2083 15.0003H10.8333ZM14.1666 11.667V12.292C15.6624 12.292 16.875 13.5046 16.875 15.0003H17.5H18.125C18.125 12.8142 16.3528 11.042 14.1666 11.042V11.667ZM13.0554 13.8892L12.6134 14.3311L13.7247 15.4424L14.1666 15.0005L14.6086 14.5585L13.4973 13.4473L13.0554 13.8892ZM14.1666 15.0005L13.7247 15.4424L14.8357 16.5534L15.2776 16.1114L15.7195 15.6695L14.6086 14.5585L14.1666 15.0005ZM15.2779 13.8892L14.8359 13.4473L13.7247 14.5585L14.1666 15.0005L14.6086 15.4424L15.7198 14.3311L15.2779 13.8892ZM14.1666 15.0005L13.7247 14.5585L12.6137 15.6695L13.0556 16.1114L13.4976 16.5534L14.6086 15.4424L14.1666 15.0005Z" fill="#EB2121"/>
</svg>
