<svg width="20" height="20" viewBox="0 0 20 20" fill="none" xmlns="http://www.w3.org/2000/svg">
<g clip-path="url(#clip0_1215_936)">
<path d="M6.34766 0.25H13.3965L19.25 6.10352V17.3965C19.2499 18.6823 18.1317 19.75 16.7197 19.75H6.28516C4.86758 19.75 3.75011 18.682 3.75 17.3965V2.60352C3.75006 1.32482 4.92261 0.25 6.34766 0.25Z" fill="white" stroke="#DBDBDB" stroke-width="0.5"/>
<path d="M13.5128 4.08V0L19.5 6H15.5085C13.7124 6 13.4297 4.72 13.5128 4.08Z" fill="#D4D4D8"/>
<rect x="0.5" y="9.5" width="15" height="7" rx="1.5" fill="#155EEF"/>
<path d="M4.35574 14.5H3.19558V11.2273H4.36532C4.69451 11.2273 4.97789 11.2928 5.21547 11.4238C5.45304 11.5538 5.63574 11.7408 5.76358 11.9847C5.89249 12.2287 5.95694 12.5206 5.95694 12.8604C5.95694 13.2013 5.89249 13.4943 5.76358 13.7393C5.63574 13.9844 5.45197 14.1724 5.21227 14.3034C4.97363 14.4345 4.68812 14.5 4.35574 14.5ZM3.88752 13.9071H4.32697C4.53152 13.9071 4.70357 13.8709 4.84313 13.7985C4.98375 13.725 5.08922 13.6115 5.15953 13.4581C5.23091 13.3036 5.2666 13.1044 5.2666 12.8604C5.2666 12.6186 5.23091 12.421 5.15953 12.2676C5.08922 12.1142 4.98429 12.0012 4.84473 11.9288C4.70517 11.8564 4.53311 11.8201 4.32857 11.8201H3.88752V13.9071ZM9.47696 12.8636C9.47696 13.2205 9.40931 13.5241 9.27401 13.7745C9.13978 14.0249 8.95654 14.2161 8.7243 14.3482C8.49312 14.4792 8.23318 14.5447 7.94447 14.5447C7.65363 14.5447 7.39262 14.4787 7.16144 14.3466C6.93026 14.2145 6.74756 14.0233 6.61333 13.7729C6.47909 13.5225 6.41198 13.2195 6.41198 12.8636C6.41198 12.5067 6.47909 12.2031 6.61333 11.9528C6.74756 11.7024 6.93026 11.5117 7.16144 11.3807C7.39262 11.2486 7.65363 11.1825 7.94447 11.1825C8.23318 11.1825 8.49312 11.2486 8.7243 11.3807C8.95654 11.5117 9.13978 11.7024 9.27401 11.9528C9.40931 12.2031 9.47696 12.5067 9.47696 12.8636ZM8.77544 12.8636C8.77544 12.6325 8.74081 12.4375 8.67156 12.2788C8.60338 12.12 8.50697 11.9996 8.38232 11.9176C8.25768 11.8356 8.11173 11.7946 7.94447 11.7946C7.77721 11.7946 7.63126 11.8356 7.50661 11.9176C7.38197 11.9996 7.28502 12.12 7.21578 12.2788C7.14759 12.4375 7.1135 12.6325 7.1135 12.8636C7.1135 13.0948 7.14759 13.2898 7.21578 13.4485C7.28502 13.6072 7.38197 13.7276 7.50661 13.8097C7.63126 13.8917 7.77721 13.9327 7.94447 13.9327C8.11173 13.9327 8.25768 13.8917 8.38232 13.8097C8.50697 13.7276 8.60338 13.6072 8.67156 13.4485C8.74081 13.2898 8.77544 13.0948 8.77544 12.8636ZM12.8771 12.373H12.1772C12.1644 12.2825 12.1383 12.2021 12.0989 12.1317C12.0595 12.0604 12.0089 11.9996 11.9471 11.9496C11.8853 11.8995 11.8139 11.8612 11.733 11.8345C11.6531 11.8079 11.5662 11.7946 11.4725 11.7946C11.3031 11.7946 11.1555 11.8366 11.0298 11.9208C10.9041 12.0039 10.8066 12.1254 10.7374 12.2852C10.6681 12.4439 10.6335 12.6367 10.6335 12.8636C10.6335 13.0969 10.6681 13.293 10.7374 13.4517C10.8077 13.6104 10.9057 13.7303 11.0314 13.8113C11.1571 13.8922 11.3026 13.9327 11.4677 13.9327C11.5604 13.9327 11.6461 13.9205 11.725 13.896C11.8049 13.8714 11.8757 13.8358 11.9375 13.7889C11.9993 13.7409 12.0504 13.6829 12.0909 13.6147C12.1325 13.5465 12.1612 13.4687 12.1772 13.3814L12.8771 13.3846C12.859 13.5348 12.8137 13.6797 12.7413 13.8192C12.6699 13.9577 12.5735 14.0819 12.4521 14.1916C12.3317 14.3002 12.1879 14.3865 12.0206 14.4505C11.8544 14.5133 11.6664 14.5447 11.4565 14.5447C11.1646 14.5447 10.9036 14.4787 10.6735 14.3466C10.4444 14.2145 10.2633 14.0233 10.1301 13.7729C9.99805 13.5225 9.932 13.2195 9.932 12.8636C9.932 12.5067 9.99911 12.2031 10.1333 11.9528C10.2676 11.7024 10.4498 11.5117 10.6799 11.3807C10.91 11.2486 11.1689 11.1825 11.4565 11.1825C11.6461 11.1825 11.8219 11.2092 11.9838 11.2624C12.1468 11.3157 12.2912 11.3935 12.4169 11.4957C12.5426 11.5969 12.6449 11.7211 12.7237 11.8681C12.8036 12.0151 12.8548 12.1834 12.8771 12.373Z" fill="white"/>
</g>
<defs>
<clipPath id="clip0_1215_936">
<rect width="20" height="20" fill="white"/>
</clipPath>
</defs>
</svg>
