<svg width="20" height="20" viewBox="0 0 20 20" fill="none" xmlns="http://www.w3.org/2000/svg">
<g clip-path="url(#clip0_2100_2587)">
<path d="M9.99996 18.3332C14.6023 18.3332 18.3333 14.6022 18.3333 9.99984C18.3333 5.39746 14.6023 1.6665 9.99996 1.6665C5.39759 1.6665 1.66663 5.39746 1.66663 9.99984C1.66663 14.6022 5.39759 18.3332 9.99996 18.3332Z" stroke="#232331" stroke-width="1.5"/>
<path opacity="0.4" d="M10 5V15M12.5 7.91667C12.5 6.76667 11.3808 5.83333 10 5.83333C8.61917 5.83333 7.5 6.76667 7.5 7.91667C7.5 9.06667 8.61917 10 10 10C11.3808 10 12.5 10.9333 12.5 12.0833C12.5 13.2333 11.3808 14.1667 10 14.1667C8.61917 14.1667 7.5 13.2333 7.5 12.0833" stroke="#232331" stroke-width="0.5" stroke-linecap="round"/>
</g>
<defs>
<clipPath id="clip0_2100_2587">
<rect width="20" height="20" fill="white"/>
</clipPath>
</defs>
</svg>
