<svg width="21" height="20" viewBox="0 0 21 20" fill="none" xmlns="http://www.w3.org/2000/svg">
<path d="M15.65 6.69977L16.0362 6.31357C16.6761 5.67369 17.7136 5.67369 18.3534 6.31357C18.9933 6.95344 18.9933 7.99089 18.3534 8.63077L17.9672 9.01697M15.65 6.69977C15.65 6.69977 15.6983 7.52044 16.4224 8.24457C17.1466 8.96869 17.9672 9.01697 17.9672 9.01697M15.65 6.69977L12.0995 10.2503C11.859 10.4908 11.7388 10.611 11.6354 10.7436C11.5134 10.9 11.4088 11.0692 11.3235 11.2483C11.2511 11.4 11.1974 11.5614 11.0898 11.884L10.6341 13.2512M17.9672 9.01697L14.4167 12.5675C14.1762 12.808 14.056 12.9282 13.9234 13.0316C13.767 13.1536 13.5978 13.2582 13.4187 13.3435C13.267 13.4159 13.1056 13.4696 12.783 13.5772L11.4158 14.0329M11.4158 14.0329L11.0816 14.1443C10.9228 14.1972 10.7478 14.1559 10.6294 14.0376C10.5111 13.9192 10.4698 13.7442 10.5227 13.5854L10.6341 13.2512M11.4158 14.0329L10.6341 13.2512M7.16667 10.8337H9.25M7.16667 7.50033H12.5833M7.16667 14.167H8.41667M17.0237 2.6433C16.0474 1.66699 14.476 1.66699 11.3333 1.66699H9.66667C6.52397 1.66699 4.95262 1.66699 3.97631 2.6433C3 3.61961 3 5.19096 3 8.33366V11.667C3 14.8097 3 16.381 3.97631 17.3573C4.95262 18.3337 6.52397 18.3337 9.66667 18.3337H11.3333C14.476 18.3337 16.0474 18.3337 17.0237 17.3573C17.8096 16.5714 17.9629 15.4 17.9928 13.3337" stroke="white" stroke-width="1.25" stroke-linecap="round"/>
</svg>
