<svg width="25" height="24" viewBox="0 0 25 24" fill="none" xmlns="http://www.w3.org/2000/svg">
<path opacity="0.4" d="M11.5 2H9.5C4.5 2 2.5 4 2.5 9V15C2.5 20 4.5 22 9.5 22H15.5C20.5 22 22.5 20 22.5 15V13" stroke="#B58C43" stroke-width="1.5" stroke-linecap="round" stroke-linejoin="round"/>
<path d="M16.54 3.01976L8.66 10.8998C8.36 11.1998 8.06 11.7898 8 12.2198L7.57 15.2298C7.41 16.3198 8.18 17.0798 9.27 16.9298L12.28 16.4998C12.7 16.4398 13.29 16.1398 13.6 15.8398L21.48 7.95976C22.84 6.59976 23.48 5.01976 21.48 3.01976C19.48 1.01976 17.9 1.65976 16.54 3.01976Z" stroke="#B58C43" stroke-width="1.5" stroke-miterlimit="10" stroke-linecap="round" stroke-linejoin="round"/>
<path opacity="0.4" d="M15.41 4.1499C16.08 6.5399 17.95 8.4099 20.35 9.0899" stroke="#B58C43" stroke-width="1.5" stroke-miterlimit="10" stroke-linecap="round" stroke-linejoin="round"/>
</svg>
