<svg width="24" height="24" viewBox="0 0 24 24" fill="none" xmlns="http://www.w3.org/2000/svg">
<path d="M24 9.86507C23.8743 9.0969 23.1833 8.58479 22.2408 8.58479C21.9267 8.58479 21.6754 8.58479 21.3613 8.58479C20.7958 8.52078 20.6702 8.71282 20.6702 9.16092C20.6702 11.4014 20.6702 13.5779 20.6702 15.8183C20.6702 16.9706 19.5393 18.1869 18.2199 18.4429C14.0733 19.4031 9.92669 20.2993 5.7801 21.2595C5.34031 21.3875 4.83769 21.3875 4.33508 21.3875C4.1466 21.3875 3.83246 21.2595 3.76964 21.0675C3.70681 20.9394 3.89529 20.6834 4.02094 20.5554C4.20942 20.4273 4.46073 20.2993 4.71204 20.1713C5.46597 19.9152 6.28271 19.6592 7.03664 19.4031C10.1152 18.3789 13.1937 17.3547 16.2723 16.2664C17.6545 15.8183 18.4084 14.8581 18.4084 13.6419C18.4712 9.80106 18.4084 5.89622 18.4084 2.05539C18.4084 1.41525 18.0942 0.903144 17.4031 0.647089C16.5864 0.32702 15.8325 0.583071 15.1414 0.90314C10.7434 3.01559 6.40837 5.12805 2.01046 7.24051C0.753915 7.88065 0 8.77683 0 10.0571C0 13.7059 0 17.3547 0 21.0035C0 21.1955 -1.53387e-05 21.3876 0.0628119 21.5156C0.502603 22.7318 1.63351 23.5 3.14136 23.5C6.2199 23.5 9.29842 23.5 12.377 23.5C15.4555 23.5 18.4712 23.5 21.5497 23.5C22.2408 23.5 22.8063 23.372 23.3089 22.9239C23.9372 22.4118 23.9372 21.7076 23.9372 21.0675C23.9372 17.9181 24 9.86507 24 9.86507ZM11.1832 8.71283C11.4974 7.88065 12.1885 7.36854 13.1937 7.24051C13.8848 7.17649 14.4503 7.56058 14.5759 8.20071C14.7016 9.16092 13.5707 10.3132 12.377 10.3132C11.4345 10.3132 10.8691 9.60902 11.1832 8.71283Z" fill="#B58C43"/>
</svg>
