<svg width="18" height="15" viewBox="0 0 18 15" fill="none" xmlns="http://www.w3.org/2000/svg">
<path d="M3.99999 4.16659L5.79907 5.66582C7.3296 6.94126 8.09487 7.57898 8.99999 7.57898C9.90511 7.57898 10.6704 6.94126 12.2009 5.66582L14 4.16659M7.33332 14.1666H10.6667C13.8094 14.1666 15.3807 14.1666 16.357 13.1903C17.3333 12.214 17.3333 10.6426 17.3333 7.49992C17.3333 4.35722 17.3333 2.78587 16.357 1.80956C15.3807 0.833252 13.8094 0.833252 10.6667 0.833252H7.33332C4.19063 0.833252 2.61928 0.833252 1.64297 1.80956C0.666656 2.78587 0.666656 4.35722 0.666656 7.49992C0.666656 10.6426 0.666656 12.214 1.64297 13.1903C2.61928 14.1666 4.19063 14.1666 7.33332 14.1666Z" stroke="#2E2E34" stroke-width="1.25" stroke-linecap="round"/>
</svg>
