<svg width="20" height="22" viewBox="0 0 20 22" fill="none" xmlns="http://www.w3.org/2000/svg">
<path d="M3.3999 1.09961H16.5999C17.6999 1.09961 18.5999 1.99961 18.5999 3.09961V5.29961C18.5999 6.09961 18.0999 7.09961 17.5999 7.59961L13.2999 11.3996C12.6999 11.8996 12.2999 12.8996 12.2999 13.6996V17.9996C12.2999 18.5996 11.8999 19.3996 11.3999 19.6996L9.9999 20.5996C8.6999 21.3996 6.8999 20.4996 6.8999 18.8996V13.5996C6.8999 12.8996 6.4999 11.9996 6.0999 11.4996L2.2999 7.49961C1.7999 6.99961 1.3999 6.09961 1.3999 5.49961V3.19961C1.3999 1.99961 2.2999 1.09961 3.3999 1.09961Z" stroke="#231F20" stroke-width="1.5" stroke-miterlimit="10" stroke-linecap="round" stroke-linejoin="round"/>
</svg>
