<svg width="20" height="20" viewBox="0 0 20 20" fill="none" xmlns="http://www.w3.org/2000/svg">
<path d="M2.33882 13.994L2.95769 13.9067L2.33882 13.994ZM17.6613 13.994L17.0425 13.9067L17.6613 13.994ZM18.0138 11.494L18.6327 11.5812L18.0138 11.494ZM1.98634 11.494L1.36746 11.5812L1.98634 11.494ZM13.1303 1.67602L13.1969 1.05459H13.1969L13.1303 1.67602ZM14.6191 3.33679L15.2441 3.33815V3.33815L14.6191 3.33679ZM6.86982 1.67602L6.93651 2.29745L6.86982 1.67602ZM4.79537 3.81788C4.83295 4.161 5.14157 4.4087 5.4847 4.37112C5.82783 4.33355 6.07552 4.02492 6.03795 3.6818L5.41666 3.74984L4.79537 3.81788ZM5.381 3.33679L6.006 3.33543L5.381 3.33679ZM6.14799 12.0823L6.5465 11.6008L6.14799 12.0823ZM9.34647 14.7297L9.74498 14.2482L9.34647 14.7297ZM11.2584 14.8668L10.9441 14.3265L10.9441 14.3265L11.2584 14.8668ZM11.4807 14.7374L11.795 15.2777L11.4807 14.7374ZM14.2632 14.876L13.8899 15.3772L14.2632 14.876ZM16.2934 17.1677C16.5702 17.3739 16.9618 17.3167 17.168 17.0399C17.3742 16.7631 17.3169 16.3715 17.0401 16.1653L16.6667 16.6665L16.2934 17.1677ZM3.80609 12.0177L3.43948 11.5115L3.80609 12.0177ZM2.3362 12.3106C2.05664 12.513 1.99415 12.9038 2.19662 13.1834C2.39909 13.4629 2.78985 13.5254 3.06941 13.3229L2.70281 12.8168L2.3362 12.3106ZM7.22708 5.83317V6.45817H12.7731V5.83317V5.20817H7.22708V5.83317ZM18.0138 11.494L17.3949 11.4067L17.0425 13.9067L17.6613 13.994L18.2802 14.0812L18.6327 11.5812L18.0138 11.494ZM12.4206 18.3332V17.7082H7.57955V18.3332V18.9582H12.4206V18.3332ZM2.33882 13.994L2.95769 13.9067L2.60522 11.4067L1.98634 11.494L1.36746 11.5812L1.71994 14.0812L2.33882 13.994ZM7.57955 18.3332V17.7082C6.46131 17.7082 5.67836 17.7071 5.07941 17.6352C4.49522 17.5651 4.16687 17.4352 3.92229 17.2327L3.5237 17.7141L3.12511 18.1955C3.62818 18.6121 4.22502 18.7917 4.93048 18.8763C5.62118 18.9592 6.49233 18.9582 7.57955 18.9582V18.3332ZM2.33882 13.994L1.71994 14.0812C1.86328 15.0979 1.97814 15.9219 2.15832 16.5657C2.34413 17.2295 2.61802 17.7757 3.12511 18.1955L3.5237 17.7141L3.92229 17.2327C3.68171 17.0335 3.5089 16.7534 3.36206 16.2287C3.20958 15.684 3.10583 14.9574 2.95769 13.9067L2.33882 13.994ZM17.6613 13.994L17.0425 13.9067C16.8943 14.9574 16.7906 15.684 16.6381 16.2287C16.4913 16.7534 16.3184 17.0335 16.0779 17.2327L16.4765 17.7141L16.8751 18.1955C17.3821 17.7757 17.656 17.2295 17.8418 16.5657C18.022 15.9219 18.1369 15.0979 18.2802 14.0812L17.6613 13.994ZM12.4206 18.3332V18.9582C13.5078 18.9582 14.379 18.9592 15.0697 18.8763C15.7751 18.7917 16.372 18.6121 16.8751 18.1955L16.4765 17.7141L16.0779 17.2327C15.8333 17.4352 15.5049 17.5651 14.9207 17.6352C14.3218 17.7071 13.5389 17.7082 12.4206 17.7082V18.3332ZM12.7731 5.83317V6.45817C14.1971 6.45817 15.2024 6.45948 15.9533 6.55936C16.6909 6.65746 17.0704 6.83831 17.3229 7.11096L17.7815 6.68636L18.2401 6.26176C17.7027 5.68122 16.9842 5.43547 16.1181 5.32028C15.2654 5.20686 14.1614 5.20817 12.7731 5.20817V5.83317ZM18.0138 11.494L18.6327 11.5812C18.8158 10.2829 18.9645 9.23982 18.9582 8.41677C18.9518 7.5719 18.7834 6.84864 18.2401 6.26176L17.7815 6.68636L17.3229 7.11096C17.5694 7.37727 17.703 7.73968 17.7083 8.42625C17.7136 9.13465 17.5836 10.0688 17.3949 11.4067L18.0138 11.494ZM7.22708 5.83317V5.20817C5.83874 5.20817 4.73474 5.20686 3.88205 5.32028C3.01596 5.43547 2.29751 5.68122 1.76005 6.26176L2.21868 6.68636L2.67731 7.11096C2.92973 6.83831 3.3093 6.65746 4.04685 6.55936C4.7978 6.45948 5.80306 6.45817 7.22708 6.45817V5.83317ZM1.98634 11.494L2.60522 11.4067C2.41659 10.0688 2.28653 9.13465 2.29191 8.42625C2.29712 7.73968 2.43076 7.37727 2.67731 7.11096L2.21868 6.68636L1.76005 6.26176C1.21673 6.84864 1.04835 7.5719 1.04194 8.41677C1.03569 9.23982 1.1844 10.2829 1.36746 11.5812L1.98634 11.494ZM5.44849 3.74984V4.37484H14.5517V3.74984V3.12484H5.44849V3.74984ZM14.5517 3.74984V4.37484C15.2672 4.37484 15.8096 5.02048 15.6861 5.7253L16.3017 5.83317L16.9173 5.94104C17.1749 4.47124 16.0439 3.12484 14.5517 3.12484V3.74984ZM5.44849 3.74984V3.12484C3.9563 3.12484 2.8253 4.47124 3.08284 5.94104L3.69846 5.83317L4.31408 5.7253C4.19058 5.02048 4.73293 4.37484 5.44849 4.37484V3.74984ZM7.28429 1.6665V2.2915H12.7158V1.6665V1.0415H7.28429V1.6665ZM12.7158 1.6665V2.2915C12.9498 2.2915 13.0167 2.29242 13.0636 2.29745L13.1303 1.67602L13.1969 1.05459C13.0665 1.04059 12.9161 1.0415 12.7158 1.0415V1.6665ZM14.5834 3.74984L15.2047 3.81788C15.2265 3.61872 15.2438 3.46932 15.2441 3.33815L14.6191 3.33679L13.9941 3.33543C13.994 3.3826 13.9876 3.44916 13.9621 3.68179L14.5834 3.74984ZM13.1303 1.67602L13.0636 2.29745C13.5937 2.35434 13.9952 2.8023 13.9941 3.33543L14.6191 3.33679L15.2441 3.33815C15.2466 2.16525 14.3632 1.17974 13.1969 1.05459L13.1303 1.67602ZM7.28429 1.6665V1.0415C7.08393 1.0415 6.93356 1.04059 6.80313 1.05459L6.86982 1.67602L6.93651 2.29745C6.98341 2.29242 7.05025 2.2915 7.28429 2.2915V1.6665ZM5.41666 3.74984L6.03795 3.6818C6.01247 3.44914 6.0061 3.3826 6.006 3.33543L5.381 3.33679L4.756 3.33815C4.75628 3.46933 4.77356 3.6187 4.79537 3.81788L5.41666 3.74984ZM6.86982 1.67602L6.80313 1.05459C5.63692 1.17974 4.75345 2.16525 4.756 3.33815L5.381 3.33679L6.006 3.33543C6.00484 2.8023 6.40642 2.35434 6.93651 2.29745L6.86982 1.67602ZM15.0001 9.58317H14.3751C14.3751 9.92835 14.0953 10.2082 13.7501 10.2082V10.8332V11.4582C14.7856 11.4582 15.6251 10.6187 15.6251 9.58317H15.0001ZM13.7501 10.8332V10.2082C13.4049 10.2082 13.1251 9.92835 13.1251 9.58317H12.5001H11.8751C11.8751 10.6187 12.7145 11.4582 13.7501 11.4582V10.8332ZM12.5001 9.58317H13.1251C13.1251 9.23799 13.4049 8.95817 13.7501 8.95817V8.33317V7.70817C12.7145 7.70817 11.8751 8.54764 11.8751 9.58317H12.5001ZM13.7501 8.33317V8.95817C14.0953 8.95817 14.3751 9.23799 14.3751 9.58317H15.0001H15.6251C15.6251 8.54764 14.7856 7.70817 13.7501 7.70817V8.33317ZM6.14799 12.0823L5.74947 12.5637L8.94795 15.2111L9.34647 14.7297L9.74498 14.2482L6.5465 11.6008L6.14799 12.0823ZM11.2584 14.8668L11.5726 15.407L11.795 15.2777L11.4807 14.7374L11.1664 14.1972L10.9441 14.3265L11.2584 14.8668ZM14.2632 14.876L13.8899 15.3772L16.2934 17.1677L16.6667 16.6665L17.0401 16.1653L14.6366 14.3748L14.2632 14.876ZM11.4807 14.7374L11.795 15.2777C12.4378 14.9037 13.321 14.9535 13.8899 15.3772L14.2632 14.876L14.6366 14.3748C13.6553 13.6438 12.2299 13.5785 11.1664 14.1972L11.4807 14.7374ZM9.34647 14.7297L8.94795 15.2111C9.67047 15.8092 10.7628 15.8781 11.5726 15.407L11.2584 14.8668L10.9441 14.3265C10.5682 14.5452 10.0473 14.4984 9.74498 14.2482L9.34647 14.7297ZM3.80609 12.0177L4.17269 12.5239C4.62537 12.196 5.33448 12.2202 5.74947 12.5637L6.14799 12.0823L6.5465 11.6008C5.68469 10.8875 4.34572 10.8552 3.43948 11.5115L3.80609 12.0177ZM2.70281 12.8168L3.06941 13.3229L4.17269 12.5239L3.80609 12.0177L3.43948 11.5115L2.3362 12.3106L2.70281 12.8168Z" fill="#2E2E34"/>
</svg>
