<svg width="20" height="21" viewBox="0 0 20 21" fill="none" xmlns="http://www.w3.org/2000/svg">
<g clip-path="url(#clip0_74_5017)">
<path d="M19.5714 10.7233C19.5714 10.0269 19.5089 9.35721 19.3928 8.71436H10.1428V12.5135H15.4285C15.2009 13.7411 14.5089 14.7813 13.4687 15.4777V17.942H16.6428C18.5 16.2322 19.5714 13.7144 19.5714 10.7233Z" fill="#4285F4"/>
<path d="M10.1428 20.3213C12.7946 20.3213 15.0178 19.4419 16.6428 17.9419L13.4687 15.4776C12.5893 16.0669 11.4643 16.4151 10.1428 16.4151C7.58481 16.4151 5.41963 14.6874 4.64731 12.366H1.36606V14.9106C2.98213 18.1204 6.30356 20.3213 10.1428 20.3213Z" fill="#34A853"/>
<path d="M4.64729 12.3661C4.45086 11.7769 4.33925 11.1474 4.33925 10.5001C4.33925 9.85275 4.45086 9.22328 4.64729 8.634V6.08936H1.36604C0.678539 7.45798 0.32079 8.96847 0.321397 10.5001C0.321397 12.0849 0.700861 13.5849 1.36604 14.9108L4.64729 12.3661Z" fill="#FBBC05"/>
<path d="M10.1428 4.58472C11.5848 4.58472 12.8795 5.08025 13.8973 6.05347L16.7143 3.2365C15.0134 1.65168 12.7902 0.678467 10.1428 0.678467C6.30356 0.678467 2.98213 2.87936 1.36606 6.08918L4.64731 8.63382C5.41963 6.3124 7.58481 4.58472 10.1428 4.58472Z" fill="#EA4335"/>
</g>
<defs>
<clipPath id="clip0_74_5017">
<rect width="20" height="20" fill="white" transform="translate(0 0.5)"/>
</clipPath>
</defs>
</svg>
