<svg width="24" height="24" viewBox="0 0 24 24" fill="none" xmlns="http://www.w3.org/2000/svg">
<g clip-path="url(#clip0_2084_1277)">
<path d="M19.8216 5.58833C19.8216 4.79171 19.176 4.14844 18.3823 4.14844C17.5886 4.14844 16.9424 4.79171 16.9424 5.58833C16.9424 6.38204 17.5886 7.02528 18.3823 7.02528C19.176 7.02528 19.8216 6.38204 19.8216 5.58833Z" fill="url(#paint0_linear_2084_1277)"/>
<path d="M21.7394 16.8274C21.6861 17.9961 21.4906 18.631 21.3284 19.0527C21.1103 19.6118 20.8503 20.0117 20.4286 20.431C20.0116 20.8504 19.6118 21.1098 19.0527 21.3254C18.631 21.49 17.9937 21.6861 16.825 21.7418C15.5617 21.7975 15.1873 21.8093 11.9836 21.8093C8.78274 21.8093 8.40539 21.7975 7.14202 21.7418C5.97344 21.6861 5.33906 21.49 4.9173 21.3254C4.35522 21.1098 3.9584 20.8504 3.53904 20.431C3.11671 20.0117 2.85671 19.6118 2.6417 19.0527C2.47938 18.631 2.28098 17.9961 2.23061 16.8274C2.16904 15.564 2.15776 15.1837 2.15776 11.9865C2.15776 8.78271 2.16904 8.40541 2.23061 7.14199C2.28098 5.97341 2.47938 5.33907 2.6417 4.91377C2.85671 4.35523 3.11671 3.95777 3.53904 3.53842C3.9584 3.11969 4.35522 2.85964 4.9173 2.6417C5.33906 2.47645 5.97344 2.28334 7.14202 2.22768C8.40539 2.17197 8.78274 2.15776 11.9836 2.15776C15.1873 2.15776 15.5617 2.17197 16.825 2.22768C17.9937 2.28334 18.631 2.47645 19.0527 2.6417C19.6118 2.85964 20.0116 3.11969 20.4286 3.53842C20.8503 3.95777 21.1103 4.35523 21.3284 4.91377C21.4906 5.33907 21.6861 5.97341 21.7394 7.14199C21.798 8.40541 21.8122 8.78271 21.8122 11.9865C21.8122 15.1837 21.798 15.564 21.7394 16.8274ZM23.8972 7.0437C23.8386 5.76667 23.6371 4.89422 23.338 4.13431C23.0336 3.34593 22.6255 2.67781 21.9573 2.00969C21.2922 1.34455 20.6241 0.936438 19.8357 0.628452C19.0729 0.332285 18.2033 0.128516 16.9257 0.0728545C15.6481 0.0112397 15.24 0 11.9836 0C8.72998 0 8.31897 0.0112397 7.04135 0.0728545C5.7667 0.128516 4.89775 0.332285 4.13133 0.628452C3.34594 0.936438 2.67782 1.34455 2.01267 2.00969C1.34455 2.67781 0.936436 3.34593 0.629029 4.13431C0.332861 4.89422 0.131492 5.76667 0.0698773 7.0437C0.0142153 8.32132 0 8.72999 0 11.9865C0 15.2401 0.0142153 15.6481 0.0698773 16.9257C0.131492 18.2004 0.332861 19.0722 0.629029 19.8357C0.936436 20.6211 1.34455 21.2922 2.01267 21.9574C2.67782 22.6225 3.34594 23.0336 4.13133 23.341C4.89775 23.6371 5.7667 23.8385 7.04135 23.8972C8.31897 23.9558 8.72998 23.97 11.9836 23.97C15.24 23.97 15.6481 23.9558 16.9257 23.8972C18.2033 23.8385 19.0729 23.6371 19.8357 23.341C20.6241 23.0336 21.2922 22.6225 21.9573 21.9574C22.6255 21.2922 23.0336 20.6211 23.338 19.8357C23.6371 19.0722 23.8386 18.2004 23.8972 16.9257C23.9558 15.6481 23.97 15.2401 23.97 11.9865C23.97 8.72999 23.9558 8.32132 23.8972 7.0437Z" fill="url(#paint1_linear_2084_1277)"/>
<path d="M11.9836 15.9779C9.7784 15.9779 7.98905 14.1915 7.98905 11.9863C7.98905 9.77756 9.7784 7.98884 11.9836 7.98884C14.1894 7.98884 15.9811 9.77756 15.9811 11.9863C15.9811 14.1915 14.1894 15.9779 11.9836 15.9779ZM11.9836 5.82812C8.58433 5.82812 5.8313 8.58705 5.8313 11.9863C5.8313 15.3826 8.58433 18.1386 11.9836 18.1386C15.3828 18.1386 18.1388 15.3826 18.1388 11.9863C18.1388 8.58705 15.3828 5.82812 11.9836 5.82812Z" fill="url(#paint2_linear_2084_1277)"/>
</g>
<defs>
<linearGradient id="paint0_linear_2084_1277" x1="0.216282" y1="23.7227" x2="21.9737" y2="1.96541" gradientUnits="userSpaceOnUse">
<stop stop-color="#FFD521"/>
<stop offset="0.05" stop-color="#FFD521"/>
<stop offset="0.501119" stop-color="#F50000"/>
<stop offset="0.95" stop-color="#B900B4"/>
<stop offset="0.950079" stop-color="#B900B4"/>
<stop offset="1" stop-color="#B900B4"/>
</linearGradient>
<linearGradient id="paint1_linear_2084_1277" x1="0.216206" y1="23.7521" x2="21.9915" y2="1.97683" gradientUnits="userSpaceOnUse">
<stop stop-color="#FFD521"/>
<stop offset="0.05" stop-color="#FFD521"/>
<stop offset="0.501119" stop-color="#F50000"/>
<stop offset="0.95" stop-color="#B900B4"/>
<stop offset="0.950079" stop-color="#B900B4"/>
<stop offset="1" stop-color="#B900B4"/>
</linearGradient>
<linearGradient id="paint2_linear_2084_1277" x1="0.221889" y1="23.7524" x2="21.9919" y2="1.98245" gradientUnits="userSpaceOnUse">
<stop stop-color="#FFD521"/>
<stop offset="0.05" stop-color="#FFD521"/>
<stop offset="0.501119" stop-color="#F50000"/>
<stop offset="0.95" stop-color="#B900B4"/>
<stop offset="0.950079" stop-color="#B900B4"/>
<stop offset="1" stop-color="#B900B4"/>
</linearGradient>
<clipPath id="clip0_2084_1277">
<rect width="24" height="24" fill="white"/>
</clipPath>
</defs>
</svg>
