<svg width="15" height="16" viewBox="0 0 15 16" fill="none" xmlns="http://www.w3.org/2000/svg">
<path d="M14.1667 7.99998C14.1667 8.87546 13.9943 9.74237 13.6592 10.5512C13.3242 11.36 12.8331 12.095 12.2141 12.714C11.595 13.3331 10.8601 13.8241 10.0513 14.1592C9.24243 14.4942 8.37552 14.6666 7.50004 14.6666M14.1667 7.99998C14.1667 7.1245 13.9943 6.2576 13.6592 5.44876C13.3242 4.63992 12.8331 3.90499 12.2141 3.28594C11.595 2.66688 10.8601 2.17581 10.0513 1.84078C9.24243 1.50575 8.37552 1.33331 7.50004 1.33331M14.1667 7.99998L0.833374 7.99998M7.50004 14.6666C6.62456 14.6666 5.75765 14.4942 4.94882 14.1592C4.13998 13.8241 3.40505 13.3331 2.786 12.714C2.16694 12.095 1.67587 11.36 1.34084 10.5512C1.00581 9.74237 0.833374 8.87546 0.833374 7.99998M7.50004 14.6666C7.85023 14.6666 8.197 14.4942 8.52053 14.1592C8.84407 13.8241 9.13804 13.3331 9.38566 12.714C9.63328 12.095 9.82971 11.36 9.96372 10.5512C10.0977 9.74237 10.1667 8.87546 10.1667 7.99998C10.1667 7.1245 10.0977 6.2576 9.96372 5.44876C9.82971 4.63992 9.63328 3.90499 9.38566 3.28594C9.13804 2.66688 8.84407 2.17581 8.52053 1.84078C8.197 1.50575 7.85023 1.33331 7.50004 1.33331M7.50004 14.6666C7.14985 14.6666 6.80309 14.4942 6.47955 14.1592C6.15602 13.8241 5.86205 13.3331 5.61442 12.714C5.3668 12.095 5.17037 11.36 5.03636 10.5512C4.90235 9.74237 4.83337 8.87546 4.83337 7.99998C4.83337 7.1245 4.90235 6.25759 5.03636 5.44876C5.17037 4.63992 5.3668 3.90499 5.61442 3.28593C5.86205 2.66688 6.15602 2.17581 6.47955 1.84078C6.80309 1.50575 7.14985 1.33331 7.50004 1.33331M0.833374 7.99998C0.833374 7.1245 1.00581 6.25759 1.34084 5.44876C1.67588 4.63992 2.16694 3.90499 2.786 3.28593C3.40505 2.66688 4.13998 2.17581 4.94882 1.84078C5.75766 1.50575 6.62456 1.33331 7.50004 1.33331" stroke="#2E2E34" stroke-linecap="round"/>
</svg>
