<svg width="24" height="24" viewBox="0 0 24 24" fill="none" xmlns="http://www.w3.org/2000/svg">
<g clip-path="url(#clip0_2084_1268)">
<path d="M20.4226 20.2213H16.8712V14.7144C16.8712 13.4012 16.8475 11.7107 15.0241 11.7107C13.1744 11.7107 12.8914 13.1415 12.8914 14.6188V20.2209H9.33991V8.89645H12.7493V10.4441H12.797C13.1382 9.86642 13.6313 9.39123 14.2237 9.06909C14.816 8.74696 15.4856 8.58994 16.1609 8.61476C19.7605 8.61476 20.4241 10.9591 20.4241 14.0089L20.4226 20.2213ZM5.33271 7.34847C4.92509 7.34854 4.5266 7.22893 4.18764 7.00476C3.84867 6.78059 3.58448 6.46193 3.42842 6.08908C3.27237 5.71623 3.23147 5.30593 3.31092 4.91007C3.39037 4.51421 3.5866 4.15056 3.87477 3.86512C4.16295 3.57968 4.53014 3.38526 4.92991 3.30645C5.32968 3.22764 5.74407 3.26798 6.12069 3.42236C6.49731 3.57675 6.81923 3.83825 7.04575 4.17379C7.27227 4.50933 7.39322 4.90385 7.39329 5.30745C7.39334 5.57544 7.34007 5.8408 7.23654 6.0884C7.13302 6.336 6.98126 6.56099 6.78992 6.75052C6.59858 6.94004 6.37139 7.0904 6.12137 7.19299C5.87134 7.29559 5.60336 7.34842 5.33271 7.34847ZM7.10843 20.2213H3.55329V8.89645H7.10843V20.2213ZM22.1932 0.0016169H1.7687C1.30512 -0.00356306 0.858404 0.173702 0.526757 0.49446C0.195109 0.815217 0.00565772 1.25322 0 1.71223V22.0195C0.00546408 22.4787 0.194804 22.917 0.526441 23.2381C0.858077 23.5592 1.30489 23.7368 1.7687 23.7319H22.1932C22.6579 23.7377 23.106 23.5606 23.4389 23.2395C23.7719 22.9184 23.9625 22.4796 23.9689 22.0195V1.71077C23.9623 1.25085 23.7715 0.812343 23.4386 0.491594C23.1056 0.170844 22.6577 -0.00591465 22.1932 0.000151116" fill="#0A66C2"/>
</g>
<defs>
<clipPath id="clip0_2084_1268">
<rect width="24" height="24" fill="white"/>
</clipPath>
</defs>
</svg>
