<svg width="20" height="19" viewBox="0 0 20 19" fill="none" xmlns="http://www.w3.org/2000/svg">
<path d="M4.16666 7.83341C4.16666 8.29365 4.53975 8.66675 4.99999 8.66675C5.46023 8.66675 5.83332 8.29365 5.83332 7.83341H4.99999H4.16666ZM14.1667 7.83341C14.1667 8.29365 14.5398 8.66675 15 8.66675C15.4602 8.66675 15.8333 8.29365 15.8333 7.83341H15H14.1667ZM6.66666 12.0001C6.20642 12.0001 5.83332 12.3732 5.83332 12.8334C5.83332 13.2937 6.20642 13.6667 6.66666 13.6667V12.8334V12.0001ZM6.67416 13.6667C7.13439 13.6667 7.50749 13.2937 7.50749 12.8334C7.50749 12.3732 7.13439 12.0001 6.67416 12.0001V12.8334V13.6667ZM9.99249 12.0001C9.53225 12.0001 9.15916 12.3732 9.15916 12.8334C9.15916 13.2937 9.53225 13.6667 9.99249 13.6667V12.8334V12.0001ZM9.99999 13.6667C10.4602 13.6667 10.8333 13.2937 10.8333 12.8334C10.8333 12.3732 10.4602 12.0001 9.99999 12.0001V12.8334V13.6667ZM13.3258 12.0001C12.8656 12.0001 12.4925 12.3732 12.4925 12.8334C12.4925 13.2937 12.8656 13.6667 13.3258 13.6667V12.8334V12.0001ZM13.3333 13.6667C13.7936 13.6667 14.1667 13.2937 14.1667 12.8334C14.1667 12.3732 13.7936 12.0001 13.3333 12.0001V12.8334V13.6667ZM6.66666 7.83341V8.66675H13.3333V7.83341V7.00008H6.66666V7.83341ZM13.3333 17.8334V17.0001H6.66666V17.8334V18.6667H13.3333V17.8334ZM6.66666 17.8334V17.0001C5.46459 17.0001 4.64687 16.9983 4.03452 16.916C3.44614 16.8369 3.17362 16.6974 2.98815 16.5119L2.39889 17.1012L1.80963 17.6904C2.35639 18.2372 3.03925 18.4638 3.81244 18.5678C4.56166 18.6685 5.5117 18.6667 6.66666 18.6667V17.8334ZM1.66666 12.8334H0.833323C0.833323 13.9884 0.831553 14.9384 0.932283 15.6876C1.03624 16.4608 1.26288 17.1437 1.80963 17.6904L2.39889 17.1012L2.98815 16.5119C2.80267 16.3265 2.66319 16.0539 2.58409 15.4656C2.50176 14.8532 2.49999 14.0355 2.49999 12.8334H1.66666ZM18.3333 12.8334H17.5C17.5 14.0355 17.4982 14.8532 17.4159 15.4656C17.3368 16.0539 17.1973 16.3265 17.0118 16.5119L17.6011 17.1012L18.1903 17.6904C18.7371 17.1437 18.9637 16.4608 19.0677 15.6876C19.1684 14.9384 19.1667 13.9884 19.1667 12.8334H18.3333ZM13.3333 17.8334V18.6667C14.4883 18.6667 15.4383 18.6685 16.1875 18.5678C16.9607 18.4638 17.6436 18.2372 18.1903 17.6904L17.6011 17.1012L17.0118 16.5119C16.8264 16.6974 16.5538 16.8369 15.9655 16.916C15.3531 16.9983 14.5354 17.0001 13.3333 17.0001V17.8334ZM13.3333 7.83341V8.66675C14.5354 8.66675 15.3531 8.66852 15.9655 8.75085C16.5538 8.82995 16.8264 8.96943 17.0118 9.1549L17.6011 8.56565L18.1903 7.97639C17.6436 7.42963 16.9607 7.20299 16.1875 7.09904C15.4383 6.99831 14.4883 7.00008 13.3333 7.00008V7.83341ZM18.3333 12.8334H19.1667C19.1667 11.6785 19.1684 10.7284 19.0677 9.9792C18.9637 9.206 18.7371 8.52315 18.1903 7.97639L17.6011 8.56565L17.0118 9.1549C17.1973 9.34038 17.3368 9.6129 17.4159 10.2013C17.4982 10.8136 17.5 11.6313 17.5 12.8334H18.3333ZM6.66666 7.83341V7.00008C5.5117 7.00008 4.56166 6.99831 3.81244 7.09904C3.03925 7.20299 2.35639 7.42963 1.80963 7.97639L2.39889 8.56565L2.98815 9.1549C3.17362 8.96943 3.44614 8.82995 4.03452 8.75085C4.64687 8.66852 5.46459 8.66675 6.66666 8.66675V7.83341ZM1.66666 12.8334H2.49999C2.49999 11.6313 2.50176 10.8136 2.58409 10.2013C2.66319 9.6129 2.80267 9.34038 2.98815 9.1549L2.39889 8.56565L1.80963 7.97639C1.26288 8.52315 1.03624 9.206 0.932283 9.9792C0.831553 10.7284 0.833323 11.6785 0.833323 12.8334H1.66666ZM4.99999 7.83341H5.83332V6.16675H4.99999H4.16666V7.83341H4.99999ZM15 6.16675H14.1667V7.83341H15H15.8333V6.16675H15ZM9.99999 1.16675V2.00008C12.3012 2.00008 14.1667 3.86556 14.1667 6.16675H15H15.8333C15.8333 2.94509 13.2217 0.333415 9.99999 0.333415V1.16675ZM4.99999 6.16675H5.83332C5.83332 3.86556 7.6988 2.00008 9.99999 2.00008V1.16675V0.333415C6.77833 0.333415 4.16666 2.94509 4.16666 6.16675H4.99999ZM6.66666 12.8334V13.6667H6.67416V12.8334V12.0001H6.66666V12.8334ZM9.99249 12.8334V13.6667H9.99999V12.8334V12.0001H9.99249V12.8334ZM13.3258 12.8334V13.6667H13.3333V12.8334V12.0001H13.3258V12.8334Z" fill="#2E2E34"/>
</svg>
