<svg width="16" height="16" viewBox="0 0 16 16" fill="none" xmlns="http://www.w3.org/2000/svg">
<path d="M5.99985 14.667L5.99985 15.292L5.99985 14.667ZM5.33318 14.667L5.33318 14.042L5.33318 14.667ZM1.33318 10.667L0.708179 10.667L1.33318 10.667ZM1.33318 5.33366L1.95818 5.33366L1.33318 5.33366ZM5.33318 1.33366L5.33318 0.708659L5.33318 1.33366ZM5.99985 1.33366L5.99985 1.95866L5.99985 1.33366ZM9.41406 1.91945L8.97212 2.36139L8.97212 2.36139L9.41406 1.91945ZM9.41406 14.0812L9.856 14.5231L9.856 14.5231L9.41406 14.0812ZM10.6237 11.3371C10.6256 10.992 10.3473 10.7106 10.0022 10.7087C9.65699 10.7067 9.37562 10.985 9.3737 11.3302L9.99869 11.3337L10.6237 11.3371ZM9.3737 4.67047C9.37562 5.01564 9.65699 5.2939 10.0022 5.29198C10.3473 5.29006 10.6256 5.00869 10.6237 4.66351L9.99869 4.66699L9.3737 4.67047ZM5.99999 7.37533C5.65481 7.37533 5.37499 7.65515 5.37499 8.00033C5.37499 8.3455 5.65481 8.62533 5.99999 8.62533L5.99999 8.00033L5.99999 7.37533ZM14.6667 8.00033L15.0734 8.47486C15.2119 8.35612 15.2917 8.18278 15.2917 8.00033C15.2917 7.81787 15.2119 7.64453 15.0734 7.52579L14.6667 8.00033ZM11.9266 9.52579C11.6645 9.75043 11.6341 10.145 11.8588 10.4071C12.0834 10.6691 12.478 10.6995 12.7401 10.4749L12.3333 10.0003L11.9266 9.52579ZM12.7401 5.52579C12.478 5.30115 12.0834 5.3315 11.8588 5.59358C11.6341 5.85566 11.6645 6.25022 11.9266 6.47486L12.3333 6.00033L12.7401 5.52579ZM5.99985 14.667L5.99985 14.042L5.33318 14.042L5.33318 14.667L5.33318 15.292L5.99985 15.292L5.99985 14.667ZM1.33318 10.667L1.95818 10.667L1.95818 5.33366L1.33318 5.33366L0.70818 5.33366L0.708179 10.667L1.33318 10.667ZM5.33318 1.33366L5.33318 1.95866L5.99985 1.95866L5.99985 1.33366L5.99985 0.708659L5.33318 0.708659L5.33318 1.33366ZM5.99985 1.33366L5.99985 1.95866C6.96033 1.95866 7.61781 1.95999 8.11111 2.02631C8.58643 2.09021 8.81471 2.20397 8.97212 2.36139L9.41406 1.91945L9.856 1.4775C9.42763 1.04913 8.8916 0.869997 8.27767 0.787456C7.68172 0.707332 6.92499 0.708659 5.99985 0.708659L5.99985 1.33366ZM1.33318 5.33366L1.95818 5.33366C1.95818 4.37318 1.95951 3.7157 2.02583 3.22239C2.08974 2.74707 2.2035 2.5188 2.36091 2.36139L1.91897 1.91944L1.47702 1.4775C1.04865 1.90588 0.869518 2.4419 0.786977 3.05583C0.706853 3.65179 0.70818 4.40852 0.70818 5.33366L1.33318 5.33366ZM5.33318 1.33366L5.33318 0.708659C4.40804 0.708659 3.65131 0.707331 3.05536 0.787455C2.44142 0.869996 1.9054 1.04913 1.47702 1.4775L1.91897 1.91944L2.36091 2.36139C2.51832 2.20397 2.74659 2.09021 3.22192 2.02631C3.71522 1.95999 4.3727 1.95866 5.33318 1.95866L5.33318 1.33366ZM5.33318 14.667L5.33318 14.042C4.3727 14.042 3.71522 14.0407 3.22192 13.9743C2.74659 13.9104 2.51832 13.7967 2.36091 13.6393L1.91897 14.0812L1.47702 14.5231C1.9054 14.9515 2.44142 15.1307 3.05536 15.2132C3.65131 15.2933 4.40804 15.292 5.33318 15.292L5.33318 14.667ZM1.33318 10.667L0.708179 10.667C0.708179 11.5921 0.706852 12.3489 0.786976 12.9448C0.869517 13.5587 1.04865 14.0948 1.47702 14.5231L1.91897 14.0812L2.36091 13.6393C2.20349 13.4819 2.08973 13.2536 2.02583 12.7783C1.95951 12.285 1.95818 11.6275 1.95818 10.667L1.33318 10.667ZM5.99985 14.667L5.99985 15.292C6.92499 15.292 7.68172 15.2933 8.27767 15.2132C8.8916 15.1307 9.42763 14.9515 9.856 14.5231L9.41406 14.0812L8.97212 13.6393C8.81471 13.7967 8.58643 13.9104 8.11111 13.9743C7.61781 14.0407 6.96032 14.042 5.99985 14.042L5.99985 14.667ZM9.99869 11.3337L9.3737 11.3302C9.36963 12.0602 9.35049 12.5664 9.28073 12.9462C9.21424 13.3081 9.11096 13.5004 8.97212 13.6393L9.41406 14.0812L9.856 14.5231C10.2294 14.1497 10.4144 13.6933 10.5102 13.172C10.6026 12.6686 10.6197 12.0572 10.6237 11.3371L9.99869 11.3337ZM9.99869 4.66699L10.6237 4.66351C10.6197 3.94349 10.6026 3.33204 10.5102 2.82864C10.4144 2.30738 10.2294 1.85091 9.856 1.4775L9.41406 1.91945L8.97212 2.36139C9.11097 2.50023 9.21424 2.69253 9.28073 3.05447C9.35049 3.43428 9.36963 3.94048 9.3737 4.67047L9.99869 4.66699ZM5.99999 8.00033L5.99999 8.62533L14.6667 8.62533L14.6667 8.00033L14.6667 7.37533L5.99999 7.37533L5.99999 8.00033ZM14.6667 8.00033L14.2599 7.52579L11.9266 9.52579L12.3333 10.0003L12.7401 10.4749L15.0734 8.47486L14.6667 8.00033ZM14.6667 8.00033L15.0734 7.52579L12.7401 5.52579L12.3333 6.00033L11.9266 6.47486L14.2599 8.47486L14.6667 8.00033Z" fill="#EB2121"/>
</svg>
