<svg width="24" height="24" viewBox="0 0 24 24" fill="none" xmlns="http://www.w3.org/2000/svg">
<path d="M17.98 10.79V14.79C17.98 15.05 17.97 15.3 17.94 15.54C17.71 18.24 16.12 19.58 13.19 19.58H12.79C12.54 19.58 12.3 19.7 12.15 19.9L10.95 21.5C10.42 22.21 9.56003 22.21 9.03003 21.5L7.83002 19.9C7.70002 19.73 7.41003 19.58 7.19003 19.58H6.79004C3.60004 19.58 2.00003 18.79 2.00003 14.79V10.79C2.00003 7.86001 3.35004 6.27001 6.04004 6.04001C6.28004 6.01001 6.53004 6 6.79004 6H13.19C16.38 6 17.98 7.60001 17.98 10.79Z" stroke="#B58C43" stroke-width="1.25" stroke-miterlimit="10" stroke-linecap="round" stroke-linejoin="round"/>
<path opacity="0.4" d="M21.98 6.79001V10.79C21.98 13.73 20.63 15.31 17.94 15.54C17.97 15.3 17.98 15.05 17.98 14.79V10.79C17.98 7.60001 16.38 6 13.19 6H6.79004C6.53004 6 6.28004 6.01001 6.04004 6.04001C6.27004 3.35001 7.86004 2 10.79 2H17.19C20.38 2 21.98 3.60001 21.98 6.79001Z" stroke="#B58C43" stroke-width="1.25" stroke-miterlimit="10" stroke-linecap="round" stroke-linejoin="round"/>
<path opacity="0.4" d="M13.4955 13.25H13.5045" stroke="#B58C43" stroke-width="1.66667" stroke-linecap="round" stroke-linejoin="round"/>
<path opacity="0.4" d="M9.99553 13.25H10.0045" stroke="#B58C43" stroke-width="1.66667" stroke-linecap="round" stroke-linejoin="round"/>
<path opacity="0.4" d="M6.4955 13.25H6.5045" stroke="#B58C43" stroke-width="1.66667" stroke-linecap="round" stroke-linejoin="round"/>
</svg>
