<svg width="24" height="24" viewBox="0 0 24 24" fill="none" xmlns="http://www.w3.org/2000/svg">
<path d="M19.4422 12.0854L18.8112 12.4907L19.4422 12.0854ZM20.5496 13.8095L21.1807 13.4042L20.5496 13.8095ZM3.45036 13.8095L2.81932 13.4042H2.81932L3.45036 13.8095ZM4.5578 12.0854L5.18884 12.4907L4.5578 12.0854ZM19.0296 18.0229L18.8254 17.3013L18.8254 17.3013L19.0296 18.0229ZM4.97036 18.0229L5.17464 17.3013L5.17463 17.3013L4.97036 18.0229ZM8.2023 18.7368C8.05694 18.3489 7.62467 18.1523 7.2368 18.2977C6.84893 18.4431 6.65234 18.8753 6.7977 19.2632L7.5 19L8.2023 18.7368ZM17.2023 19.2632C17.3477 18.8753 17.1511 18.4431 16.7632 18.2977C16.3753 18.1523 15.9431 18.3489 15.7977 18.7368L16.5 19L17.2023 19.2632ZM12.75 6C12.75 5.58579 12.4142 5.25 12 5.25C11.5858 5.25 11.25 5.58579 11.25 6H12H12.75ZM11.25 10C11.25 10.4142 11.5858 10.75 12 10.75C12.4142 10.75 12.75 10.4142 12.75 10H12H11.25ZM18.7491 9.00496H17.9991V9.70957H18.7491H19.4991V9.00496H18.7491ZM19.4422 12.0854L18.8112 12.4907L19.9186 14.2149L20.5496 13.8095L21.1807 13.4042L20.0732 11.6801L19.4422 12.0854ZM3.45036 13.8095L4.0814 14.2149L5.18884 12.4907L4.5578 12.0854L3.92676 11.6801L2.81932 13.4042L3.45036 13.8095ZM5.25087 9.70957H6.00087V9.00496H5.25087H4.50087V9.70957H5.25087ZM19.0296 18.0229L18.8254 17.3013C14.3565 18.5662 9.64346 18.5662 5.17464 17.3013L4.97036 18.0229L4.76609 18.7446C9.50203 20.0851 14.498 20.0851 19.2339 18.7446L19.0296 18.0229ZM4.5578 12.0854L5.18884 12.4907C5.71934 11.6648 6.00087 10.6972 6.00087 9.70957H5.25087H4.50087C4.50087 10.4132 4.30009 11.0989 3.92676 11.6801L4.5578 12.0854ZM18.7491 9.70957H17.9991C17.9991 10.6972 18.2807 11.6648 18.8112 12.4907L19.4422 12.0854L20.0732 11.6801C19.6999 11.0989 19.4991 10.4132 19.4991 9.70957H18.7491ZM3.45036 13.8095L2.81932 13.4042C1.55005 15.3803 2.49693 18.1022 4.76609 18.7446L4.97036 18.0229L5.17463 17.3013C3.92516 16.9476 3.3276 15.3884 4.0814 14.2149L3.45036 13.8095ZM20.5496 13.8095L19.9186 14.2149C20.6724 15.3884 20.0748 16.9476 18.8254 17.3013L19.0296 18.0229L19.2339 18.7446C21.5031 18.1022 22.4499 15.3803 21.1807 13.4042L20.5496 13.8095ZM12 2V2.75C15.2872 2.75 17.9991 5.5239 17.9991 9.00496H18.7491H19.4991C19.4991 4.74856 16.1677 1.25 12 1.25V2ZM12 2V1.25C7.83229 1.25 4.50087 4.74856 4.50087 9.00496H5.25087H6.00087C6.00087 5.5239 8.71283 2.75 12 2.75V2ZM7.5 19L6.7977 19.2632C7.5667 21.3151 9.62201 22.75 12 22.75V22V21.25C10.2229 21.25 8.74336 20.1805 8.2023 18.7368L7.5 19ZM12 22V22.75C14.378 22.75 16.4333 21.3151 17.2023 19.2632L16.5 19L15.7977 18.7368C15.2566 20.1805 13.7771 21.25 12 21.25V22ZM12 6H11.25V10H12H12.75V6H12Z" fill="#2E2E34"/>
</svg>
