<svg width="19" height="19" viewBox="0 0 19 19" fill="none" xmlns="http://www.w3.org/2000/svg">
<path d="M16.8896 9.66643L16.6741 8.94806H16.6741L16.8896 9.66643ZM11.668 10.4499C11.2713 10.5689 11.0461 10.987 11.1651 11.3838C11.2842 11.7805 11.7023 12.0056 12.099 11.8866L11.8835 11.1683L11.668 10.4499ZM7.23414 11.8866C7.63089 12.0056 8.049 11.7805 8.16802 11.3838C8.28705 10.987 8.06191 10.5689 7.66516 10.4499L7.44965 11.1683L7.23414 11.8866ZM2.44359 9.66643L2.6591 8.94806H2.6591L2.44359 9.66643ZM1.4589 9.15334L0.821982 9.54936L0.821982 9.54936L1.4589 9.15334ZM1.54176 9.26471L2.1041 8.76845L2.1041 8.76845L1.54176 9.26471ZM17.8743 9.15334L17.2374 8.75731L17.2373 8.75732L17.8743 9.15334ZM17.7914 9.26471L18.3538 9.76097L17.7914 9.26471ZM17.0778 4.06082L16.6044 4.64257L16.6044 4.64257L17.0778 4.06082ZM17.4391 4.42216L16.8573 4.89551V4.89551L17.4391 4.42216ZM2.25541 4.06082L1.78206 3.47906H1.78206L2.25541 4.06082ZM1.89407 4.42216L1.31232 3.94881L1.31232 3.94881L1.89407 4.42216ZM12.5834 2.25L11.8719 2.48717L11.8719 2.48717L12.5834 2.25ZM12.6048 2.31415L13.3163 2.07697V2.07697L12.6048 2.31415ZM6.72872 2.31415L6.01721 2.07697L6.01721 2.07698L6.72872 2.31415ZM6.75011 2.25L7.46162 2.48717L7.46162 2.48717L6.75011 2.25ZM6.69945 2.40027L7.40473 2.65539L7.40473 2.65538L6.69945 2.40027ZM5.06425 2.75024C4.65017 2.76073 4.323 3.10492 4.33349 3.519C4.34399 3.93308 4.68817 4.26025 5.10225 4.24976L5.08325 3.5L5.06425 2.75024ZM12.6341 2.40027L13.3394 2.14515L13.3394 2.14512L12.6341 2.40027ZM14.2309 4.24976C14.645 4.26025 14.9892 3.93308 14.9997 3.519C15.0102 3.10492 14.683 2.76073 14.2689 2.75024L14.2499 3.5L14.2309 4.24976ZM11.0663 1.00305L11.0209 1.75168L11.0663 1.00305ZM12.5119 2.045L11.816 2.32475L11.816 2.32475L12.5119 2.045ZM8.26729 1.00305L8.22195 0.25442H8.22195L8.26729 1.00305ZM6.82165 2.045L7.51753 2.32475L7.51753 2.32475L6.82165 2.045ZM11.488 12.3548L11.2095 11.6584H11.2095L11.488 12.3548ZM10.9046 12.5881L11.1831 13.2845L10.9046 12.5881ZM8.42862 12.5881L8.15007 13.2845L8.42862 12.5881ZM7.84517 12.3548L8.12372 11.6584H8.12372L7.84517 12.3548ZM9.66659 17.6667V16.9167C7.87992 16.9167 6.60708 16.9154 5.64081 16.7999C4.68795 16.6861 4.14795 16.4718 3.76321 16.1298L3.26493 16.6904L2.76666 17.2509C3.48026 17.8852 4.37333 18.1591 5.46282 18.2893C6.53891 18.4179 7.91772 18.4167 9.66659 18.4167V17.6667ZM2.16659 9.33333H1.41659C1.41659 10.8932 1.41576 12.5307 1.55788 13.9016C1.62907 14.5884 1.73881 15.2386 1.91465 15.7964C2.08713 16.3435 2.34624 16.8772 2.76666 17.2509L3.26493 16.6904L3.76321 16.1298C3.63446 16.0154 3.48169 15.7782 3.34525 15.3454C3.21218 14.9233 3.11598 14.3845 3.04988 13.7469C2.91741 12.469 2.91659 10.9162 2.91659 9.33333H2.16659ZM17.1666 9.33333H16.4166C16.4166 10.9162 16.4158 12.469 16.2833 13.7469C16.2172 14.3845 16.121 14.9233 15.9879 15.3454C15.8515 15.7782 15.6987 16.0154 15.57 16.1298L16.0682 16.6904L16.5665 17.2509C16.9869 16.8772 17.246 16.3435 17.4185 15.7964C17.5944 15.2386 17.7041 14.5884 17.7753 13.9016C17.9174 12.5307 17.9166 10.8932 17.9166 9.33333H17.1666ZM9.66659 17.6667V18.4167C11.4155 18.4167 12.7943 18.4179 13.8704 18.2893C14.9598 18.1591 15.8529 17.8852 16.5665 17.2509L16.0682 16.6904L15.57 16.1298C15.1852 16.4718 14.6452 16.6861 13.6924 16.7999C12.7261 16.9154 11.4533 16.9167 9.66659 16.9167V17.6667ZM6.00736 3.5V4.25H13.3258V3.5V2.75H6.00736V3.5ZM16.8896 9.66643L16.6741 8.94806L11.668 10.4499L11.8835 11.1683L12.099 11.8866L17.1051 10.3848L16.8896 9.66643ZM7.44965 11.1683L7.66516 10.4499L2.6591 8.94806L2.44359 9.66643L2.22808 10.3848L7.23414 11.8866L7.44965 11.1683ZM1.33325 8.17411H0.583252C0.583252 8.41792 0.582358 8.65659 0.602789 8.85795C0.62481 9.07496 0.676419 9.31526 0.821982 9.54936L1.4589 9.15334L2.09582 8.75731C2.11573 8.78934 2.10452 8.79908 2.09513 8.70652C2.08415 8.59831 2.08325 8.4484 2.08325 8.17411H1.33325ZM2.44359 9.66643L2.6591 8.94806C2.39638 8.86925 2.25305 8.82532 2.15255 8.7837C2.0666 8.74811 2.07915 8.74017 2.1041 8.76845L1.54176 9.26471L0.979421 9.76097C1.16183 9.96766 1.37716 10.0861 1.57869 10.1696C1.76569 10.247 1.99455 10.3147 2.22808 10.3848L2.44359 9.66643ZM1.4589 9.15334L0.821982 9.54936C0.868486 9.62415 0.921149 9.69493 0.979422 9.76097L1.54176 9.26471L2.1041 8.76845C2.10104 8.76497 2.09826 8.76125 2.09582 8.75731L1.4589 9.15334ZM17.9999 8.17411H17.2499C17.2499 8.4484 17.249 8.59831 17.238 8.70652C17.2287 8.79908 17.2174 8.78934 17.2374 8.75731L17.8743 9.15334L18.5112 9.54937C18.6568 9.31526 18.7084 9.07496 18.7304 8.85795C18.7508 8.65659 18.7499 8.41792 18.7499 8.17411H17.9999ZM16.8896 9.66643L17.1051 10.3848C17.3386 10.3147 17.5675 10.247 17.7545 10.1696C17.956 10.0861 18.1713 9.96766 18.3538 9.76097L17.7914 9.26471L17.2291 8.76845C17.254 8.74017 17.2666 8.74811 17.1806 8.7837C17.0801 8.82532 16.9368 8.86925 16.6741 8.94806L16.8896 9.66643ZM17.8743 9.15334L17.2373 8.75732C17.2349 8.76125 17.2321 8.76497 17.2291 8.76845L17.7914 9.26471L18.3538 9.76097C18.412 9.69493 18.4647 9.62415 18.5112 9.54935L17.8743 9.15334ZM13.3258 3.5V4.25C14.365 4.25 15.0788 4.25121 15.6215 4.31498C16.1478 4.37682 16.4151 4.48857 16.6044 4.64257L17.0778 4.06082L17.5511 3.47906C17.0511 3.07224 16.4634 2.90359 15.7965 2.82523C15.146 2.74879 14.3285 2.75 13.3258 2.75V3.5ZM17.9999 8.17411H18.7499C18.7499 7.17146 18.7511 6.35395 18.6747 5.70341C18.5963 5.0365 18.4277 4.4488 18.0209 3.94881L17.4391 4.42216L16.8573 4.89551C17.0113 5.08478 17.1231 5.35215 17.1849 5.87846C17.2487 6.42113 17.2499 7.13496 17.2499 8.17411H17.9999ZM17.0778 4.06082L16.6044 4.64257C16.6971 4.71803 16.7819 4.80278 16.8573 4.89551L17.4391 4.42216L18.0209 3.94881C17.8807 3.77659 17.7233 3.61919 17.5511 3.47906L17.0778 4.06082ZM6.00736 3.5V2.75C5.00471 2.75 4.1872 2.74879 3.53666 2.82523C2.86976 2.90359 2.28205 3.07224 1.78206 3.47906L2.25541 4.06082L2.72877 4.64257C2.91803 4.48857 3.1854 4.37682 3.71171 4.31498C4.25438 4.25121 4.96821 4.25 6.00736 4.25V3.5ZM1.33325 8.17411H2.08325C2.08325 7.13496 2.08446 6.42113 2.14823 5.87846C2.21007 5.35215 2.32183 5.08478 2.47582 4.89551L1.89407 4.42216L1.31232 3.94881C0.905496 4.4488 0.736841 5.0365 0.658479 5.70341C0.582039 6.35395 0.583252 7.17146 0.583252 8.17411H1.33325ZM2.25541 4.06082L1.78206 3.47906C1.60985 3.61919 1.45244 3.77659 1.31232 3.94881L1.89407 4.42216L2.47582 4.89551C2.55128 4.80278 2.63603 4.71802 2.72877 4.64257L2.25541 4.06082ZM8.48439 1V1.75H10.8492V1V0.25H8.48439V1ZM12.5834 2.25L11.8719 2.48717L11.8933 2.55132L12.6048 2.31415L13.3163 2.07697L13.295 2.01283L12.5834 2.25ZM6.72872 2.31415L7.44024 2.55132L7.46162 2.48717L6.75011 2.25L6.0386 2.01283L6.01721 2.07697L6.72872 2.31415ZM6.72872 2.31415L6.01721 2.07698C6.00117 2.12511 5.99735 2.13639 5.99418 2.14515L6.69945 2.40027L7.40473 2.65538C7.41593 2.62443 7.42683 2.59154 7.44024 2.55132L6.72872 2.31415ZM6.69945 2.40027L5.99418 2.14515C5.881 2.45802 5.48904 2.73948 5.06425 2.75024L5.08325 3.5L5.10225 4.24976C6.04987 4.22574 7.05092 3.6335 7.40473 2.65539L6.69945 2.40027ZM12.6048 2.31415L11.8933 2.55132C11.9066 2.59125 11.9176 2.62449 11.9288 2.65541L12.6341 2.40027L13.3394 2.14512C13.3362 2.13645 13.3323 2.12488 13.3163 2.07697L12.6048 2.31415ZM12.6341 2.40027L11.9288 2.65539C12.2826 3.63334 13.2831 4.22574 14.2309 4.24976L14.2499 3.5L14.2689 2.75024C13.8443 2.73948 13.4526 2.45818 13.3394 2.14515L12.6341 2.40027ZM10.8492 1V1.75C10.9703 1.75 10.9987 1.75033 11.0209 1.75168L11.0663 1.00305L11.1116 0.25442C11.0331 0.249668 10.9504 0.25 10.8492 0.25V1ZM12.5834 2.25L13.295 2.01283C13.2629 1.9168 13.2371 1.83819 13.2078 1.76525L12.5119 2.045L11.816 2.32475C11.8243 2.34538 11.8336 2.37224 11.8719 2.48717L12.5834 2.25ZM11.0663 1.00305L11.0209 1.75168C11.3744 1.77308 11.6839 1.99618 11.816 2.32475L12.5119 2.045L13.2078 1.76525C12.8595 0.899024 12.0435 0.310858 11.1116 0.25442L11.0663 1.00305ZM8.48439 1V0.25C8.38317 0.25 8.30041 0.249668 8.22195 0.25442L8.26729 1.00305L8.31262 1.75168C8.33482 1.75033 8.36325 1.75 8.48439 1.75V1ZM6.75011 2.25L7.46162 2.48717C7.49992 2.37226 7.50923 2.34538 7.51753 2.32475L6.82165 2.045L6.12578 1.76525C6.09646 1.83818 6.0706 1.91681 6.03859 2.01283L6.75011 2.25ZM8.26729 1.00305L8.22195 0.25442C7.29005 0.310858 6.47401 0.899024 6.12578 1.76525L6.82165 2.045L7.51753 2.32475C7.64962 1.99618 7.95915 1.77308 8.31262 1.75168L8.26729 1.00305ZM7.99992 9.75V10.5H11.3333V9.75V9H7.99992V9.75ZM11.7499 10.1667H10.9999V11.9679H11.7499H12.4999V10.1667H11.7499ZM11.488 12.3548L11.2095 11.6584L10.626 11.8918L10.9046 12.5881L11.1831 13.2845L11.7665 13.0511L11.488 12.3548ZM8.42862 12.5881L8.70716 11.8918L8.12372 11.6584L7.84517 12.3548L7.56663 13.0511L8.15007 13.2845L8.42862 12.5881ZM7.58325 11.9679H8.33325V10.1667H7.58325H6.83325V11.9679H7.58325ZM7.84517 12.3548L8.12372 11.6584C8.25027 11.709 8.33325 11.8316 8.33325 11.9679H7.58325H6.83325C6.83325 12.445 7.1237 12.874 7.56663 13.0511L7.84517 12.3548ZM10.9046 12.5881L10.626 11.8918C10.0101 12.1381 9.32305 12.1381 8.70716 11.8918L8.42862 12.5881L8.15007 13.2845C9.12358 13.6739 10.2096 13.6739 11.1831 13.2845L10.9046 12.5881ZM11.7499 11.9679H10.9999C10.9999 11.8316 11.0829 11.709 11.2095 11.6584L11.488 12.3548L11.7665 13.0511C12.2095 12.874 12.4999 12.445 12.4999 11.9679H11.7499ZM11.3333 9.75V10.5C11.1492 10.5 10.9999 10.3508 10.9999 10.1667H11.7499H12.4999C12.4999 9.52234 11.9776 9 11.3333 9V9.75ZM7.99992 9.75V9C7.35559 9 6.83325 9.52234 6.83325 10.1667H7.58325H8.33325C8.33325 10.3508 8.18401 10.5 7.99992 10.5V9.75Z" fill="#2E2E34"/>
</svg>
