<svg width="18" height="18" viewBox="0 0 18 18" fill="none" xmlns="http://www.w3.org/2000/svg">
<path d="M10.7512 16.9397L11.0014 17.5125L10.7512 16.9397ZM7.2488 16.9397L6.99861 17.5125L7.2488 16.9397ZM12.1126 1.50099L11.9102 2.0923L11.9102 2.0923L12.1126 1.50099ZM6.36477 1.33759L6.16236 0.746273L6.16236 0.746273L6.36477 1.33759ZM11.6352 1.33759L11.8376 0.746273L11.8376 0.746273L11.6352 1.33759ZM5.88743 1.50099L6.08984 2.0923L6.08984 2.0923L5.88743 1.50099ZM10.2498 9.91515L9.93729 9.37388L9.93729 9.37388L10.2498 9.91515ZM6.8353 9.00024L7.37656 8.68774L6.8353 9.00024ZM7.75021 5.58574L7.43771 5.04448L7.43771 5.04448L7.75021 5.58574ZM9.2989 5.26865L9.22369 5.88911L9.22369 5.88911L9.2989 5.26865ZM11.2987 8.73249L10.7238 8.48739L10.7238 8.48739L11.2987 8.73249ZM9.625 10.2504C9.625 9.90527 9.34518 9.62545 9 9.62545C8.65482 9.62545 8.375 9.90527 8.375 10.2504H9H9.625ZM8.375 12.7504C8.375 13.0956 8.65482 13.3754 9 13.3754C9.34518 13.3754 9.625 13.0956 9.625 12.7504H9H8.375ZM16.5 7.68087H15.875C15.875 7.68166 15.875 7.68244 15.875 7.68323C15.875 7.68402 15.875 7.6848 15.875 7.68559C15.875 7.68638 15.875 7.68716 15.875 7.68795C15.875 7.68874 15.875 7.68952 15.875 7.69031C15.875 7.6911 15.875 7.69189 15.875 7.69267C15.875 7.69346 15.875 7.69425 15.875 7.69504C15.875 7.69582 15.875 7.69661 15.875 7.6974C15.875 7.69819 15.875 7.69898 15.875 7.69976C15.875 7.70055 15.875 7.70134 15.875 7.70213C15.875 7.70292 15.875 7.70371 15.875 7.70449C15.875 7.70528 15.875 7.70607 15.875 7.70686C15.875 7.70765 15.875 7.70844 15.875 7.70923C15.875 7.71002 15.875 7.71081 15.875 7.7116C15.875 7.71239 15.875 7.71318 15.875 7.71396C15.875 7.71475 15.875 7.71554 15.875 7.71633C15.875 7.71712 15.875 7.71791 15.875 7.71871C15.875 7.7195 15.875 7.72029 15.875 7.72108C15.875 7.72187 15.875 7.72266 15.875 7.72345C15.875 7.72424 15.875 7.72503 15.875 7.72582C15.875 7.72661 15.875 7.7274 15.875 7.72819C15.875 7.72899 15.875 7.72978 15.875 7.73057C15.875 7.73136 15.875 7.73215 15.875 7.73294C15.875 7.73374 15.875 7.73453 15.875 7.73532C15.875 7.73611 15.875 7.7369 15.875 7.7377C15.875 7.73849 15.875 7.73928 15.875 7.74007C15.875 7.74087 15.875 7.74166 15.875 7.74245C15.875 7.74325 15.875 7.74404 15.875 7.74483C15.875 7.74562 15.875 7.74642 15.875 7.74721C15.875 7.748 15.875 7.7488 15.875 7.74959C15.875 7.75039 15.875 7.75118 15.875 7.75197C15.875 7.75277 15.875 7.75356 15.875 7.75436C15.875 7.75515 15.875 7.75594 15.875 7.75674C15.875 7.75753 15.875 7.75833 15.875 7.75912C15.875 7.75992 15.875 7.76071 15.875 7.76151C15.875 7.7623 15.875 7.7631 15.875 7.76389C15.875 7.76469 15.875 7.76548 15.875 7.76628C15.875 7.76707 15.875 7.76787 15.875 7.76866C15.875 7.76946 15.875 7.77026 15.875 7.77105C15.875 7.77185 15.875 7.77264 15.875 7.77344C15.875 7.77424 15.875 7.77503 15.875 7.77583C15.875 7.77663 15.875 7.77742 15.875 7.77822C15.875 7.77902 15.875 7.77981 15.875 7.78061C15.875 7.78141 15.875 7.7822 15.875 7.783C15.875 7.7838 15.875 7.7846 15.875 7.78539C15.875 7.78619 15.875 7.78699 15.875 7.78779C15.875 7.78859 15.875 7.78938 15.875 7.79018C15.875 7.79098 15.875 7.79178 15.875 7.79258C15.875 7.79337 15.875 7.79417 15.875 7.79497C15.875 7.79577 15.875 7.79657 15.875 7.79737C15.875 7.79817 15.875 7.79897 15.875 7.79976C15.875 7.80056 15.875 7.80136 15.875 7.80216C15.875 7.80296 15.875 7.80376 15.875 7.80456C15.875 7.80536 15.875 7.80616 15.875 7.80696C15.875 7.80776 15.875 7.80856 15.875 7.80936C15.875 7.81016 15.875 7.81096 15.875 7.81176C15.875 7.81256 15.875 7.81336 15.875 7.81416C15.875 7.81496 15.875 7.81576 15.875 7.81657C15.875 7.81737 15.875 7.81817 15.875 7.81897C15.875 7.81977 15.875 7.82057 15.875 7.82137C15.875 7.82217 15.875 7.82298 15.875 7.82378C15.875 7.82458 15.875 7.82538 15.875 7.82618C15.875 7.82699 15.875 7.82779 15.875 7.82859C15.875 7.82939 15.875 7.83019 15.875 7.831C15.875 7.8318 15.875 7.8326 15.875 7.83341C15.875 7.83421 15.875 7.83501 15.875 7.83581C15.875 7.83662 15.875 7.83742 15.875 7.83822C15.875 7.83903 15.875 7.83983 15.875 7.84063C15.875 7.84144 15.875 7.84224 15.875 7.84304C15.875 7.84385 15.875 7.84465 15.875 7.84546C15.875 7.84626 15.875 7.84707 15.875 7.84787C15.875 7.84867 15.875 7.84948 15.875 7.85028C15.875 7.85109 15.875 7.85189 15.875 7.8527C15.875 7.8535 15.875 7.85431 15.875 7.85511C15.875 7.85592 15.875 7.85672 15.875 7.85753C15.875 7.85833 15.875 7.85914 15.875 7.85994C15.875 7.86075 15.875 7.86156 15.875 7.86236C15.875 7.86317 15.875 7.86397 15.875 7.86478C15.875 7.86559 15.875 7.86639 15.875 7.8672C15.875 7.86801 15.875 7.86881 15.875 7.86962C15.875 7.87043 15.875 7.87123 15.875 7.87204C15.875 7.87285 15.875 7.87365 15.875 7.87446C15.875 7.87527 15.875 7.87608 15.875 7.87688C15.875 7.87769 15.875 7.8785 15.875 7.87931C15.875 7.88011 15.875 7.88092 15.875 7.88173C15.875 7.88254 15.875 7.88335 15.875 7.88415C15.875 7.88496 15.875 7.88577 15.875 7.88658C15.875 7.88739 15.875 7.8882 15.875 7.88901C15.875 7.88982 15.875 7.89062 15.875 7.89143C15.875 7.89224 15.875 7.89305 15.875 7.89386C15.875 7.89467 15.875 7.89548 15.875 7.89629C15.875 7.8971 15.875 7.89791 15.875 7.89872C15.875 7.89953 15.875 7.90034 15.875 7.90115C15.875 7.90196 15.875 7.90277 15.875 7.90358C15.875 7.90439 15.875 7.9052 15.875 7.90601C15.875 7.90682 15.875 7.90763 15.875 7.90844C15.875 7.90925 15.875 7.91007 15.875 7.91088C15.875 7.91169 15.875 7.9125 15.875 7.91331C15.875 7.91412 15.875 7.91493 15.875 7.91575C15.875 7.91656 15.875 7.91737 15.875 7.91818C15.875 7.91899 15.875 7.91981 15.875 7.92062C15.875 7.92143 15.875 7.92224 15.875 7.92305C15.875 7.92387 15.875 7.92468 15.875 7.92549C15.875 7.92631 15.875 7.92712 15.875 7.92793C15.875 7.92874 15.875 7.92956 15.875 7.93037C15.875 7.93118 15.875 7.932 15.875 7.93281C15.875 7.93362 15.875 7.93444 15.875 7.93525C15.875 7.93607 15.875 7.93688 15.875 7.93769C15.875 7.93851 15.875 7.93932 15.875 7.94014C15.875 7.94095 15.875 7.94177 15.875 7.94258C15.875 7.9434 15.875 7.94421 15.875 7.94502C15.875 7.94584 15.875 7.94665 15.875 7.94747C15.875 7.94829 15.875 7.9491 15.875 7.94992C15.875 7.95073 15.875 7.95155 15.875 7.95236C15.875 7.95318 15.875 7.95399 15.875 7.95481C15.875 7.95563 15.875 7.95644 15.875 7.95726C15.875 7.95807 15.875 7.95889 15.875 7.95971C15.875 7.96052 15.875 7.96134 15.875 7.96216C15.875 7.96297 15.875 7.96379 15.875 7.96461C15.875 7.96542 15.875 7.96624 15.875 7.96706C15.875 7.96788 15.875 7.96869 15.875 7.96951C15.875 7.97033 15.875 7.97115 15.875 7.97196C15.875 7.97278 15.875 7.9736 15.875 7.97442C15.875 7.97524 15.875 7.97605 15.875 7.97687C15.875 7.97769 15.875 7.97851 15.875 7.97933C15.875 7.98015 15.875 7.98097 15.875 7.98178C15.875 7.9826 15.875 7.98342 15.875 7.98424C15.875 7.98506 15.875 7.98588 15.875 7.9867C15.875 7.98752 15.875 7.98834 15.875 7.98916C15.875 7.98998 15.875 7.9908 15.875 7.99162C15.875 7.99244 15.875 7.99326 15.875 7.99408C15.875 7.9949 15.875 7.99572 15.875 7.99654C15.875 7.99736 15.875 7.99818 15.875 7.999C15.875 7.99982 15.875 8.00064 15.875 8.00146C15.875 8.00228 15.875 8.0031 15.875 8.00393C15.875 8.00475 15.875 8.00557 15.875 8.00639C15.875 8.00721 15.875 8.00803 15.875 8.00885C15.875 8.00968 15.875 8.0105 15.875 8.01132C15.875 8.01214 15.875 8.01296 15.875 8.01379C15.875 8.01461 15.875 8.01543 15.875 8.01625C15.875 8.01708 15.875 8.0179 15.875 8.01872C15.875 8.01954 15.875 8.02037 15.875 8.02119C15.875 8.02201 15.875 8.02284 15.875 8.02366C15.875 8.02448 15.875 8.02531 15.875 8.02613C15.875 8.02695 15.875 8.02778 15.875 8.0286C15.875 8.02943 15.875 8.03025 15.875 8.03107C15.875 8.0319 15.875 8.03272 15.875 8.03355C15.875 8.03437 15.875 8.0352 15.875 8.03602C15.875 8.03685 15.875 8.03767 15.875 8.0385C15.875 8.03932 15.875 8.04015 15.875 8.04097C15.875 8.0418 15.875 8.04262 15.875 8.04345C15.875 8.04427 15.875 8.0451 15.875 8.04592C15.875 8.04675 15.875 8.04758 15.875 8.0484C15.875 8.04923 15.875 8.05005 15.875 8.05088C15.875 8.05171 15.875 8.05253 15.875 8.05336C15.875 8.05419 15.875 8.05501 15.875 8.05584C15.875 8.05667 15.875 8.05749 15.875 8.05832C15.875 8.05915 15.875 8.05997 15.875 8.0608C15.875 8.06163 15.875 8.06246 15.875 8.06328C15.875 8.06411 15.875 8.06494 15.875 8.06577C15.875 8.06659 15.875 8.06742 15.875 8.06825C15.875 8.06908 15.875 8.06991 15.875 8.07074C15.875 8.07156 15.875 8.07239 15.875 8.07322C15.875 8.07405 15.875 8.07488 15.875 8.07571C15.875 8.07654 15.875 8.07737 15.875 8.0782C15.875 8.07902 15.875 8.07985 15.875 8.08068C15.875 8.08151 15.875 8.08234 15.875 8.08317C15.875 8.084 15.875 8.08483 15.875 8.08566C15.875 8.08649 15.875 8.08732 15.875 8.08815C15.875 8.08898 15.875 8.08981 15.875 8.09064C15.875 8.09147 15.875 8.0923 15.875 8.09314C15.875 8.09397 15.875 8.0948 15.875 8.09563C15.875 8.09646 15.875 8.09729 15.875 8.09812C15.875 8.09895 15.875 8.09978 15.875 8.10062C15.875 8.10145 15.875 8.10228 15.875 8.10311C15.875 8.10394 15.875 8.10478 15.875 8.10561C15.875 8.10644 15.875 8.10727 15.875 8.1081C15.875 8.10894 15.875 8.10977 15.875 8.1106C15.875 8.11143 15.875 8.11227 15.875 8.1131C15.875 8.11393 15.875 8.11477 15.875 8.1156C15.875 8.11643 15.875 8.11727 15.875 8.1181C15.875 8.11893 15.875 8.11977 15.875 8.1206C15.875 8.12143 15.875 8.12227 15.875 8.1231C15.875 8.12394 15.875 8.12477 15.875 8.1256C15.875 8.12644 15.875 8.12727 15.875 8.12811C15.875 8.12894 15.875 8.12978 15.875 8.13061C15.875 8.13145 15.875 8.13228 15.875 8.13312C15.875 8.13395 15.875 8.13479 15.875 8.13562C15.875 8.13646 15.875 8.13729 15.875 8.13813C15.875 8.13896 15.875 8.1398 15.875 8.14064C15.875 8.14147 15.875 8.14231 15.875 8.14314C15.875 8.14398 15.875 8.14482 15.875 8.14565C15.875 8.14649 15.875 8.14733 15.875 8.14816C15.875 8.149 15.875 8.14984 15.875 8.15067C15.875 8.15151 15.875 8.15235 15.875 8.15318C15.875 8.15402 15.875 8.15486 15.875 8.1557C15.875 8.15653 15.875 8.15737 15.875 8.15821C15.875 8.15905 15.875 8.15988 15.875 8.16072C15.875 8.16156 15.875 8.1624 15.875 8.16324C15.875 8.16407 15.875 8.16491 15.875 8.16575C15.875 8.16659 15.875 8.16743 15.875 8.16827C15.875 8.16911 15.875 8.16995 15.875 8.17078C15.875 8.17162 15.875 8.17246 15.875 8.1733C15.875 8.17414 15.875 8.17498 15.875 8.17582C15.875 8.17666 15.875 8.1775 15.875 8.17834C15.875 8.17918 15.875 8.18002 15.875 8.18086C15.875 8.1817 15.875 8.18254 15.875 8.18338C15.875 8.18422 15.875 8.18506 15.875 8.1859C15.875 8.18674 15.875 8.18758 15.875 8.18842C15.875 8.18927 15.875 8.19011 15.875 8.19095C15.875 8.19179 15.875 8.19263 15.875 8.19347C15.875 8.19431 15.875 8.19516 15.875 8.196C15.875 8.19684 15.875 8.19768 15.875 8.19852C15.875 8.19936 15.875 8.20021 15.875 8.20105C15.875 8.20189 15.875 8.20273 15.875 8.20358C15.875 8.20442 15.875 8.20526 15.875 8.2061C15.875 8.20695 15.875 8.20779 15.875 8.20863C15.875 8.20948 15.875 8.21032 15.875 8.21116C15.875 8.21201 15.875 8.21285 15.875 8.21369C15.875 8.21454 15.875 8.21538 15.875 8.21623C15.875 8.21707 15.875 8.21791 15.875 8.21876C15.875 8.2196 15.875 8.22045 15.875 8.22129C15.875 8.22213 15.875 8.22298 15.875 8.22382C15.875 8.22467 15.875 8.22551 15.875 8.22636C15.875 8.2272 15.875 8.22805 15.875 8.22889C15.875 8.22974 15.875 8.23058 15.875 8.23143C15.875 8.23228 15.875 8.23312 15.875 8.23397C15.875 8.23481 15.875 8.23566 15.875 8.2365C15.875 8.23735 15.875 8.2382 15.875 8.23904C15.875 8.23989 15.875 8.24074 15.875 8.24158C15.875 8.24243 15.875 8.24328 15.875 8.24412C15.875 8.24497 15.875 8.24582 15.875 8.24666C15.875 8.24751 15.875 8.24836 15.875 8.24921C15.875 8.25005 15.875 8.2509 15.875 8.25175C15.875 8.2526 15.875 8.25344 15.875 8.25429C15.875 8.25514 15.875 8.25599 15.875 8.25684C15.875 8.25768 15.875 8.25853 15.875 8.25938C15.875 8.26023 15.875 8.26108 15.875 8.26193C15.875 8.26278 15.875 8.26362 15.875 8.26447C15.875 8.26532 15.875 8.26617 15.875 8.26702C15.875 8.26787 15.875 8.26872 15.875 8.26957C15.875 8.27042 15.875 8.27127 15.875 8.27212C15.875 8.27297 15.875 8.27382 15.875 8.27467C15.875 8.27552 15.875 8.27637 15.875 8.27722C15.875 8.27807 15.875 8.27892 15.875 8.27977C15.875 8.28062 15.875 8.28147 15.875 8.28232C15.875 8.28317 15.875 8.28402 15.875 8.28488C15.875 8.28573 15.875 8.28658 15.875 8.28743C15.875 8.28828 15.875 8.28913 15.875 8.28998C15.875 8.29084 15.875 8.29169 15.875 8.29254C15.875 8.29339 15.875 8.29424 15.875 8.2951C15.875 8.29595 15.875 8.2968 15.875 8.29765C15.875 8.29851 15.875 8.29936 15.875 8.30021C15.875 8.30106 15.875 8.30192 15.875 8.30277C15.875 8.30362 15.875 8.30448 15.875 8.30533C15.875 8.30618 15.875 8.30704 15.875 8.30789C15.875 8.30874 15.875 8.3096 15.875 8.31045C15.875 8.31131 15.875 8.31216 15.875 8.31301C15.875 8.31387 15.875 8.31472 15.875 8.31558C15.875 8.31643 15.875 8.31729 15.875 8.31814C15.875 8.31899 15.875 8.31985 15.875 8.3207C15.875 8.32156 15.875 8.32241 15.875 8.32327C15.875 8.32412 15.875 8.32498 15.875 8.32584C15.875 8.32669 15.875 8.32755 15.875 8.3284C15.875 8.32926 15.875 8.33011 15.875 8.33097C15.875 8.33183 15.875 8.33268 15.875 8.33354C15.875 8.3344 15.875 8.33525 15.875 8.33611C15.875 8.33696 15.875 8.33782 15.875 8.33868C15.875 8.33954 15.875 8.34039 15.875 8.34125C15.875 8.34211 15.875 8.34296 15.875 8.34382C15.875 8.34468 15.875 8.34554 15.875 8.34639C15.875 8.34725 15.875 8.34811 15.875 8.34897C15.875 8.34982 15.875 8.35068 15.875 8.35154C15.875 8.3524 15.875 8.35326 15.875 8.35412C15.875 8.35497 15.875 8.35583 15.875 8.35669C15.875 8.35755 15.875 8.35841 15.875 8.35927C15.875 8.36013 15.875 8.36099 15.875 8.36185C15.875 8.36271 15.875 8.36356 15.875 8.36442C15.875 8.36528 15.875 8.36614 15.875 8.367C15.875 8.36786 15.875 8.36872 15.875 8.36958C15.875 8.37044 15.875 8.3713 15.875 8.37216C15.875 8.37302 15.875 8.37388 15.875 8.37475C15.875 8.37561 15.875 8.37647 15.875 8.37733C15.875 8.37819 15.875 8.37905 15.875 8.37991C15.875 8.38077 15.875 8.38163 15.875 8.38249C15.875 8.38336 15.875 8.38422 15.875 8.38508C15.875 8.38594 15.875 8.3868 15.875 8.38766C15.875 8.38853 15.875 8.38939 15.875 8.39025C15.875 8.39111 15.875 8.39198 15.875 8.39284C15.875 8.3937 15.875 8.39456 15.875 8.39543C15.875 8.39629 15.875 8.39715 15.875 8.39802C15.875 8.39888 15.875 8.39974 15.875 8.40061C15.875 8.40147 15.875 8.40233 15.875 8.4032C15.875 8.40406 15.875 8.40492 15.875 8.40579C15.875 8.40665 15.875 8.40751 15.875 8.40838C15.875 8.40924 15.875 8.41011 15.875 8.41097C15.875 8.41184 15.875 8.4127 15.875 8.41357C15.875 8.41443 15.875 8.41529 15.875 8.41616C15.875 8.41702 15.875 8.41789 15.875 8.41876C15.875 8.41962 15.875 8.42049 15.875 8.42135C15.875 8.42222 15.875 8.42308 15.875 8.42395C15.875 8.42481 15.875 8.42568 15.875 8.42655C15.875 8.42741 15.875 8.42828 15.875 8.42914C15.875 8.43001 15.875 8.43088 15.875 8.43174C15.875 8.43261 15.875 8.43348 15.875 8.43434C15.875 8.43521 15.875 8.43608 15.875 8.43695C15.875 8.43781 15.875 8.43868 15.875 8.43955C15.875 8.44041 15.875 8.44128 15.875 8.44215C15.875 8.44302 15.875 8.44389 15.875 8.44475C15.875 8.44562 15.875 8.44649 15.875 8.44736C15.875 8.44823 15.875 8.44909 15.875 8.44996C15.875 8.45083 15.875 8.4517 15.875 8.45257C15.875 8.45344 15.875 8.45431 15.875 8.45518C15.875 8.45604 15.875 8.45691 15.875 8.45778C15.875 8.45865 15.875 8.45952 15.875 8.46039C15.875 8.46126 15.875 8.46213 15.875 8.463C15.875 8.46387 15.875 8.46474 15.875 8.46561C15.875 8.46648 15.875 8.46735 15.875 8.46822C15.875 8.46909 15.875 8.46996 15.875 8.47083C15.875 8.4717 15.875 8.47258 15.875 8.47345C15.875 8.47432 15.875 8.47519 15.875 8.47606C15.875 8.47693 15.875 8.4778 15.875 8.47867C15.875 8.47954 15.875 8.48042 15.875 8.48129C15.875 8.48216 15.875 8.48303 15.875 8.4839C15.875 8.48478 15.875 8.48565 15.875 8.48652C15.875 8.48739 15.875 8.48827 15.875 8.48914C15.875 8.49001 15.875 8.49088 15.875 8.49176C15.875 8.49263 15.875 8.4935 15.875 8.49438C15.875 8.49525 15.875 8.49612 15.875 8.497C15.875 8.49787 15.875 8.49874 15.875 8.49962C15.875 8.50049 15.875 8.50136 15.875 8.50224C15.875 8.50311 15.875 8.50399 15.875 8.50486C15.875 8.50573 15.875 8.50661 15.875 8.50748C15.875 8.50836 15.875 8.50923 15.875 8.51011C15.875 8.51098 15.875 8.51186 15.875 8.51273C15.875 8.51361 15.875 8.51448 15.875 8.51536C15.875 8.51623 15.875 8.51711 15.875 8.51798C15.875 8.51886 15.875 8.51974 15.875 8.52061C15.875 8.52149 15.875 8.52236 15.875 8.52324C15.875 8.52412 15.875 8.52499 15.875 8.52587C15.875 8.52674 15.875 8.52762 15.875 8.5285C15.875 8.52937 15.875 8.53025 15.875 8.53113C15.875 8.53201 15.875 8.53288 15.875 8.53376C15.875 8.53464 15.875 8.53551 15.875 8.53639C15.875 8.53727 15.875 8.53815 15.875 8.53902C15.875 8.5399 15.875 8.54078 15.875 8.54166C15.875 8.54254 15.875 8.54341 15.875 8.54429C15.875 8.54517 15.875 8.54605 15.875 8.54693C15.875 8.54781 15.875 8.54869 15.875 8.54956C15.875 8.55044 15.875 8.55132 15.875 8.5522C15.875 8.55308 15.875 8.55396 15.875 8.55484C15.875 8.55572 15.875 8.5566 15.875 8.55748C15.875 8.55836 15.875 8.55924 15.875 8.56012C15.875 8.561 15.875 8.56188 15.875 8.56276C15.875 8.56364 15.875 8.56452 15.875 8.5654C15.875 8.56628 15.875 8.56716 15.875 8.56804C15.875 8.56892 15.875 8.5698 15.875 8.57068C15.875 8.57157 15.875 8.57245 15.875 8.57333C15.875 8.57421 15.875 8.57509 15.875 8.57597C15.875 8.57685 15.875 8.57774 15.875 8.57862C15.875 8.5795 15.875 8.58038 15.875 8.58126C15.875 8.58215 15.875 8.58303 15.875 8.58391C15.875 8.58479 15.875 8.58568 15.875 8.58656C15.875 8.58744 15.875 8.58832 15.875 8.58921C15.875 8.59009 15.875 8.59097 15.875 8.59186C15.875 8.59274 15.875 8.59362 15.875 8.59451C15.875 8.59539 15.875 8.59627 15.875 8.59716C15.875 8.59804 15.875 8.59893 15.875 8.59981C15.875 8.60069 15.875 8.60158 15.875 8.60246C15.875 8.60335 15.875 8.60423 15.875 8.60512C15.875 8.606 15.875 8.60689 15.875 8.60777C15.875 8.60866 15.875 8.60954 15.875 8.61043C15.875 8.61131 15.875 8.6122 15.875 8.61308C15.875 8.61397 15.875 8.61485 15.875 8.61574C15.875 8.61662 15.875 8.61751 15.875 8.6184C15.875 8.61928 15.875 8.62017 15.875 8.62106C15.875 8.62194 15.875 8.62283 15.875 8.62371C15.875 8.6246 15.875 8.62549 15.875 8.62637C15.875 8.62726 15.875 8.62815 15.875 8.62904C15.875 8.62992 15.875 8.63081 15.875 8.6317C15.875 8.63258 15.875 8.63347 15.875 8.63436C15.875 8.63525 15.875 8.63614 15.875 8.63702C15.875 8.63791 15.875 8.6388 15.875 8.63969C15.875 8.64058 15.875 8.64146 15.875 8.64235C15.875 8.64324 15.875 8.64413 15.875 8.64502C15.875 8.64591 15.875 8.6468 15.875 8.64769C15.875 8.64857 15.875 8.64946 15.875 8.65035C15.875 8.65124 15.875 8.65213 15.875 8.65302C15.875 8.65391 15.875 8.6548 15.875 8.65569C15.875 8.65658 15.875 8.65747 15.875 8.65836C15.875 8.65925 15.875 8.66014 15.875 8.66103C15.875 8.66192 15.875 8.66281 15.875 8.6637C15.875 8.66459 15.875 8.66548 15.875 8.66638C15.875 8.66727 15.875 8.66816 15.875 8.66905C15.875 8.66994 15.875 8.67083 15.875 8.67172C15.875 8.67262 15.875 8.67351 15.875 8.6744C15.875 8.67529 15.875 8.67618 15.875 8.67707C15.875 8.67797 15.875 8.67886 15.875 8.67975C15.875 8.68064 15.875 8.68154 15.875 8.68243C15.875 8.68332 15.875 8.68421 15.875 8.68511C15.875 8.686 15.875 8.68689 15.875 8.68779C15.875 8.68868 15.875 8.68957 15.875 8.69047C15.875 8.69136 15.875 8.69225 15.875 8.69315C15.875 8.69404 15.875 8.69493 15.875 8.69583C15.875 8.69672 15.875 8.69762 15.875 8.69851C15.875 8.69941 15.875 8.7003 15.875 8.70119C15.875 8.70209 15.875 8.70298 15.875 8.70388C15.875 8.70477 15.875 8.70567 15.875 8.70656C15.875 8.70746 15.875 8.70835 15.875 8.70925C15.875 8.71014 15.875 8.71104 15.875 8.71194C15.875 8.71283 15.875 8.71373 15.875 8.71462C15.875 8.71552 15.875 8.71642 15.875 8.71731C15.875 8.71821 15.875 8.7191 15.875 8.72C15.875 8.7209 15.875 8.72179 15.875 8.72269C15.875 8.72359 15.875 8.72448 15.875 8.72538C15.875 8.72628 15.875 8.72718 15.875 8.72807C15.875 8.72897 15.875 8.72987 15.875 8.73077C15.875 8.73166 15.875 8.73256 15.875 8.73346C15.875 8.73436 15.875 8.73525 15.875 8.73615C15.875 8.73705 15.875 8.73795 15.875 8.73885C15.875 8.73975 15.875 8.74064 15.875 8.74154C15.875 8.74244 15.875 8.74334 15.875 8.74424C15.875 8.74514 15.875 8.74604 15.875 8.74694C15.875 8.74784 15.875 8.74874 15.875 8.74964C15.875 8.75054 15.875 8.75144 15.875 8.75233C15.875 8.75323 15.875 8.75413 15.875 8.75503C15.875 8.75593 15.875 8.75684 15.875 8.75774C15.875 8.75864 15.875 8.75954 15.875 8.76044C15.875 8.76134 15.875 8.76224 15.875 8.76314C15.875 8.76404 15.875 8.76494 15.875 8.76584C15.875 8.76674 15.875 8.76765 15.875 8.76855C15.875 8.76945 15.875 8.77035 15.875 8.77125C15.875 8.77215 15.875 8.77306 15.875 8.77396C15.875 8.77486 15.875 8.77576 15.875 8.77666C15.875 8.77757 15.875 8.77847 15.875 8.77937C15.875 8.78027 15.875 8.78118 15.875 8.78208C15.875 8.78298 15.875 8.78389 15.875 8.78479C15.875 8.78569 15.875 8.7866 15.875 8.7875C15.875 8.7884 15.875 8.78931 15.875 8.79021C15.875 8.79111 15.875 8.79202 15.875 8.79292C15.875 8.79383 15.875 8.79473 15.875 8.79563C15.875 8.79654 15.875 8.79744 15.875 8.79835C15.875 8.79925 15.875 8.80016 15.875 8.80106C15.875 8.80197 15.875 8.80287 15.875 8.80378C15.875 8.80468 15.875 8.80559 15.875 8.80649C15.875 8.8074 15.875 8.8083 15.875 8.80921C15.875 8.81011 15.875 8.81102 15.875 8.81193C15.875 8.81283 15.875 8.81374 15.875 8.81464C15.875 8.81555 15.875 8.81646 15.875 8.81736C15.875 8.81827 15.875 8.81918 15.875 8.82008C15.875 8.82099 15.875 8.8219 15.875 8.8228C15.875 8.82371 15.875 8.82462 15.875 8.82552C15.875 8.82643 15.875 8.82734 15.875 8.82825C15.875 8.82915 15.875 8.83006 15.875 8.83097C15.875 8.83188 15.875 8.83279 15.875 8.83369C15.875 8.8346 15.875 8.83551 15.875 8.83642C15.875 8.83733 15.875 8.83824 15.875 8.83915C15.875 8.84005 15.875 8.84096 15.875 8.84187C15.875 8.84278 15.875 8.84369 15.875 8.8446C15.875 8.84551 15.875 8.84642 15.875 8.84733C15.875 8.84824 15.875 8.84915 15.875 8.85006C15.875 8.85097 15.875 8.85188 15.875 8.85279C15.875 8.8537 15.875 8.85461 15.875 8.85552C15.875 8.85643 15.875 8.85734 15.875 8.85825C15.875 8.85916 15.875 8.86007 15.875 8.86098C15.875 8.86189 15.875 8.8628 15.875 8.86371C15.875 8.86463 15.875 8.86554 15.875 8.86645C15.875 8.86736 15.875 8.86827 15.875 8.86918C15.875 8.8701 15.875 8.87101 15.875 8.87192C15.875 8.87283 15.875 8.87374 15.875 8.87466C15.875 8.87557 15.875 8.87648 15.875 8.87739C15.875 8.87831 15.875 8.87922 15.875 8.88013C15.875 8.88104 15.875 8.88196 15.875 8.88287C15.875 8.88378 15.875 8.8847 15.875 8.88561C15.875 8.88652 15.875 8.88744 15.875 8.88835C15.875 8.88927 15.875 8.89018 15.875 8.89109C15.875 8.89201 15.875 8.89292 15.875 8.89384C15.875 8.89475 15.875 8.89566 15.875 8.89658C15.875 8.89749 15.875 8.89841 15.875 8.89932C15.875 8.90024 15.875 8.90115 15.875 8.90207C15.875 8.90298 15.875 8.9039 15.875 8.90481C15.875 8.90573 15.875 8.90665 15.875 8.90756C15.875 8.90848 15.875 8.90939 15.875 8.91031C15.875 8.91122 15.875 8.91214 15.875 8.91306C15.875 8.91397 15.875 8.91489 15.875 8.91581C15.875 8.91672 15.875 8.91764 15.875 8.91856C15.875 8.91947 15.875 8.92039 15.875 8.92131C15.875 8.92222 15.875 8.92314 15.875 8.92406C15.875 8.92498 15.875 8.92589 15.875 8.92681C15.875 8.92773 15.875 8.92865 15.875 8.92956C15.875 8.93048 15.875 8.9314 15.875 8.93232C15.875 8.93324 15.875 8.93416 15.875 8.93507C15.875 8.93599 15.875 8.93691 15.875 8.93783C15.875 8.93875 15.875 8.93967 15.875 8.94059C15.875 8.94151 15.875 8.94242 15.875 8.94334C15.875 8.94426 15.875 8.94518 15.875 8.9461C15.875 8.94702 15.875 8.94794 15.875 8.94886C15.875 8.94978 15.875 8.9507 15.875 8.95162C15.875 8.95254 15.875 8.95346 15.875 8.95438C15.875 8.9553 15.875 8.95622 15.875 8.95714C15.875 8.95807 15.875 8.95899 15.875 8.95991C15.875 8.96083 15.875 8.96175 15.875 8.96267C15.875 8.96359 15.875 8.96451 15.875 8.96543C15.875 8.96636 15.875 8.96728 15.875 8.9682C15.875 8.96912 15.875 8.97004 15.875 8.97097C15.875 8.97189 15.875 8.97281 15.875 8.97373C15.875 8.97466 15.875 8.97558 15.875 8.9765C15.875 8.97742 15.875 8.97835 15.875 8.97927C15.875 8.98019 15.875 8.98112 15.875 8.98204C15.875 8.98296 15.875 8.98389 15.875 8.98481C15.875 8.98573 15.875 8.98666 15.875 8.98758C15.875 8.9885 15.875 8.98943 15.875 8.99035C15.875 8.99128 15.875 8.9922 15.875 8.99312H16.5H17.125C17.125 8.9922 17.125 8.99128 17.125 8.99035C17.125 8.98943 17.125 8.9885 17.125 8.98758C17.125 8.98666 17.125 8.98573 17.125 8.98481C17.125 8.98389 17.125 8.98296 17.125 8.98204C17.125 8.98112 17.125 8.98019 17.125 8.97927C17.125 8.97835 17.125 8.97742 17.125 8.9765C17.125 8.97558 17.125 8.97466 17.125 8.97373C17.125 8.97281 17.125 8.97189 17.125 8.97097C17.125 8.97004 17.125 8.96912 17.125 8.9682C17.125 8.96728 17.125 8.96636 17.125 8.96543C17.125 8.96451 17.125 8.96359 17.125 8.96267C17.125 8.96175 17.125 8.96083 17.125 8.95991C17.125 8.95899 17.125 8.95807 17.125 8.95714C17.125 8.95622 17.125 8.9553 17.125 8.95438C17.125 8.95346 17.125 8.95254 17.125 8.95162C17.125 8.9507 17.125 8.94978 17.125 8.94886C17.125 8.94794 17.125 8.94702 17.125 8.9461C17.125 8.94518 17.125 8.94426 17.125 8.94334C17.125 8.94242 17.125 8.94151 17.125 8.94059C17.125 8.93967 17.125 8.93875 17.125 8.93783C17.125 8.93691 17.125 8.93599 17.125 8.93507C17.125 8.93416 17.125 8.93324 17.125 8.93232C17.125 8.9314 17.125 8.93048 17.125 8.92956C17.125 8.92865 17.125 8.92773 17.125 8.92681C17.125 8.92589 17.125 8.92498 17.125 8.92406C17.125 8.92314 17.125 8.92222 17.125 8.92131C17.125 8.92039 17.125 8.91947 17.125 8.91856C17.125 8.91764 17.125 8.91672 17.125 8.91581C17.125 8.91489 17.125 8.91397 17.125 8.91306C17.125 8.91214 17.125 8.91122 17.125 8.91031C17.125 8.90939 17.125 8.90848 17.125 8.90756C17.125 8.90665 17.125 8.90573 17.125 8.90481C17.125 8.9039 17.125 8.90298 17.125 8.90207C17.125 8.90115 17.125 8.90024 17.125 8.89932C17.125 8.89841 17.125 8.89749 17.125 8.89658C17.125 8.89566 17.125 8.89475 17.125 8.89384C17.125 8.89292 17.125 8.89201 17.125 8.89109C17.125 8.89018 17.125 8.88927 17.125 8.88835C17.125 8.88744 17.125 8.88652 17.125 8.88561C17.125 8.8847 17.125 8.88378 17.125 8.88287C17.125 8.88196 17.125 8.88104 17.125 8.88013C17.125 8.87922 17.125 8.87831 17.125 8.87739C17.125 8.87648 17.125 8.87557 17.125 8.87466C17.125 8.87374 17.125 8.87283 17.125 8.87192C17.125 8.87101 17.125 8.8701 17.125 8.86918C17.125 8.86827 17.125 8.86736 17.125 8.86645C17.125 8.86554 17.125 8.86463 17.125 8.86371C17.125 8.8628 17.125 8.86189 17.125 8.86098C17.125 8.86007 17.125 8.85916 17.125 8.85825C17.125 8.85734 17.125 8.85643 17.125 8.85552C17.125 8.85461 17.125 8.8537 17.125 8.85279C17.125 8.85188 17.125 8.85097 17.125 8.85006C17.125 8.84915 17.125 8.84824 17.125 8.84733C17.125 8.84642 17.125 8.84551 17.125 8.8446C17.125 8.84369 17.125 8.84278 17.125 8.84187C17.125 8.84096 17.125 8.84005 17.125 8.83915C17.125 8.83824 17.125 8.83733 17.125 8.83642C17.125 8.83551 17.125 8.8346 17.125 8.83369C17.125 8.83279 17.125 8.83188 17.125 8.83097C17.125 8.83006 17.125 8.82915 17.125 8.82825C17.125 8.82734 17.125 8.82643 17.125 8.82552C17.125 8.82462 17.125 8.82371 17.125 8.8228C17.125 8.8219 17.125 8.82099 17.125 8.82008C17.125 8.81918 17.125 8.81827 17.125 8.81736C17.125 8.81646 17.125 8.81555 17.125 8.81464C17.125 8.81374 17.125 8.81283 17.125 8.81193C17.125 8.81102 17.125 8.81011 17.125 8.80921C17.125 8.8083 17.125 8.8074 17.125 8.80649C17.125 8.80559 17.125 8.80468 17.125 8.80378C17.125 8.80287 17.125 8.80197 17.125 8.80106C17.125 8.80016 17.125 8.79925 17.125 8.79835C17.125 8.79744 17.125 8.79654 17.125 8.79563C17.125 8.79473 17.125 8.79383 17.125 8.79292C17.125 8.79202 17.125 8.79111 17.125 8.79021C17.125 8.78931 17.125 8.7884 17.125 8.7875C17.125 8.7866 17.125 8.78569 17.125 8.78479C17.125 8.78389 17.125 8.78298 17.125 8.78208C17.125 8.78118 17.125 8.78027 17.125 8.77937C17.125 8.77847 17.125 8.77757 17.125 8.77666C17.125 8.77576 17.125 8.77486 17.125 8.77396C17.125 8.77306 17.125 8.77215 17.125 8.77125C17.125 8.77035 17.125 8.76945 17.125 8.76855C17.125 8.76765 17.125 8.76674 17.125 8.76584C17.125 8.76494 17.125 8.76404 17.125 8.76314C17.125 8.76224 17.125 8.76134 17.125 8.76044C17.125 8.75954 17.125 8.75864 17.125 8.75774C17.125 8.75684 17.125 8.75593 17.125 8.75503C17.125 8.75413 17.125 8.75323 17.125 8.75233C17.125 8.75144 17.125 8.75054 17.125 8.74964C17.125 8.74874 17.125 8.74784 17.125 8.74694C17.125 8.74604 17.125 8.74514 17.125 8.74424C17.125 8.74334 17.125 8.74244 17.125 8.74154C17.125 8.74064 17.125 8.73975 17.125 8.73885C17.125 8.73795 17.125 8.73705 17.125 8.73615C17.125 8.73525 17.125 8.73436 17.125 8.73346C17.125 8.73256 17.125 8.73166 17.125 8.73077C17.125 8.72987 17.125 8.72897 17.125 8.72807C17.125 8.72718 17.125 8.72628 17.125 8.72538C17.125 8.72448 17.125 8.72359 17.125 8.72269C17.125 8.72179 17.125 8.7209 17.125 8.72C17.125 8.7191 17.125 8.71821 17.125 8.71731C17.125 8.71642 17.125 8.71552 17.125 8.71462C17.125 8.71373 17.125 8.71283 17.125 8.71194C17.125 8.71104 17.125 8.71014 17.125 8.70925C17.125 8.70835 17.125 8.70746 17.125 8.70656C17.125 8.70567 17.125 8.70477 17.125 8.70388C17.125 8.70298 17.125 8.70209 17.125 8.70119C17.125 8.7003 17.125 8.69941 17.125 8.69851C17.125 8.69762 17.125 8.69672 17.125 8.69583C17.125 8.69493 17.125 8.69404 17.125 8.69315C17.125 8.69225 17.125 8.69136 17.125 8.69047C17.125 8.68957 17.125 8.68868 17.125 8.68779C17.125 8.68689 17.125 8.686 17.125 8.68511C17.125 8.68421 17.125 8.68332 17.125 8.68243C17.125 8.68154 17.125 8.68064 17.125 8.67975C17.125 8.67886 17.125 8.67797 17.125 8.67707C17.125 8.67618 17.125 8.67529 17.125 8.6744C17.125 8.67351 17.125 8.67262 17.125 8.67172C17.125 8.67083 17.125 8.66994 17.125 8.66905C17.125 8.66816 17.125 8.66727 17.125 8.66638C17.125 8.66548 17.125 8.66459 17.125 8.6637C17.125 8.66281 17.125 8.66192 17.125 8.66103C17.125 8.66014 17.125 8.65925 17.125 8.65836C17.125 8.65747 17.125 8.65658 17.125 8.65569C17.125 8.6548 17.125 8.65391 17.125 8.65302C17.125 8.65213 17.125 8.65124 17.125 8.65035C17.125 8.64946 17.125 8.64857 17.125 8.64769C17.125 8.6468 17.125 8.64591 17.125 8.64502C17.125 8.64413 17.125 8.64324 17.125 8.64235C17.125 8.64146 17.125 8.64058 17.125 8.63969C17.125 8.6388 17.125 8.63791 17.125 8.63702C17.125 8.63614 17.125 8.63525 17.125 8.63436C17.125 8.63347 17.125 8.63258 17.125 8.6317C17.125 8.63081 17.125 8.62992 17.125 8.62904C17.125 8.62815 17.125 8.62726 17.125 8.62637C17.125 8.62549 17.125 8.6246 17.125 8.62371C17.125 8.62283 17.125 8.62194 17.125 8.62106C17.125 8.62017 17.125 8.61928 17.125 8.6184C17.125 8.61751 17.125 8.61662 17.125 8.61574C17.125 8.61485 17.125 8.61397 17.125 8.61308C17.125 8.6122 17.125 8.61131 17.125 8.61043C17.125 8.60954 17.125 8.60866 17.125 8.60777C17.125 8.60689 17.125 8.606 17.125 8.60512C17.125 8.60423 17.125 8.60335 17.125 8.60246C17.125 8.60158 17.125 8.60069 17.125 8.59981C17.125 8.59893 17.125 8.59804 17.125 8.59716C17.125 8.59627 17.125 8.59539 17.125 8.59451C17.125 8.59362 17.125 8.59274 17.125 8.59186C17.125 8.59097 17.125 8.59009 17.125 8.58921C17.125 8.58832 17.125 8.58744 17.125 8.58656C17.125 8.58568 17.125 8.58479 17.125 8.58391C17.125 8.58303 17.125 8.58215 17.125 8.58126C17.125 8.58038 17.125 8.5795 17.125 8.57862C17.125 8.57774 17.125 8.57685 17.125 8.57597C17.125 8.57509 17.125 8.57421 17.125 8.57333C17.125 8.57245 17.125 8.57157 17.125 8.57068C17.125 8.5698 17.125 8.56892 17.125 8.56804C17.125 8.56716 17.125 8.56628 17.125 8.5654C17.125 8.56452 17.125 8.56364 17.125 8.56276C17.125 8.56188 17.125 8.561 17.125 8.56012C17.125 8.55924 17.125 8.55836 17.125 8.55748C17.125 8.5566 17.125 8.55572 17.125 8.55484C17.125 8.55396 17.125 8.55308 17.125 8.5522C17.125 8.55132 17.125 8.55044 17.125 8.54956C17.125 8.54869 17.125 8.54781 17.125 8.54693C17.125 8.54605 17.125 8.54517 17.125 8.54429C17.125 8.54341 17.125 8.54254 17.125 8.54166C17.125 8.54078 17.125 8.5399 17.125 8.53902C17.125 8.53815 17.125 8.53727 17.125 8.53639C17.125 8.53551 17.125 8.53464 17.125 8.53376C17.125 8.53288 17.125 8.53201 17.125 8.53113C17.125 8.53025 17.125 8.52937 17.125 8.5285C17.125 8.52762 17.125 8.52674 17.125 8.52587C17.125 8.52499 17.125 8.52412 17.125 8.52324C17.125 8.52236 17.125 8.52149 17.125 8.52061C17.125 8.51974 17.125 8.51886 17.125 8.51798C17.125 8.51711 17.125 8.51623 17.125 8.51536C17.125 8.51448 17.125 8.51361 17.125 8.51273C17.125 8.51186 17.125 8.51098 17.125 8.51011C17.125 8.50923 17.125 8.50836 17.125 8.50748C17.125 8.50661 17.125 8.50573 17.125 8.50486C17.125 8.50399 17.125 8.50311 17.125 8.50224C17.125 8.50136 17.125 8.50049 17.125 8.49962C17.125 8.49874 17.125 8.49787 17.125 8.497C17.125 8.49612 17.125 8.49525 17.125 8.49438C17.125 8.4935 17.125 8.49263 17.125 8.49176C17.125 8.49088 17.125 8.49001 17.125 8.48914C17.125 8.48827 17.125 8.48739 17.125 8.48652C17.125 8.48565 17.125 8.48478 17.125 8.4839C17.125 8.48303 17.125 8.48216 17.125 8.48129C17.125 8.48042 17.125 8.47954 17.125 8.47867C17.125 8.4778 17.125 8.47693 17.125 8.47606C17.125 8.47519 17.125 8.47432 17.125 8.47345C17.125 8.47258 17.125 8.4717 17.125 8.47083C17.125 8.46996 17.125 8.46909 17.125 8.46822C17.125 8.46735 17.125 8.46648 17.125 8.46561C17.125 8.46474 17.125 8.46387 17.125 8.463C17.125 8.46213 17.125 8.46126 17.125 8.46039C17.125 8.45952 17.125 8.45865 17.125 8.45778C17.125 8.45691 17.125 8.45604 17.125 8.45518C17.125 8.45431 17.125 8.45344 17.125 8.45257C17.125 8.4517 17.125 8.45083 17.125 8.44996C17.125 8.44909 17.125 8.44823 17.125 8.44736C17.125 8.44649 17.125 8.44562 17.125 8.44475C17.125 8.44389 17.125 8.44302 17.125 8.44215C17.125 8.44128 17.125 8.44041 17.125 8.43955C17.125 8.43868 17.125 8.43781 17.125 8.43695C17.125 8.43608 17.125 8.43521 17.125 8.43434C17.125 8.43348 17.125 8.43261 17.125 8.43174C17.125 8.43088 17.125 8.43001 17.125 8.42914C17.125 8.42828 17.125 8.42741 17.125 8.42655C17.125 8.42568 17.125 8.42481 17.125 8.42395C17.125 8.42308 17.125 8.42222 17.125 8.42135C17.125 8.42049 17.125 8.41962 17.125 8.41876C17.125 8.41789 17.125 8.41702 17.125 8.41616C17.125 8.41529 17.125 8.41443 17.125 8.41357C17.125 8.4127 17.125 8.41184 17.125 8.41097C17.125 8.41011 17.125 8.40924 17.125 8.40838C17.125 8.40751 17.125 8.40665 17.125 8.40579C17.125 8.40492 17.125 8.40406 17.125 8.4032C17.125 8.40233 17.125 8.40147 17.125 8.40061C17.125 8.39974 17.125 8.39888 17.125 8.39802C17.125 8.39715 17.125 8.39629 17.125 8.39543C17.125 8.39456 17.125 8.3937 17.125 8.39284C17.125 8.39198 17.125 8.39111 17.125 8.39025C17.125 8.38939 17.125 8.38853 17.125 8.38766C17.125 8.3868 17.125 8.38594 17.125 8.38508C17.125 8.38422 17.125 8.38336 17.125 8.38249C17.125 8.38163 17.125 8.38077 17.125 8.37991C17.125 8.37905 17.125 8.37819 17.125 8.37733C17.125 8.37647 17.125 8.37561 17.125 8.37475C17.125 8.37388 17.125 8.37302 17.125 8.37216C17.125 8.3713 17.125 8.37044 17.125 8.36958C17.125 8.36872 17.125 8.36786 17.125 8.367C17.125 8.36614 17.125 8.36528 17.125 8.36442C17.125 8.36356 17.125 8.36271 17.125 8.36185C17.125 8.36099 17.125 8.36013 17.125 8.35927C17.125 8.35841 17.125 8.35755 17.125 8.35669C17.125 8.35583 17.125 8.35497 17.125 8.35412C17.125 8.35326 17.125 8.3524 17.125 8.35154C17.125 8.35068 17.125 8.34982 17.125 8.34897C17.125 8.34811 17.125 8.34725 17.125 8.34639C17.125 8.34554 17.125 8.34468 17.125 8.34382C17.125 8.34296 17.125 8.34211 17.125 8.34125C17.125 8.34039 17.125 8.33954 17.125 8.33868C17.125 8.33782 17.125 8.33696 17.125 8.33611C17.125 8.33525 17.125 8.3344 17.125 8.33354C17.125 8.33268 17.125 8.33183 17.125 8.33097C17.125 8.33011 17.125 8.32926 17.125 8.3284C17.125 8.32755 17.125 8.32669 17.125 8.32584C17.125 8.32498 17.125 8.32412 17.125 8.32327C17.125 8.32241 17.125 8.32156 17.125 8.3207C17.125 8.31985 17.125 8.31899 17.125 8.31814C17.125 8.31729 17.125 8.31643 17.125 8.31558C17.125 8.31472 17.125 8.31387 17.125 8.31301C17.125 8.31216 17.125 8.31131 17.125 8.31045C17.125 8.3096 17.125 8.30874 17.125 8.30789C17.125 8.30704 17.125 8.30618 17.125 8.30533C17.125 8.30448 17.125 8.30362 17.125 8.30277C17.125 8.30192 17.125 8.30106 17.125 8.30021C17.125 8.29936 17.125 8.29851 17.125 8.29765C17.125 8.2968 17.125 8.29595 17.125 8.2951C17.125 8.29424 17.125 8.29339 17.125 8.29254C17.125 8.29169 17.125 8.29084 17.125 8.28998C17.125 8.28913 17.125 8.28828 17.125 8.28743C17.125 8.28658 17.125 8.28573 17.125 8.28488C17.125 8.28402 17.125 8.28317 17.125 8.28232C17.125 8.28147 17.125 8.28062 17.125 8.27977C17.125 8.27892 17.125 8.27807 17.125 8.27722C17.125 8.27637 17.125 8.27552 17.125 8.27467C17.125 8.27382 17.125 8.27297 17.125 8.27212C17.125 8.27127 17.125 8.27042 17.125 8.26957C17.125 8.26872 17.125 8.26787 17.125 8.26702C17.125 8.26617 17.125 8.26532 17.125 8.26447C17.125 8.26362 17.125 8.26278 17.125 8.26193C17.125 8.26108 17.125 8.26023 17.125 8.25938C17.125 8.25853 17.125 8.25768 17.125 8.25684C17.125 8.25599 17.125 8.25514 17.125 8.25429C17.125 8.25344 17.125 8.2526 17.125 8.25175C17.125 8.2509 17.125 8.25005 17.125 8.24921C17.125 8.24836 17.125 8.24751 17.125 8.24666C17.125 8.24582 17.125 8.24497 17.125 8.24412C17.125 8.24328 17.125 8.24243 17.125 8.24158C17.125 8.24074 17.125 8.23989 17.125 8.23904C17.125 8.2382 17.125 8.23735 17.125 8.2365C17.125 8.23566 17.125 8.23481 17.125 8.23397C17.125 8.23312 17.125 8.23228 17.125 8.23143C17.125 8.23058 17.125 8.22974 17.125 8.22889C17.125 8.22805 17.125 8.2272 17.125 8.22636C17.125 8.22551 17.125 8.22467 17.125 8.22382C17.125 8.22298 17.125 8.22213 17.125 8.22129C17.125 8.22045 17.125 8.2196 17.125 8.21876C17.125 8.21791 17.125 8.21707 17.125 8.21623C17.125 8.21538 17.125 8.21454 17.125 8.21369C17.125 8.21285 17.125 8.21201 17.125 8.21116C17.125 8.21032 17.125 8.20948 17.125 8.20863C17.125 8.20779 17.125 8.20695 17.125 8.2061C17.125 8.20526 17.125 8.20442 17.125 8.20358C17.125 8.20273 17.125 8.20189 17.125 8.20105C17.125 8.20021 17.125 8.19936 17.125 8.19852C17.125 8.19768 17.125 8.19684 17.125 8.196C17.125 8.19516 17.125 8.19431 17.125 8.19347C17.125 8.19263 17.125 8.19179 17.125 8.19095C17.125 8.19011 17.125 8.18927 17.125 8.18842C17.125 8.18758 17.125 8.18674 17.125 8.1859C17.125 8.18506 17.125 8.18422 17.125 8.18338C17.125 8.18254 17.125 8.1817 17.125 8.18086C17.125 8.18002 17.125 8.17918 17.125 8.17834C17.125 8.1775 17.125 8.17666 17.125 8.17582C17.125 8.17498 17.125 8.17414 17.125 8.1733C17.125 8.17246 17.125 8.17162 17.125 8.17078C17.125 8.16995 17.125 8.16911 17.125 8.16827C17.125 8.16743 17.125 8.16659 17.125 8.16575C17.125 8.16491 17.125 8.16407 17.125 8.16324C17.125 8.1624 17.125 8.16156 17.125 8.16072C17.125 8.15988 17.125 8.15905 17.125 8.15821C17.125 8.15737 17.125 8.15653 17.125 8.1557C17.125 8.15486 17.125 8.15402 17.125 8.15318C17.125 8.15235 17.125 8.15151 17.125 8.15067C17.125 8.14984 17.125 8.149 17.125 8.14816C17.125 8.14733 17.125 8.14649 17.125 8.14565C17.125 8.14482 17.125 8.14398 17.125 8.14314C17.125 8.14231 17.125 8.14147 17.125 8.14064C17.125 8.1398 17.125 8.13896 17.125 8.13813C17.125 8.13729 17.125 8.13646 17.125 8.13562C17.125 8.13479 17.125 8.13395 17.125 8.13312C17.125 8.13228 17.125 8.13145 17.125 8.13061C17.125 8.12978 17.125 8.12894 17.125 8.12811C17.125 8.12727 17.125 8.12644 17.125 8.1256C17.125 8.12477 17.125 8.12394 17.125 8.1231C17.125 8.12227 17.125 8.12143 17.125 8.1206C17.125 8.11977 17.125 8.11893 17.125 8.1181C17.125 8.11727 17.125 8.11643 17.125 8.1156C17.125 8.11477 17.125 8.11393 17.125 8.1131C17.125 8.11227 17.125 8.11143 17.125 8.1106C17.125 8.10977 17.125 8.10894 17.125 8.1081C17.125 8.10727 17.125 8.10644 17.125 8.10561C17.125 8.10478 17.125 8.10394 17.125 8.10311C17.125 8.10228 17.125 8.10145 17.125 8.10062C17.125 8.09978 17.125 8.09895 17.125 8.09812C17.125 8.09729 17.125 8.09646 17.125 8.09563C17.125 8.0948 17.125 8.09397 17.125 8.09314C17.125 8.0923 17.125 8.09147 17.125 8.09064C17.125 8.08981 17.125 8.08898 17.125 8.08815C17.125 8.08732 17.125 8.08649 17.125 8.08566C17.125 8.08483 17.125 8.084 17.125 8.08317C17.125 8.08234 17.125 8.08151 17.125 8.08068C17.125 8.07985 17.125 8.07902 17.125 8.0782C17.125 8.07737 17.125 8.07654 17.125 8.07571C17.125 8.07488 17.125 8.07405 17.125 8.07322C17.125 8.07239 17.125 8.07156 17.125 8.07074C17.125 8.06991 17.125 8.06908 17.125 8.06825C17.125 8.06742 17.125 8.06659 17.125 8.06577C17.125 8.06494 17.125 8.06411 17.125 8.06328C17.125 8.06246 17.125 8.06163 17.125 8.0608C17.125 8.05997 17.125 8.05915 17.125 8.05832C17.125 8.05749 17.125 8.05667 17.125 8.05584C17.125 8.05501 17.125 8.05419 17.125 8.05336C17.125 8.05253 17.125 8.05171 17.125 8.05088C17.125 8.05005 17.125 8.04923 17.125 8.0484C17.125 8.04758 17.125 8.04675 17.125 8.04592C17.125 8.0451 17.125 8.04427 17.125 8.04345C17.125 8.04262 17.125 8.0418 17.125 8.04097C17.125 8.04015 17.125 8.03932 17.125 8.0385C17.125 8.03767 17.125 8.03685 17.125 8.03602C17.125 8.0352 17.125 8.03437 17.125 8.03355C17.125 8.03272 17.125 8.0319 17.125 8.03107C17.125 8.03025 17.125 8.02943 17.125 8.0286C17.125 8.02778 17.125 8.02695 17.125 8.02613C17.125 8.02531 17.125 8.02448 17.125 8.02366C17.125 8.02284 17.125 8.02201 17.125 8.02119C17.125 8.02037 17.125 8.01954 17.125 8.01872C17.125 8.0179 17.125 8.01708 17.125 8.01625C17.125 8.01543 17.125 8.01461 17.125 8.01379C17.125 8.01296 17.125 8.01214 17.125 8.01132C17.125 8.0105 17.125 8.00968 17.125 8.00885C17.125 8.00803 17.125 8.00721 17.125 8.00639C17.125 8.00557 17.125 8.00475 17.125 8.00393C17.125 8.0031 17.125 8.00228 17.125 8.00146C17.125 8.00064 17.125 7.99982 17.125 7.999C17.125 7.99818 17.125 7.99736 17.125 7.99654C17.125 7.99572 17.125 7.9949 17.125 7.99408C17.125 7.99326 17.125 7.99244 17.125 7.99162C17.125 7.9908 17.125 7.98998 17.125 7.98916C17.125 7.98834 17.125 7.98752 17.125 7.9867C17.125 7.98588 17.125 7.98506 17.125 7.98424C17.125 7.98342 17.125 7.9826 17.125 7.98178C17.125 7.98097 17.125 7.98015 17.125 7.97933C17.125 7.97851 17.125 7.97769 17.125 7.97687C17.125 7.97605 17.125 7.97524 17.125 7.97442C17.125 7.9736 17.125 7.97278 17.125 7.97196C17.125 7.97115 17.125 7.97033 17.125 7.96951C17.125 7.96869 17.125 7.96788 17.125 7.96706C17.125 7.96624 17.125 7.96542 17.125 7.96461C17.125 7.96379 17.125 7.96297 17.125 7.96216C17.125 7.96134 17.125 7.96052 17.125 7.95971C17.125 7.95889 17.125 7.95807 17.125 7.95726C17.125 7.95644 17.125 7.95563 17.125 7.95481C17.125 7.95399 17.125 7.95318 17.125 7.95236C17.125 7.95155 17.125 7.95073 17.125 7.94992C17.125 7.9491 17.125 7.94829 17.125 7.94747C17.125 7.94665 17.125 7.94584 17.125 7.94502C17.125 7.94421 17.125 7.9434 17.125 7.94258C17.125 7.94177 17.125 7.94095 17.125 7.94014C17.125 7.93932 17.125 7.93851 17.125 7.93769C17.125 7.93688 17.125 7.93607 17.125 7.93525C17.125 7.93444 17.125 7.93362 17.125 7.93281C17.125 7.932 17.125 7.93118 17.125 7.93037C17.125 7.92956 17.125 7.92874 17.125 7.92793C17.125 7.92712 17.125 7.92631 17.125 7.92549C17.125 7.92468 17.125 7.92387 17.125 7.92305C17.125 7.92224 17.125 7.92143 17.125 7.92062C17.125 7.91981 17.125 7.91899 17.125 7.91818C17.125 7.91737 17.125 7.91656 17.125 7.91575C17.125 7.91493 17.125 7.91412 17.125 7.91331C17.125 7.9125 17.125 7.91169 17.125 7.91088C17.125 7.91007 17.125 7.90925 17.125 7.90844C17.125 7.90763 17.125 7.90682 17.125 7.90601C17.125 7.9052 17.125 7.90439 17.125 7.90358C17.125 7.90277 17.125 7.90196 17.125 7.90115C17.125 7.90034 17.125 7.89953 17.125 7.89872C17.125 7.89791 17.125 7.8971 17.125 7.89629C17.125 7.89548 17.125 7.89467 17.125 7.89386C17.125 7.89305 17.125 7.89224 17.125 7.89143C17.125 7.89062 17.125 7.88982 17.125 7.88901C17.125 7.8882 17.125 7.88739 17.125 7.88658C17.125 7.88577 17.125 7.88496 17.125 7.88415C17.125 7.88335 17.125 7.88254 17.125 7.88173C17.125 7.88092 17.125 7.88011 17.125 7.87931C17.125 7.8785 17.125 7.87769 17.125 7.87688C17.125 7.87608 17.125 7.87527 17.125 7.87446C17.125 7.87365 17.125 7.87285 17.125 7.87204C17.125 7.87123 17.125 7.87043 17.125 7.86962C17.125 7.86881 17.125 7.86801 17.125 7.8672C17.125 7.86639 17.125 7.86559 17.125 7.86478C17.125 7.86397 17.125 7.86317 17.125 7.86236C17.125 7.86156 17.125 7.86075 17.125 7.85994C17.125 7.85914 17.125 7.85833 17.125 7.85753C17.125 7.85672 17.125 7.85592 17.125 7.85511C17.125 7.85431 17.125 7.8535 17.125 7.8527C17.125 7.85189 17.125 7.85109 17.125 7.85028C17.125 7.84948 17.125 7.84867 17.125 7.84787C17.125 7.84707 17.125 7.84626 17.125 7.84546C17.125 7.84465 17.125 7.84385 17.125 7.84304C17.125 7.84224 17.125 7.84144 17.125 7.84063C17.125 7.83983 17.125 7.83903 17.125 7.83822C17.125 7.83742 17.125 7.83662 17.125 7.83581C17.125 7.83501 17.125 7.83421 17.125 7.83341C17.125 7.8326 17.125 7.8318 17.125 7.831C17.125 7.83019 17.125 7.82939 17.125 7.82859C17.125 7.82779 17.125 7.82699 17.125 7.82618C17.125 7.82538 17.125 7.82458 17.125 7.82378C17.125 7.82298 17.125 7.82217 17.125 7.82137C17.125 7.82057 17.125 7.81977 17.125 7.81897C17.125 7.81817 17.125 7.81737 17.125 7.81657C17.125 7.81576 17.125 7.81496 17.125 7.81416C17.125 7.81336 17.125 7.81256 17.125 7.81176C17.125 7.81096 17.125 7.81016 17.125 7.80936C17.125 7.80856 17.125 7.80776 17.125 7.80696C17.125 7.80616 17.125 7.80536 17.125 7.80456C17.125 7.80376 17.125 7.80296 17.125 7.80216C17.125 7.80136 17.125 7.80056 17.125 7.79976C17.125 7.79897 17.125 7.79817 17.125 7.79737C17.125 7.79657 17.125 7.79577 17.125 7.79497C17.125 7.79417 17.125 7.79337 17.125 7.79258C17.125 7.79178 17.125 7.79098 17.125 7.79018C17.125 7.78938 17.125 7.78859 17.125 7.78779C17.125 7.78699 17.125 7.78619 17.125 7.78539C17.125 7.7846 17.125 7.7838 17.125 7.783C17.125 7.7822 17.125 7.78141 17.125 7.78061C17.125 7.77981 17.125 7.77902 17.125 7.77822C17.125 7.77742 17.125 7.77663 17.125 7.77583C17.125 7.77503 17.125 7.77424 17.125 7.77344C17.125 7.77264 17.125 7.77185 17.125 7.77105C17.125 7.77026 17.125 7.76946 17.125 7.76866C17.125 7.76787 17.125 7.76707 17.125 7.76628C17.125 7.76548 17.125 7.76469 17.125 7.76389C17.125 7.7631 17.125 7.7623 17.125 7.76151C17.125 7.76071 17.125 7.75992 17.125 7.75912C17.125 7.75833 17.125 7.75753 17.125 7.75674C17.125 7.75594 17.125 7.75515 17.125 7.75436C17.125 7.75356 17.125 7.75277 17.125 7.75197C17.125 7.75118 17.125 7.75039 17.125 7.74959C17.125 7.7488 17.125 7.748 17.125 7.74721C17.125 7.74642 17.125 7.74562 17.125 7.74483C17.125 7.74404 17.125 7.74325 17.125 7.74245C17.125 7.74166 17.125 7.74087 17.125 7.74007C17.125 7.73928 17.125 7.73849 17.125 7.7377C17.125 7.7369 17.125 7.73611 17.125 7.73532C17.125 7.73453 17.125 7.73374 17.125 7.73294C17.125 7.73215 17.125 7.73136 17.125 7.73057C17.125 7.72978 17.125 7.72899 17.125 7.72819C17.125 7.7274 17.125 7.72661 17.125 7.72582C17.125 7.72503 17.125 7.72424 17.125 7.72345C17.125 7.72266 17.125 7.72187 17.125 7.72108C17.125 7.72029 17.125 7.7195 17.125 7.71871C17.125 7.71791 17.125 7.71712 17.125 7.71633C17.125 7.71554 17.125 7.71475 17.125 7.71396C17.125 7.71318 17.125 7.71239 17.125 7.7116C17.125 7.71081 17.125 7.71002 17.125 7.70923C17.125 7.70844 17.125 7.70765 17.125 7.70686C17.125 7.70607 17.125 7.70528 17.125 7.70449C17.125 7.70371 17.125 7.70292 17.125 7.70213C17.125 7.70134 17.125 7.70055 17.125 7.69976C17.125 7.69898 17.125 7.69819 17.125 7.6974C17.125 7.69661 17.125 7.69582 17.125 7.69504C17.125 7.69425 17.125 7.69346 17.125 7.69267C17.125 7.69189 17.125 7.6911 17.125 7.69031C17.125 7.68952 17.125 7.68874 17.125 7.68795C17.125 7.68716 17.125 7.68638 17.125 7.68559C17.125 7.6848 17.125 7.68402 17.125 7.68323C17.125 7.68244 17.125 7.68166 17.125 7.68087H16.5ZM16.5 8.99312H15.875C15.875 13.3057 12.6501 15.4282 10.501 16.367L10.7512 16.9397L11.0014 17.5125C13.285 16.5149 17.125 14.0773 17.125 8.99312H16.5ZM7.2488 16.9397L7.49899 16.367C5.34991 15.4282 2.125 13.3057 2.125 8.99312H1.5H0.875C0.875 14.0773 4.71502 16.5149 6.99861 17.5125L7.2488 16.9397ZM1.5 8.99312H2.125C2.125 8.9922 2.125 8.99128 2.125 8.99035C2.125 8.98943 2.125 8.9885 2.125 8.98758C2.125 8.98666 2.125 8.98573 2.125 8.98481C2.125 8.98389 2.125 8.98296 2.125 8.98204C2.125 8.98112 2.125 8.98019 2.125 8.97927C2.125 8.97835 2.125 8.97742 2.125 8.9765C2.125 8.97558 2.125 8.97466 2.125 8.97373C2.125 8.97281 2.125 8.97189 2.125 8.97097C2.125 8.97004 2.125 8.96912 2.125 8.9682C2.125 8.96728 2.125 8.96636 2.125 8.96543C2.125 8.96451 2.125 8.96359 2.125 8.96267C2.125 8.96175 2.125 8.96083 2.125 8.95991C2.125 8.95899 2.125 8.95807 2.125 8.95714C2.125 8.95622 2.125 8.9553 2.125 8.95438C2.125 8.95346 2.125 8.95254 2.125 8.95162C2.125 8.9507 2.125 8.94978 2.125 8.94886C2.125 8.94794 2.125 8.94702 2.125 8.9461C2.125 8.94518 2.125 8.94426 2.125 8.94334C2.125 8.94242 2.125 8.94151 2.125 8.94059C2.125 8.93967 2.125 8.93875 2.125 8.93783C2.125 8.93691 2.125 8.93599 2.125 8.93507C2.125 8.93416 2.125 8.93324 2.125 8.93232C2.125 8.9314 2.125 8.93048 2.125 8.92956C2.125 8.92865 2.125 8.92773 2.125 8.92681C2.125 8.92589 2.125 8.92498 2.125 8.92406C2.125 8.92314 2.125 8.92222 2.125 8.92131C2.125 8.92039 2.125 8.91947 2.125 8.91856C2.125 8.91764 2.125 8.91672 2.125 8.91581C2.125 8.91489 2.125 8.91397 2.125 8.91306C2.125 8.91214 2.125 8.91122 2.125 8.91031C2.125 8.90939 2.125 8.90848 2.125 8.90756C2.125 8.90665 2.125 8.90573 2.125 8.90481C2.125 8.9039 2.125 8.90298 2.125 8.90207C2.125 8.90115 2.125 8.90024 2.125 8.89932C2.125 8.89841 2.125 8.89749 2.125 8.89658C2.125 8.89566 2.125 8.89475 2.125 8.89384C2.125 8.89292 2.125 8.89201 2.125 8.89109C2.125 8.89018 2.125 8.88927 2.125 8.88835C2.125 8.88744 2.125 8.88652 2.125 8.88561C2.125 8.8847 2.125 8.88378 2.125 8.88287C2.125 8.88196 2.125 8.88104 2.125 8.88013C2.125 8.87922 2.125 8.87831 2.125 8.87739C2.125 8.87648 2.125 8.87557 2.125 8.87466C2.125 8.87374 2.125 8.87283 2.125 8.87192C2.125 8.87101 2.125 8.8701 2.125 8.86918C2.125 8.86827 2.125 8.86736 2.125 8.86645C2.125 8.86554 2.125 8.86463 2.125 8.86371C2.125 8.8628 2.125 8.86189 2.125 8.86098C2.125 8.86007 2.125 8.85916 2.125 8.85825C2.125 8.85734 2.125 8.85643 2.125 8.85552C2.125 8.85461 2.125 8.8537 2.125 8.85279C2.125 8.85188 2.125 8.85097 2.125 8.85006C2.125 8.84915 2.125 8.84824 2.125 8.84733C2.125 8.84642 2.125 8.84551 2.125 8.8446C2.125 8.84369 2.125 8.84278 2.125 8.84187C2.125 8.84096 2.125 8.84005 2.125 8.83915C2.125 8.83824 2.125 8.83733 2.125 8.83642C2.125 8.83551 2.125 8.8346 2.125 8.83369C2.125 8.83279 2.125 8.83188 2.125 8.83097C2.125 8.83006 2.125 8.82915 2.125 8.82825C2.125 8.82734 2.125 8.82643 2.125 8.82552C2.125 8.82462 2.125 8.82371 2.125 8.8228C2.125 8.8219 2.125 8.82099 2.125 8.82008C2.125 8.81918 2.125 8.81827 2.125 8.81736C2.125 8.81646 2.125 8.81555 2.125 8.81464C2.125 8.81374 2.125 8.81283 2.125 8.81193C2.125 8.81102 2.125 8.81011 2.125 8.80921C2.125 8.8083 2.125 8.8074 2.125 8.80649C2.125 8.80559 2.125 8.80468 2.125 8.80378C2.125 8.80287 2.125 8.80197 2.125 8.80106C2.125 8.80016 2.125 8.79925 2.125 8.79835C2.125 8.79744 2.125 8.79654 2.125 8.79563C2.125 8.79473 2.125 8.79383 2.125 8.79292C2.125 8.79202 2.125 8.79111 2.125 8.79021C2.125 8.78931 2.125 8.7884 2.125 8.7875C2.125 8.7866 2.125 8.78569 2.125 8.78479C2.125 8.78389 2.125 8.78298 2.125 8.78208C2.125 8.78118 2.125 8.78027 2.125 8.77937C2.125 8.77847 2.125 8.77757 2.125 8.77666C2.125 8.77576 2.125 8.77486 2.125 8.77396C2.125 8.77306 2.125 8.77215 2.125 8.77125C2.125 8.77035 2.125 8.76945 2.125 8.76855C2.125 8.76765 2.125 8.76674 2.125 8.76584C2.125 8.76494 2.125 8.76404 2.125 8.76314C2.125 8.76224 2.125 8.76134 2.125 8.76044C2.125 8.75954 2.125 8.75864 2.125 8.75774C2.125 8.75684 2.125 8.75593 2.125 8.75503C2.125 8.75413 2.125 8.75323 2.125 8.75233C2.125 8.75144 2.125 8.75054 2.125 8.74964C2.125 8.74874 2.125 8.74784 2.125 8.74694C2.125 8.74604 2.125 8.74514 2.125 8.74424C2.125 8.74334 2.125 8.74244 2.125 8.74154C2.125 8.74064 2.125 8.73975 2.125 8.73885C2.125 8.73795 2.125 8.73705 2.125 8.73615C2.125 8.73525 2.125 8.73436 2.125 8.73346C2.125 8.73256 2.125 8.73166 2.125 8.73077C2.125 8.72987 2.125 8.72897 2.125 8.72807C2.125 8.72718 2.125 8.72628 2.125 8.72538C2.125 8.72448 2.125 8.72359 2.125 8.72269C2.125 8.72179 2.125 8.7209 2.125 8.72C2.125 8.7191 2.125 8.71821 2.125 8.71731C2.125 8.71642 2.125 8.71552 2.125 8.71462C2.125 8.71373 2.125 8.71283 2.125 8.71194C2.125 8.71104 2.125 8.71014 2.125 8.70925C2.125 8.70835 2.125 8.70746 2.125 8.70656C2.125 8.70567 2.125 8.70477 2.125 8.70388C2.125 8.70298 2.125 8.70209 2.125 8.70119C2.125 8.7003 2.125 8.69941 2.125 8.69851C2.125 8.69762 2.125 8.69672 2.125 8.69583C2.125 8.69493 2.125 8.69404 2.125 8.69315C2.125 8.69225 2.125 8.69136 2.125 8.69047C2.125 8.68957 2.125 8.68868 2.125 8.68779C2.125 8.68689 2.125 8.686 2.125 8.68511C2.125 8.68421 2.125 8.68332 2.125 8.68243C2.125 8.68154 2.125 8.68064 2.125 8.67975C2.125 8.67886 2.125 8.67797 2.125 8.67707C2.125 8.67618 2.125 8.67529 2.125 8.6744C2.125 8.67351 2.125 8.67262 2.125 8.67172C2.125 8.67083 2.125 8.66994 2.125 8.66905C2.125 8.66816 2.125 8.66727 2.125 8.66638C2.125 8.66548 2.125 8.66459 2.125 8.6637C2.125 8.66281 2.125 8.66192 2.125 8.66103C2.125 8.66014 2.125 8.65925 2.125 8.65836C2.125 8.65747 2.125 8.65658 2.125 8.65569C2.125 8.6548 2.125 8.65391 2.125 8.65302C2.125 8.65213 2.125 8.65124 2.125 8.65035C2.125 8.64946 2.125 8.64857 2.125 8.64769C2.125 8.6468 2.125 8.64591 2.125 8.64502C2.125 8.64413 2.125 8.64324 2.125 8.64235C2.125 8.64146 2.125 8.64058 2.125 8.63969C2.125 8.6388 2.125 8.63791 2.125 8.63702C2.125 8.63614 2.125 8.63525 2.125 8.63436C2.125 8.63347 2.125 8.63258 2.125 8.6317C2.125 8.63081 2.125 8.62992 2.125 8.62904C2.125 8.62815 2.125 8.62726 2.125 8.62637C2.125 8.62549 2.125 8.6246 2.125 8.62371C2.125 8.62283 2.125 8.62194 2.125 8.62106C2.125 8.62017 2.125 8.61928 2.125 8.6184C2.125 8.61751 2.125 8.61662 2.125 8.61574C2.125 8.61485 2.125 8.61397 2.125 8.61308C2.125 8.6122 2.125 8.61131 2.125 8.61043C2.125 8.60954 2.125 8.60866 2.125 8.60777C2.125 8.60689 2.125 8.606 2.125 8.60512C2.125 8.60423 2.125 8.60335 2.125 8.60246C2.125 8.60158 2.125 8.60069 2.125 8.59981C2.125 8.59893 2.125 8.59804 2.125 8.59716C2.125 8.59627 2.125 8.59539 2.125 8.59451C2.125 8.59362 2.125 8.59274 2.125 8.59186C2.125 8.59097 2.125 8.59009 2.125 8.58921C2.125 8.58832 2.125 8.58744 2.125 8.58656C2.125 8.58568 2.125 8.58479 2.125 8.58391C2.125 8.58303 2.125 8.58215 2.125 8.58126C2.125 8.58038 2.125 8.5795 2.125 8.57862C2.125 8.57774 2.125 8.57685 2.125 8.57597C2.125 8.57509 2.125 8.57421 2.125 8.57333C2.125 8.57245 2.125 8.57157 2.125 8.57068C2.125 8.5698 2.125 8.56892 2.125 8.56804C2.125 8.56716 2.125 8.56628 2.125 8.5654C2.125 8.56452 2.125 8.56364 2.125 8.56276C2.125 8.56188 2.125 8.561 2.125 8.56012C2.125 8.55924 2.125 8.55836 2.125 8.55748C2.125 8.5566 2.125 8.55572 2.125 8.55484C2.125 8.55396 2.125 8.55308 2.125 8.5522C2.125 8.55132 2.125 8.55044 2.125 8.54956C2.125 8.54869 2.125 8.54781 2.125 8.54693C2.125 8.54605 2.125 8.54517 2.125 8.54429C2.125 8.54341 2.125 8.54254 2.125 8.54166C2.125 8.54078 2.125 8.5399 2.125 8.53902C2.125 8.53815 2.125 8.53727 2.125 8.53639C2.125 8.53551 2.125 8.53464 2.125 8.53376C2.125 8.53288 2.125 8.53201 2.125 8.53113C2.125 8.53025 2.125 8.52937 2.125 8.5285C2.125 8.52762 2.125 8.52674 2.125 8.52587C2.125 8.52499 2.125 8.52412 2.125 8.52324C2.125 8.52236 2.125 8.52149 2.125 8.52061C2.125 8.51974 2.125 8.51886 2.125 8.51798C2.125 8.51711 2.125 8.51623 2.125 8.51536C2.125 8.51448 2.125 8.51361 2.125 8.51273C2.125 8.51186 2.125 8.51098 2.125 8.51011C2.125 8.50923 2.125 8.50836 2.125 8.50748C2.125 8.50661 2.125 8.50573 2.125 8.50486C2.125 8.50399 2.125 8.50311 2.125 8.50224C2.125 8.50136 2.125 8.50049 2.125 8.49962C2.125 8.49874 2.125 8.49787 2.125 8.497C2.125 8.49612 2.125 8.49525 2.125 8.49438C2.125 8.4935 2.125 8.49263 2.125 8.49176C2.125 8.49088 2.125 8.49001 2.125 8.48914C2.125 8.48827 2.125 8.48739 2.125 8.48652C2.125 8.48565 2.125 8.48478 2.125 8.4839C2.125 8.48303 2.125 8.48216 2.125 8.48129C2.125 8.48042 2.125 8.47954 2.125 8.47867C2.125 8.4778 2.125 8.47693 2.125 8.47606C2.125 8.47519 2.125 8.47432 2.125 8.47345C2.125 8.47258 2.125 8.4717 2.125 8.47083C2.125 8.46996 2.125 8.46909 2.125 8.46822C2.125 8.46735 2.125 8.46648 2.125 8.46561C2.125 8.46474 2.125 8.46387 2.125 8.463C2.125 8.46213 2.125 8.46126 2.125 8.46039C2.125 8.45952 2.125 8.45865 2.125 8.45778C2.125 8.45691 2.125 8.45604 2.125 8.45518C2.125 8.45431 2.125 8.45344 2.125 8.45257C2.125 8.4517 2.125 8.45083 2.125 8.44996C2.125 8.44909 2.125 8.44823 2.125 8.44736C2.125 8.44649 2.125 8.44562 2.125 8.44475C2.125 8.44389 2.125 8.44302 2.125 8.44215C2.125 8.44128 2.125 8.44041 2.125 8.43955C2.125 8.43868 2.125 8.43781 2.125 8.43695C2.125 8.43608 2.125 8.43521 2.125 8.43434C2.125 8.43348 2.125 8.43261 2.125 8.43174C2.125 8.43088 2.125 8.43001 2.125 8.42914C2.125 8.42828 2.125 8.42741 2.125 8.42655C2.125 8.42568 2.125 8.42481 2.125 8.42395C2.125 8.42308 2.125 8.42222 2.125 8.42135C2.125 8.42049 2.125 8.41962 2.125 8.41876C2.125 8.41789 2.125 8.41702 2.125 8.41616C2.125 8.41529 2.125 8.41443 2.125 8.41357C2.125 8.4127 2.125 8.41184 2.125 8.41097C2.125 8.41011 2.125 8.40924 2.125 8.40838C2.125 8.40751 2.125 8.40665 2.125 8.40579C2.125 8.40492 2.125 8.40406 2.125 8.4032C2.125 8.40233 2.125 8.40147 2.125 8.4006C2.125 8.39974 2.125 8.39888 2.125 8.39802C2.125 8.39715 2.125 8.39629 2.125 8.39543C2.125 8.39456 2.125 8.3937 2.125 8.39284C2.125 8.39198 2.125 8.39111 2.125 8.39025C2.125 8.38939 2.125 8.38853 2.125 8.38766C2.125 8.3868 2.125 8.38594 2.125 8.38508C2.125 8.38422 2.125 8.38336 2.125 8.38249C2.125 8.38163 2.125 8.38077 2.125 8.37991C2.125 8.37905 2.125 8.37819 2.125 8.37733C2.125 8.37647 2.125 8.37561 2.125 8.37475C2.125 8.37388 2.125 8.37302 2.125 8.37216C2.125 8.3713 2.125 8.37044 2.125 8.36958C2.125 8.36872 2.125 8.36786 2.125 8.367C2.125 8.36614 2.125 8.36528 2.125 8.36442C2.125 8.36356 2.125 8.36271 2.125 8.36185C2.125 8.36099 2.125 8.36013 2.125 8.35927C2.125 8.35841 2.125 8.35755 2.125 8.35669C2.125 8.35583 2.125 8.35497 2.125 8.35412C2.125 8.35326 2.125 8.3524 2.125 8.35154C2.125 8.35068 2.125 8.34982 2.125 8.34897C2.125 8.34811 2.125 8.34725 2.125 8.34639C2.125 8.34554 2.125 8.34468 2.125 8.34382C2.125 8.34296 2.125 8.34211 2.125 8.34125C2.125 8.34039 2.125 8.33954 2.125 8.33868C2.125 8.33782 2.125 8.33696 2.125 8.33611C2.125 8.33525 2.125 8.3344 2.125 8.33354C2.125 8.33268 2.125 8.33183 2.125 8.33097C2.125 8.33011 2.125 8.32926 2.125 8.3284C2.125 8.32755 2.125 8.32669 2.125 8.32584C2.125 8.32498 2.125 8.32412 2.125 8.32327C2.125 8.32241 2.125 8.32156 2.125 8.3207C2.125 8.31985 2.125 8.31899 2.125 8.31814C2.125 8.31729 2.125 8.31643 2.125 8.31558C2.125 8.31472 2.125 8.31387 2.125 8.31301C2.125 8.31216 2.125 8.31131 2.125 8.31045C2.125 8.3096 2.125 8.30874 2.125 8.30789C2.125 8.30704 2.125 8.30618 2.125 8.30533C2.125 8.30448 2.125 8.30362 2.125 8.30277C2.125 8.30192 2.125 8.30106 2.125 8.30021C2.125 8.29936 2.125 8.29851 2.125 8.29765C2.125 8.2968 2.125 8.29595 2.125 8.2951C2.125 8.29424 2.125 8.29339 2.125 8.29254C2.125 8.29169 2.125 8.29084 2.125 8.28998C2.125 8.28913 2.125 8.28828 2.125 8.28743C2.125 8.28658 2.125 8.28573 2.125 8.28488C2.125 8.28402 2.125 8.28317 2.125 8.28232C2.125 8.28147 2.125 8.28062 2.125 8.27977C2.125 8.27892 2.125 8.27807 2.125 8.27722C2.125 8.27637 2.125 8.27552 2.125 8.27467C2.125 8.27382 2.125 8.27297 2.125 8.27212C2.125 8.27127 2.125 8.27042 2.125 8.26957C2.125 8.26872 2.125 8.26787 2.125 8.26702C2.125 8.26617 2.125 8.26532 2.125 8.26447C2.125 8.26362 2.125 8.26278 2.125 8.26193C2.125 8.26108 2.125 8.26023 2.125 8.25938C2.125 8.25853 2.125 8.25768 2.125 8.25684C2.125 8.25599 2.125 8.25514 2.125 8.25429C2.125 8.25344 2.125 8.2526 2.125 8.25175C2.125 8.2509 2.125 8.25005 2.125 8.24921C2.125 8.24836 2.125 8.24751 2.125 8.24666C2.125 8.24582 2.125 8.24497 2.125 8.24412C2.125 8.24328 2.125 8.24243 2.125 8.24158C2.125 8.24074 2.125 8.23989 2.125 8.23904C2.125 8.2382 2.125 8.23735 2.125 8.2365C2.125 8.23566 2.125 8.23481 2.125 8.23397C2.125 8.23312 2.125 8.23228 2.125 8.23143C2.125 8.23058 2.125 8.22974 2.125 8.22889C2.125 8.22805 2.125 8.2272 2.125 8.22636C2.125 8.22551 2.125 8.22467 2.125 8.22382C2.125 8.22298 2.125 8.22213 2.125 8.22129C2.125 8.22045 2.125 8.2196 2.125 8.21876C2.125 8.21791 2.125 8.21707 2.125 8.21623C2.125 8.21538 2.125 8.21454 2.125 8.21369C2.125 8.21285 2.125 8.21201 2.125 8.21116C2.125 8.21032 2.125 8.20948 2.125 8.20863C2.125 8.20779 2.125 8.20695 2.125 8.2061C2.125 8.20526 2.125 8.20442 2.125 8.20358C2.125 8.20273 2.125 8.20189 2.125 8.20105C2.125 8.20021 2.125 8.19936 2.125 8.19852C2.125 8.19768 2.125 8.19684 2.125 8.196C2.125 8.19516 2.125 8.19431 2.125 8.19347C2.125 8.19263 2.125 8.19179 2.125 8.19095C2.125 8.19011 2.125 8.18927 2.125 8.18842C2.125 8.18758 2.125 8.18674 2.125 8.1859C2.125 8.18506 2.125 8.18422 2.125 8.18338C2.125 8.18254 2.125 8.1817 2.125 8.18086C2.125 8.18002 2.125 8.17918 2.125 8.17834C2.125 8.1775 2.125 8.17666 2.125 8.17582C2.125 8.17498 2.125 8.17414 2.125 8.1733C2.125 8.17246 2.125 8.17162 2.125 8.17078C2.125 8.16995 2.125 8.16911 2.125 8.16827C2.125 8.16743 2.125 8.16659 2.125 8.16575C2.125 8.16491 2.125 8.16407 2.125 8.16324C2.125 8.1624 2.125 8.16156 2.125 8.16072C2.125 8.15988 2.125 8.15905 2.125 8.15821C2.125 8.15737 2.125 8.15653 2.125 8.1557C2.125 8.15486 2.125 8.15402 2.125 8.15318C2.125 8.15235 2.125 8.15151 2.125 8.15067C2.125 8.14984 2.125 8.149 2.125 8.14816C2.125 8.14733 2.125 8.14649 2.125 8.14565C2.125 8.14482 2.125 8.14398 2.125 8.14314C2.125 8.14231 2.125 8.14147 2.125 8.14064C2.125 8.1398 2.125 8.13896 2.125 8.13813C2.125 8.13729 2.125 8.13646 2.125 8.13562C2.125 8.13479 2.125 8.13395 2.125 8.13312C2.125 8.13228 2.125 8.13145 2.125 8.13061C2.125 8.12978 2.125 8.12894 2.125 8.12811C2.125 8.12727 2.125 8.12644 2.125 8.1256C2.125 8.12477 2.125 8.12394 2.125 8.1231C2.125 8.12227 2.125 8.12143 2.125 8.1206C2.125 8.11977 2.125 8.11893 2.125 8.1181C2.125 8.11727 2.125 8.11643 2.125 8.1156C2.125 8.11477 2.125 8.11393 2.125 8.1131C2.125 8.11227 2.125 8.11143 2.125 8.1106C2.125 8.10977 2.125 8.10894 2.125 8.1081C2.125 8.10727 2.125 8.10644 2.125 8.10561C2.125 8.10478 2.125 8.10394 2.125 8.10311C2.125 8.10228 2.125 8.10145 2.125 8.10062C2.125 8.09978 2.125 8.09895 2.125 8.09812C2.125 8.09729 2.125 8.09646 2.125 8.09563C2.125 8.0948 2.125 8.09397 2.125 8.09314C2.125 8.0923 2.125 8.09147 2.125 8.09064C2.125 8.08981 2.125 8.08898 2.125 8.08815C2.125 8.08732 2.125 8.08649 2.125 8.08566C2.125 8.08483 2.125 8.084 2.125 8.08317C2.125 8.08234 2.125 8.08151 2.125 8.08068C2.125 8.07985 2.125 8.07902 2.125 8.0782C2.125 8.07737 2.125 8.07654 2.125 8.07571C2.125 8.07488 2.125 8.07405 2.125 8.07322C2.125 8.07239 2.125 8.07156 2.125 8.07074C2.125 8.06991 2.125 8.06908 2.125 8.06825C2.125 8.06742 2.125 8.06659 2.125 8.06577C2.125 8.06494 2.125 8.06411 2.125 8.06328C2.125 8.06246 2.125 8.06163 2.125 8.0608C2.125 8.05997 2.125 8.05915 2.125 8.05832C2.125 8.05749 2.125 8.05667 2.125 8.05584C2.125 8.05501 2.125 8.05419 2.125 8.05336C2.125 8.05253 2.125 8.05171 2.125 8.05088C2.125 8.05005 2.125 8.04923 2.125 8.0484C2.125 8.04758 2.125 8.04675 2.125 8.04592C2.125 8.0451 2.125 8.04427 2.125 8.04345C2.125 8.04262 2.125 8.0418 2.125 8.04097C2.125 8.04015 2.125 8.03932 2.125 8.0385C2.125 8.03767 2.125 8.03685 2.125 8.03602C2.125 8.0352 2.125 8.03437 2.125 8.03355C2.125 8.03272 2.125 8.0319 2.125 8.03107C2.125 8.03025 2.125 8.02943 2.125 8.0286C2.125 8.02778 2.125 8.02695 2.125 8.02613C2.125 8.02531 2.125 8.02448 2.125 8.02366C2.125 8.02284 2.125 8.02201 2.125 8.02119C2.125 8.02037 2.125 8.01954 2.125 8.01872C2.125 8.0179 2.125 8.01708 2.125 8.01625C2.125 8.01543 2.125 8.01461 2.125 8.01379C2.125 8.01296 2.125 8.01214 2.125 8.01132C2.125 8.0105 2.125 8.00968 2.125 8.00885C2.125 8.00803 2.125 8.00721 2.125 8.00639C2.125 8.00557 2.125 8.00475 2.125 8.00393C2.125 8.0031 2.125 8.00228 2.125 8.00146C2.125 8.00064 2.125 7.99982 2.125 7.999C2.125 7.99818 2.125 7.99736 2.125 7.99654C2.125 7.99572 2.125 7.9949 2.125 7.99408C2.125 7.99326 2.125 7.99244 2.125 7.99162C2.125 7.9908 2.125 7.98998 2.125 7.98916C2.125 7.98834 2.125 7.98752 2.125 7.9867C2.125 7.98588 2.125 7.98506 2.125 7.98424C2.125 7.98342 2.125 7.9826 2.125 7.98178C2.125 7.98097 2.125 7.98015 2.125 7.97933C2.125 7.97851 2.125 7.97769 2.125 7.97687C2.125 7.97605 2.125 7.97524 2.125 7.97442C2.125 7.9736 2.125 7.97278 2.125 7.97196C2.125 7.97115 2.125 7.97033 2.125 7.96951C2.125 7.96869 2.125 7.96788 2.125 7.96706C2.125 7.96624 2.125 7.96542 2.125 7.96461C2.125 7.96379 2.125 7.96297 2.125 7.96216C2.125 7.96134 2.125 7.96052 2.125 7.95971C2.125 7.95889 2.125 7.95807 2.125 7.95726C2.125 7.95644 2.125 7.95563 2.125 7.95481C2.125 7.95399 2.125 7.95318 2.125 7.95236C2.125 7.95155 2.125 7.95073 2.125 7.94992C2.125 7.9491 2.125 7.94829 2.125 7.94747C2.125 7.94665 2.125 7.94584 2.125 7.94502C2.125 7.94421 2.125 7.9434 2.125 7.94258C2.125 7.94177 2.125 7.94095 2.125 7.94014C2.125 7.93932 2.125 7.93851 2.125 7.93769C2.125 7.93688 2.125 7.93607 2.125 7.93525C2.125 7.93444 2.125 7.93362 2.125 7.93281C2.125 7.932 2.125 7.93118 2.125 7.93037C2.125 7.92956 2.125 7.92874 2.125 7.92793C2.125 7.92712 2.125 7.92631 2.125 7.92549C2.125 7.92468 2.125 7.92387 2.125 7.92305C2.125 7.92224 2.125 7.92143 2.125 7.92062C2.125 7.91981 2.125 7.91899 2.125 7.91818C2.125 7.91737 2.125 7.91656 2.125 7.91575C2.125 7.91493 2.125 7.91412 2.125 7.91331C2.125 7.9125 2.125 7.91169 2.125 7.91088C2.125 7.91007 2.125 7.90925 2.125 7.90844C2.125 7.90763 2.125 7.90682 2.125 7.90601C2.125 7.9052 2.125 7.90439 2.125 7.90358C2.125 7.90277 2.125 7.90196 2.125 7.90115C2.125 7.90034 2.125 7.89953 2.125 7.89872C2.125 7.89791 2.125 7.8971 2.125 7.89629C2.125 7.89548 2.125 7.89467 2.125 7.89386C2.125 7.89305 2.125 7.89224 2.125 7.89143C2.125 7.89062 2.125 7.88982 2.125 7.88901C2.125 7.8882 2.125 7.88739 2.125 7.88658C2.125 7.88577 2.125 7.88496 2.125 7.88415C2.125 7.88335 2.125 7.88254 2.125 7.88173C2.125 7.88092 2.125 7.88011 2.125 7.87931C2.125 7.8785 2.125 7.87769 2.125 7.87688C2.125 7.87608 2.125 7.87527 2.125 7.87446C2.125 7.87365 2.125 7.87285 2.125 7.87204C2.125 7.87123 2.125 7.87043 2.125 7.86962C2.125 7.86881 2.125 7.86801 2.125 7.8672C2.125 7.86639 2.125 7.86559 2.125 7.86478C2.125 7.86397 2.125 7.86317 2.125 7.86236C2.125 7.86156 2.125 7.86075 2.125 7.85994C2.125 7.85914 2.125 7.85833 2.125 7.85753C2.125 7.85672 2.125 7.85592 2.125 7.85511C2.125 7.85431 2.125 7.8535 2.125 7.8527C2.125 7.85189 2.125 7.85109 2.125 7.85028C2.125 7.84948 2.125 7.84867 2.125 7.84787C2.125 7.84707 2.125 7.84626 2.125 7.84546C2.125 7.84465 2.125 7.84385 2.125 7.84304C2.125 7.84224 2.125 7.84144 2.125 7.84063C2.125 7.83983 2.125 7.83903 2.125 7.83822C2.125 7.83742 2.125 7.83662 2.125 7.83581C2.125 7.83501 2.125 7.83421 2.125 7.83341C2.125 7.8326 2.125 7.8318 2.125 7.831C2.125 7.83019 2.125 7.82939 2.125 7.82859C2.125 7.82779 2.125 7.82699 2.125 7.82618C2.125 7.82538 2.125 7.82458 2.125 7.82378C2.125 7.82298 2.125 7.82217 2.125 7.82137C2.125 7.82057 2.125 7.81977 2.125 7.81897C2.125 7.81817 2.125 7.81737 2.125 7.81657C2.125 7.81576 2.125 7.81496 2.125 7.81416C2.125 7.81336 2.125 7.81256 2.125 7.81176C2.125 7.81096 2.125 7.81016 2.125 7.80936C2.125 7.80856 2.125 7.80776 2.125 7.80696C2.125 7.80616 2.125 7.80536 2.125 7.80456C2.125 7.80376 2.125 7.80296 2.125 7.80216C2.125 7.80136 2.125 7.80056 2.125 7.79976C2.125 7.79897 2.125 7.79817 2.125 7.79737C2.125 7.79657 2.125 7.79577 2.125 7.79497C2.125 7.79417 2.125 7.79337 2.125 7.79258C2.125 7.79178 2.125 7.79098 2.125 7.79018C2.125 7.78938 2.125 7.78859 2.125 7.78779C2.125 7.78699 2.125 7.78619 2.125 7.78539C2.125 7.7846 2.125 7.7838 2.125 7.783C2.125 7.7822 2.125 7.78141 2.125 7.78061C2.125 7.77981 2.125 7.77902 2.125 7.77822C2.125 7.77742 2.125 7.77663 2.125 7.77583C2.125 7.77503 2.125 7.77424 2.125 7.77344C2.125 7.77264 2.125 7.77185 2.125 7.77105C2.125 7.77026 2.125 7.76946 2.125 7.76866C2.125 7.76787 2.125 7.76707 2.125 7.76628C2.125 7.76548 2.125 7.76469 2.125 7.76389C2.125 7.7631 2.125 7.7623 2.125 7.76151C2.125 7.76071 2.125 7.75992 2.125 7.75912C2.125 7.75833 2.125 7.75753 2.125 7.75674C2.125 7.75594 2.125 7.75515 2.125 7.75436C2.125 7.75356 2.125 7.75277 2.125 7.75197C2.125 7.75118 2.125 7.75039 2.125 7.74959C2.125 7.7488 2.125 7.748 2.125 7.74721C2.125 7.74642 2.125 7.74562 2.125 7.74483C2.125 7.74404 2.125 7.74325 2.125 7.74245C2.125 7.74166 2.125 7.74087 2.125 7.74007C2.125 7.73928 2.125 7.73849 2.125 7.7377C2.125 7.7369 2.125 7.73611 2.125 7.73532C2.125 7.73453 2.125 7.73374 2.125 7.73294C2.125 7.73215 2.125 7.73136 2.125 7.73057C2.125 7.72978 2.125 7.72899 2.125 7.72819C2.125 7.7274 2.125 7.72661 2.125 7.72582C2.125 7.72503 2.125 7.72424 2.125 7.72345C2.125 7.72266 2.125 7.72187 2.125 7.72108C2.125 7.72029 2.125 7.7195 2.125 7.71871C2.125 7.71791 2.125 7.71712 2.125 7.71633C2.125 7.71554 2.125 7.71475 2.125 7.71396C2.125 7.71318 2.125 7.71239 2.125 7.7116C2.125 7.71081 2.125 7.71002 2.125 7.70923C2.125 7.70844 2.125 7.70765 2.125 7.70686C2.125 7.70607 2.125 7.70528 2.125 7.70449C2.125 7.70371 2.125 7.70292 2.125 7.70213C2.125 7.70134 2.125 7.70055 2.125 7.69976C2.125 7.69898 2.125 7.69819 2.125 7.6974C2.125 7.69661 2.125 7.69582 2.125 7.69504C2.125 7.69425 2.125 7.69346 2.125 7.69267C2.125 7.69189 2.125 7.6911 2.125 7.69031C2.125 7.68952 2.125 7.68874 2.125 7.68795C2.125 7.68716 2.125 7.68638 2.125 7.68559C2.125 7.6848 2.125 7.68402 2.125 7.68323C2.125 7.68244 2.125 7.68166 2.125 7.68087H1.5H0.875C0.875 7.68166 0.875 7.68244 0.875 7.68323C0.875 7.68402 0.875 7.6848 0.875 7.68559C0.875 7.68638 0.875 7.68716 0.875 7.68795C0.875 7.68874 0.875 7.68952 0.875 7.69031C0.875 7.6911 0.875 7.69189 0.875 7.69267C0.875 7.69346 0.875 7.69425 0.875 7.69504C0.875 7.69582 0.875 7.69661 0.875 7.6974C0.875 7.69819 0.875 7.69898 0.875 7.69976C0.875 7.70055 0.875 7.70134 0.875 7.70213C0.875 7.70292 0.875 7.70371 0.875 7.70449C0.875 7.70528 0.875 7.70607 0.875 7.70686C0.875 7.70765 0.875 7.70844 0.875 7.70923C0.875 7.71002 0.875 7.71081 0.875 7.7116C0.875 7.71239 0.875 7.71318 0.875 7.71396C0.875 7.71475 0.875 7.71554 0.875 7.71633C0.875 7.71712 0.875 7.71791 0.875 7.71871C0.875 7.7195 0.875 7.72029 0.875 7.72108C0.875 7.72187 0.875 7.72266 0.875 7.72345C0.875 7.72424 0.875 7.72503 0.875 7.72582C0.875 7.72661 0.875 7.7274 0.875 7.72819C0.875 7.72899 0.875 7.72978 0.875 7.73057C0.875 7.73136 0.875 7.73215 0.875 7.73294C0.875 7.73374 0.875 7.73453 0.875 7.73532C0.875 7.73611 0.875 7.7369 0.875 7.7377C0.875 7.73849 0.875 7.73928 0.875 7.74007C0.875 7.74087 0.875 7.74166 0.875 7.74245C0.875 7.74325 0.875 7.74404 0.875 7.74483C0.875 7.74562 0.875 7.74642 0.875 7.74721C0.875 7.748 0.875 7.7488 0.875 7.74959C0.875 7.75039 0.875 7.75118 0.875 7.75197C0.875 7.75277 0.875 7.75356 0.875 7.75436C0.875 7.75515 0.875 7.75594 0.875 7.75674C0.875 7.75753 0.875 7.75833 0.875 7.75912C0.875 7.75992 0.875 7.76071 0.875 7.76151C0.875 7.7623 0.875 7.7631 0.875 7.76389C0.875 7.76469 0.875 7.76548 0.875 7.76628C0.875 7.76707 0.875 7.76787 0.875 7.76866C0.875 7.76946 0.875 7.77026 0.875 7.77105C0.875 7.77185 0.875 7.77264 0.875 7.77344C0.875 7.77424 0.875 7.77503 0.875 7.77583C0.875 7.77663 0.875 7.77742 0.875 7.77822C0.875 7.77902 0.875 7.77981 0.875 7.78061C0.875 7.78141 0.875 7.7822 0.875 7.783C0.875 7.7838 0.875 7.7846 0.875 7.78539C0.875 7.78619 0.875 7.78699 0.875 7.78779C0.875 7.78859 0.875 7.78938 0.875 7.79018C0.875 7.79098 0.875 7.79178 0.875 7.79258C0.875 7.79337 0.875 7.79417 0.875 7.79497C0.875 7.79577 0.875 7.79657 0.875 7.79737C0.875 7.79817 0.875 7.79897 0.875 7.79976C0.875 7.80056 0.875 7.80136 0.875 7.80216C0.875 7.80296 0.875 7.80376 0.875 7.80456C0.875 7.80536 0.875 7.80616 0.875 7.80696C0.875 7.80776 0.875 7.80856 0.875 7.80936C0.875 7.81016 0.875 7.81096 0.875 7.81176C0.875 7.81256 0.875 7.81336 0.875 7.81416C0.875 7.81496 0.875 7.81576 0.875 7.81657C0.875 7.81737 0.875 7.81817 0.875 7.81897C0.875 7.81977 0.875 7.82057 0.875 7.82137C0.875 7.82217 0.875 7.82298 0.875 7.82378C0.875 7.82458 0.875 7.82538 0.875 7.82618C0.875 7.82699 0.875 7.82779 0.875 7.82859C0.875 7.82939 0.875 7.83019 0.875 7.831C0.875 7.8318 0.875 7.8326 0.875 7.83341C0.875 7.83421 0.875 7.83501 0.875 7.83581C0.875 7.83662 0.875 7.83742 0.875 7.83822C0.875 7.83903 0.875 7.83983 0.875 7.84063C0.875 7.84144 0.875 7.84224 0.875 7.84304C0.875 7.84385 0.875 7.84465 0.875 7.84546C0.875 7.84626 0.875 7.84707 0.875 7.84787C0.875 7.84867 0.875 7.84948 0.875 7.85028C0.875 7.85109 0.875 7.85189 0.875 7.8527C0.875 7.8535 0.875 7.85431 0.875 7.85511C0.875 7.85592 0.875 7.85672 0.875 7.85753C0.875 7.85833 0.875 7.85914 0.875 7.85994C0.875 7.86075 0.875 7.86156 0.875 7.86236C0.875 7.86317 0.875 7.86397 0.875 7.86478C0.875 7.86559 0.875 7.86639 0.875 7.8672C0.875 7.86801 0.875 7.86881 0.875 7.86962C0.875 7.87043 0.875 7.87123 0.875 7.87204C0.875 7.87285 0.875 7.87365 0.875 7.87446C0.875 7.87527 0.875 7.87608 0.875 7.87688C0.875 7.87769 0.875 7.8785 0.875 7.87931C0.875 7.88011 0.875 7.88092 0.875 7.88173C0.875 7.88254 0.875 7.88335 0.875 7.88415C0.875 7.88496 0.875 7.88577 0.875 7.88658C0.875 7.88739 0.875 7.8882 0.875 7.88901C0.875 7.88982 0.875 7.89062 0.875 7.89143C0.875 7.89224 0.875 7.89305 0.875 7.89386C0.875 7.89467 0.875 7.89548 0.875 7.89629C0.875 7.8971 0.875 7.89791 0.875 7.89872C0.875 7.89953 0.875 7.90034 0.875 7.90115C0.875 7.90196 0.875 7.90277 0.875 7.90358C0.875 7.90439 0.875 7.9052 0.875 7.90601C0.875 7.90682 0.875 7.90763 0.875 7.90844C0.875 7.90925 0.875 7.91007 0.875 7.91088C0.875 7.91169 0.875 7.9125 0.875 7.91331C0.875 7.91412 0.875 7.91493 0.875 7.91575C0.875 7.91656 0.875 7.91737 0.875 7.91818C0.875 7.91899 0.875 7.91981 0.875 7.92062C0.875 7.92143 0.875 7.92224 0.875 7.92305C0.875 7.92387 0.875 7.92468 0.875 7.92549C0.875 7.92631 0.875 7.92712 0.875 7.92793C0.875 7.92874 0.875 7.92956 0.875 7.93037C0.875 7.93118 0.875 7.932 0.875 7.93281C0.875 7.93362 0.875 7.93444 0.875 7.93525C0.875 7.93607 0.875 7.93688 0.875 7.93769C0.875 7.93851 0.875 7.93932 0.875 7.94014C0.875 7.94095 0.875 7.94177 0.875 7.94258C0.875 7.9434 0.875 7.94421 0.875 7.94502C0.875 7.94584 0.875 7.94665 0.875 7.94747C0.875 7.94829 0.875 7.9491 0.875 7.94992C0.875 7.95073 0.875 7.95155 0.875 7.95236C0.875 7.95318 0.875 7.95399 0.875 7.95481C0.875 7.95563 0.875 7.95644 0.875 7.95726C0.875 7.95807 0.875 7.95889 0.875 7.95971C0.875 7.96052 0.875 7.96134 0.875 7.96216C0.875 7.96297 0.875 7.96379 0.875 7.96461C0.875 7.96542 0.875 7.96624 0.875 7.96706C0.875 7.96788 0.875 7.96869 0.875 7.96951C0.875 7.97033 0.875 7.97115 0.875 7.97196C0.875 7.97278 0.875 7.9736 0.875 7.97442C0.875 7.97524 0.875 7.97605 0.875 7.97687C0.875 7.97769 0.875 7.97851 0.875 7.97933C0.875 7.98015 0.875 7.98097 0.875 7.98178C0.875 7.9826 0.875 7.98342 0.875 7.98424C0.875 7.98506 0.875 7.98588 0.875 7.9867C0.875 7.98752 0.875 7.98834 0.875 7.98916C0.875 7.98998 0.875 7.9908 0.875 7.99162C0.875 7.99244 0.875 7.99326 0.875 7.99408C0.875 7.9949 0.875 7.99572 0.875 7.99654C0.875 7.99736 0.875 7.99818 0.875 7.999C0.875 7.99982 0.875 8.00064 0.875 8.00146C0.875 8.00228 0.875 8.0031 0.875 8.00393C0.875 8.00475 0.875 8.00557 0.875 8.00639C0.875 8.00721 0.875 8.00803 0.875 8.00885C0.875 8.00968 0.875 8.0105 0.875 8.01132C0.875 8.01214 0.875 8.01296 0.875 8.01379C0.875 8.01461 0.875 8.01543 0.875 8.01625C0.875 8.01708 0.875 8.0179 0.875 8.01872C0.875 8.01954 0.875 8.02037 0.875 8.02119C0.875 8.02201 0.875 8.02284 0.875 8.02366C0.875 8.02448 0.875 8.02531 0.875 8.02613C0.875 8.02695 0.875 8.02778 0.875 8.0286C0.875 8.02943 0.875 8.03025 0.875 8.03107C0.875 8.0319 0.875 8.03272 0.875 8.03355C0.875 8.03437 0.875 8.0352 0.875 8.03602C0.875 8.03685 0.875 8.03767 0.875 8.0385C0.875 8.03932 0.875 8.04015 0.875 8.04097C0.875 8.0418 0.875 8.04262 0.875 8.04345C0.875 8.04427 0.875 8.0451 0.875 8.04592C0.875 8.04675 0.875 8.04758 0.875 8.0484C0.875 8.04923 0.875 8.05005 0.875 8.05088C0.875 8.05171 0.875 8.05253 0.875 8.05336C0.875 8.05419 0.875 8.05501 0.875 8.05584C0.875 8.05667 0.875 8.05749 0.875 8.05832C0.875 8.05915 0.875 8.05997 0.875 8.0608C0.875 8.06163 0.875 8.06246 0.875 8.06328C0.875 8.06411 0.875 8.06494 0.875 8.06577C0.875 8.06659 0.875 8.06742 0.875 8.06825C0.875 8.06908 0.875 8.06991 0.875 8.07074C0.875 8.07156 0.875 8.07239 0.875 8.07322C0.875 8.07405 0.875 8.07488 0.875 8.07571C0.875 8.07654 0.875 8.07737 0.875 8.0782C0.875 8.07902 0.875 8.07985 0.875 8.08068C0.875 8.08151 0.875 8.08234 0.875 8.08317C0.875 8.084 0.875 8.08483 0.875 8.08566C0.875 8.08649 0.875 8.08732 0.875 8.08815C0.875 8.08898 0.875 8.08981 0.875 8.09064C0.875 8.09147 0.875 8.0923 0.875 8.09314C0.875 8.09397 0.875 8.0948 0.875 8.09563C0.875 8.09646 0.875 8.09729 0.875 8.09812C0.875 8.09895 0.875 8.09978 0.875 8.10062C0.875 8.10145 0.875 8.10228 0.875 8.10311C0.875 8.10394 0.875 8.10478 0.875 8.10561C0.875 8.10644 0.875 8.10727 0.875 8.1081C0.875 8.10894 0.875 8.10977 0.875 8.1106C0.875 8.11143 0.875 8.11227 0.875 8.1131C0.875 8.11393 0.875 8.11477 0.875 8.1156C0.875 8.11643 0.875 8.11727 0.875 8.1181C0.875 8.11893 0.875 8.11977 0.875 8.1206C0.875 8.12143 0.875 8.12227 0.875 8.1231C0.875 8.12394 0.875 8.12477 0.875 8.1256C0.875 8.12644 0.875 8.12727 0.875 8.12811C0.875 8.12894 0.875 8.12978 0.875 8.13061C0.875 8.13145 0.875 8.13228 0.875 8.13312C0.875 8.13395 0.875 8.13479 0.875 8.13562C0.875 8.13646 0.875 8.13729 0.875 8.13813C0.875 8.13896 0.875 8.1398 0.875 8.14064C0.875 8.14147 0.875 8.14231 0.875 8.14314C0.875 8.14398 0.875 8.14482 0.875 8.14565C0.875 8.14649 0.875 8.14733 0.875 8.14816C0.875 8.149 0.875 8.14984 0.875 8.15067C0.875 8.15151 0.875 8.15235 0.875 8.15318C0.875 8.15402 0.875 8.15486 0.875 8.1557C0.875 8.15653 0.875 8.15737 0.875 8.15821C0.875 8.15905 0.875 8.15988 0.875 8.16072C0.875 8.16156 0.875 8.1624 0.875 8.16324C0.875 8.16407 0.875 8.16491 0.875 8.16575C0.875 8.16659 0.875 8.16743 0.875 8.16827C0.875 8.16911 0.875 8.16995 0.875 8.17078C0.875 8.17162 0.875 8.17246 0.875 8.1733C0.875 8.17414 0.875 8.17498 0.875 8.17582C0.875 8.17666 0.875 8.1775 0.875 8.17834C0.875 8.17918 0.875 8.18002 0.875 8.18086C0.875 8.1817 0.875 8.18254 0.875 8.18338C0.875 8.18422 0.875 8.18506 0.875 8.1859C0.875 8.18674 0.875 8.18758 0.875 8.18842C0.875 8.18927 0.875 8.19011 0.875 8.19095C0.875 8.19179 0.875 8.19263 0.875 8.19347C0.875 8.19431 0.875 8.19516 0.875 8.196C0.875 8.19684 0.875 8.19768 0.875 8.19852C0.875 8.19936 0.875 8.20021 0.875 8.20105C0.875 8.20189 0.875 8.20273 0.875 8.20358C0.875 8.20442 0.875 8.20526 0.875 8.2061C0.875 8.20695 0.875 8.20779 0.875 8.20863C0.875 8.20948 0.875 8.21032 0.875 8.21116C0.875 8.21201 0.875 8.21285 0.875 8.21369C0.875 8.21454 0.875 8.21538 0.875 8.21623C0.875 8.21707 0.875 8.21791 0.875 8.21876C0.875 8.2196 0.875 8.22045 0.875 8.22129C0.875 8.22213 0.875 8.22298 0.875 8.22382C0.875 8.22467 0.875 8.22551 0.875 8.22636C0.875 8.2272 0.875 8.22805 0.875 8.22889C0.875 8.22974 0.875 8.23058 0.875 8.23143C0.875 8.23228 0.875 8.23312 0.875 8.23397C0.875 8.23481 0.875 8.23566 0.875 8.2365C0.875 8.23735 0.875 8.2382 0.875 8.23904C0.875 8.23989 0.875 8.24074 0.875 8.24158C0.875 8.24243 0.875 8.24328 0.875 8.24412C0.875 8.24497 0.875 8.24582 0.875 8.24666C0.875 8.24751 0.875 8.24836 0.875 8.24921C0.875 8.25005 0.875 8.2509 0.875 8.25175C0.875 8.2526 0.875 8.25344 0.875 8.25429C0.875 8.25514 0.875 8.25599 0.875 8.25684C0.875 8.25768 0.875 8.25853 0.875 8.25938C0.875 8.26023 0.875 8.26108 0.875 8.26193C0.875 8.26278 0.875 8.26362 0.875 8.26447C0.875 8.26532 0.875 8.26617 0.875 8.26702C0.875 8.26787 0.875 8.26872 0.875 8.26957C0.875 8.27042 0.875 8.27127 0.875 8.27212C0.875 8.27297 0.875 8.27382 0.875 8.27467C0.875 8.27552 0.875 8.27637 0.875 8.27722C0.875 8.27807 0.875 8.27892 0.875 8.27977C0.875 8.28062 0.875 8.28147 0.875 8.28232C0.875 8.28317 0.875 8.28402 0.875 8.28488C0.875 8.28573 0.875 8.28658 0.875 8.28743C0.875 8.28828 0.875 8.28913 0.875 8.28998C0.875 8.29084 0.875 8.29169 0.875 8.29254C0.875 8.29339 0.875 8.29424 0.875 8.2951C0.875 8.29595 0.875 8.2968 0.875 8.29765C0.875 8.29851 0.875 8.29936 0.875 8.30021C0.875 8.30106 0.875 8.30192 0.875 8.30277C0.875 8.30362 0.875 8.30448 0.875 8.30533C0.875 8.30618 0.875 8.30704 0.875 8.30789C0.875 8.30874 0.875 8.3096 0.875 8.31045C0.875 8.31131 0.875 8.31216 0.875 8.31301C0.875 8.31387 0.875 8.31472 0.875 8.31558C0.875 8.31643 0.875 8.31729 0.875 8.31814C0.875 8.31899 0.875 8.31985 0.875 8.3207C0.875 8.32156 0.875 8.32241 0.875 8.32327C0.875 8.32412 0.875 8.32498 0.875 8.32584C0.875 8.32669 0.875 8.32755 0.875 8.3284C0.875 8.32926 0.875 8.33011 0.875 8.33097C0.875 8.33183 0.875 8.33268 0.875 8.33354C0.875 8.3344 0.875 8.33525 0.875 8.33611C0.875 8.33696 0.875 8.33782 0.875 8.33868C0.875 8.33954 0.875 8.34039 0.875 8.34125C0.875 8.34211 0.875 8.34296 0.875 8.34382C0.875 8.34468 0.875 8.34554 0.875 8.34639C0.875 8.34725 0.875 8.34811 0.875 8.34897C0.875 8.34982 0.875 8.35068 0.875 8.35154C0.875 8.3524 0.875 8.35326 0.875 8.35412C0.875 8.35497 0.875 8.35583 0.875 8.35669C0.875 8.35755 0.875 8.35841 0.875 8.35927C0.875 8.36013 0.875 8.36099 0.875 8.36185C0.875 8.36271 0.875 8.36356 0.875 8.36442C0.875 8.36528 0.875 8.36614 0.875 8.367C0.875 8.36786 0.875 8.36872 0.875 8.36958C0.875 8.37044 0.875 8.3713 0.875 8.37216C0.875 8.37302 0.875 8.37388 0.875 8.37475C0.875 8.37561 0.875 8.37647 0.875 8.37733C0.875 8.37819 0.875 8.37905 0.875 8.37991C0.875 8.38077 0.875 8.38163 0.875 8.38249C0.875 8.38336 0.875 8.38422 0.875 8.38508C0.875 8.38594 0.875 8.3868 0.875 8.38766C0.875 8.38853 0.875 8.38939 0.875 8.39025C0.875 8.39111 0.875 8.39198 0.875 8.39284C0.875 8.3937 0.875 8.39456 0.875 8.39543C0.875 8.39629 0.875 8.39715 0.875 8.39802C0.875 8.39888 0.875 8.39974 0.875 8.4006C0.875 8.40147 0.875 8.40233 0.875 8.4032C0.875 8.40406 0.875 8.40492 0.875 8.40579C0.875 8.40665 0.875 8.40751 0.875 8.40838C0.875 8.40924 0.875 8.41011 0.875 8.41097C0.875 8.41184 0.875 8.4127 0.875 8.41357C0.875 8.41443 0.875 8.41529 0.875 8.41616C0.875 8.41702 0.875 8.41789 0.875 8.41876C0.875 8.41962 0.875 8.42049 0.875 8.42135C0.875 8.42222 0.875 8.42308 0.875 8.42395C0.875 8.42481 0.875 8.42568 0.875 8.42655C0.875 8.42741 0.875 8.42828 0.875 8.42914C0.875 8.43001 0.875 8.43088 0.875 8.43174C0.875 8.43261 0.875 8.43348 0.875 8.43434C0.875 8.43521 0.875 8.43608 0.875 8.43695C0.875 8.43781 0.875 8.43868 0.875 8.43955C0.875 8.44041 0.875 8.44128 0.875 8.44215C0.875 8.44302 0.875 8.44389 0.875 8.44475C0.875 8.44562 0.875 8.44649 0.875 8.44736C0.875 8.44823 0.875 8.44909 0.875 8.44996C0.875 8.45083 0.875 8.4517 0.875 8.45257C0.875 8.45344 0.875 8.45431 0.875 8.45518C0.875 8.45604 0.875 8.45691 0.875 8.45778C0.875 8.45865 0.875 8.45952 0.875 8.46039C0.875 8.46126 0.875 8.46213 0.875 8.463C0.875 8.46387 0.875 8.46474 0.875 8.46561C0.875 8.46648 0.875 8.46735 0.875 8.46822C0.875 8.46909 0.875 8.46996 0.875 8.47083C0.875 8.4717 0.875 8.47258 0.875 8.47345C0.875 8.47432 0.875 8.47519 0.875 8.47606C0.875 8.47693 0.875 8.4778 0.875 8.47867C0.875 8.47954 0.875 8.48042 0.875 8.48129C0.875 8.48216 0.875 8.48303 0.875 8.4839C0.875 8.48478 0.875 8.48565 0.875 8.48652C0.875 8.48739 0.875 8.48827 0.875 8.48914C0.875 8.49001 0.875 8.49088 0.875 8.49176C0.875 8.49263 0.875 8.4935 0.875 8.49438C0.875 8.49525 0.875 8.49612 0.875 8.497C0.875 8.49787 0.875 8.49874 0.875 8.49962C0.875 8.50049 0.875 8.50136 0.875 8.50224C0.875 8.50311 0.875 8.50399 0.875 8.50486C0.875 8.50573 0.875 8.50661 0.875 8.50748C0.875 8.50836 0.875 8.50923 0.875 8.51011C0.875 8.51098 0.875 8.51186 0.875 8.51273C0.875 8.51361 0.875 8.51448 0.875 8.51536C0.875 8.51623 0.875 8.51711 0.875 8.51798C0.875 8.51886 0.875 8.51974 0.875 8.52061C0.875 8.52149 0.875 8.52236 0.875 8.52324C0.875 8.52412 0.875 8.52499 0.875 8.52587C0.875 8.52674 0.875 8.52762 0.875 8.5285C0.875 8.52937 0.875 8.53025 0.875 8.53113C0.875 8.53201 0.875 8.53288 0.875 8.53376C0.875 8.53464 0.875 8.53551 0.875 8.53639C0.875 8.53727 0.875 8.53815 0.875 8.53902C0.875 8.5399 0.875 8.54078 0.875 8.54166C0.875 8.54254 0.875 8.54341 0.875 8.54429C0.875 8.54517 0.875 8.54605 0.875 8.54693C0.875 8.54781 0.875 8.54869 0.875 8.54956C0.875 8.55044 0.875 8.55132 0.875 8.5522C0.875 8.55308 0.875 8.55396 0.875 8.55484C0.875 8.55572 0.875 8.5566 0.875 8.55748C0.875 8.55836 0.875 8.55924 0.875 8.56012C0.875 8.561 0.875 8.56188 0.875 8.56276C0.875 8.56364 0.875 8.56452 0.875 8.5654C0.875 8.56628 0.875 8.56716 0.875 8.56804C0.875 8.56892 0.875 8.5698 0.875 8.57068C0.875 8.57157 0.875 8.57245 0.875 8.57333C0.875 8.57421 0.875 8.57509 0.875 8.57597C0.875 8.57685 0.875 8.57774 0.875 8.57862C0.875 8.5795 0.875 8.58038 0.875 8.58126C0.875 8.58215 0.875 8.58303 0.875 8.58391C0.875 8.58479 0.875 8.58568 0.875 8.58656C0.875 8.58744 0.875 8.58832 0.875 8.58921C0.875 8.59009 0.875 8.59097 0.875 8.59186C0.875 8.59274 0.875 8.59362 0.875 8.59451C0.875 8.59539 0.875 8.59627 0.875 8.59716C0.875 8.59804 0.875 8.59893 0.875 8.59981C0.875 8.60069 0.875 8.60158 0.875 8.60246C0.875 8.60335 0.875 8.60423 0.875 8.60512C0.875 8.606 0.875 8.60689 0.875 8.60777C0.875 8.60866 0.875 8.60954 0.875 8.61043C0.875 8.61131 0.875 8.6122 0.875 8.61308C0.875 8.61397 0.875 8.61485 0.875 8.61574C0.875 8.61662 0.875 8.61751 0.875 8.6184C0.875 8.61928 0.875 8.62017 0.875 8.62106C0.875 8.62194 0.875 8.62283 0.875 8.62371C0.875 8.6246 0.875 8.62549 0.875 8.62637C0.875 8.62726 0.875 8.62815 0.875 8.62904C0.875 8.62992 0.875 8.63081 0.875 8.6317C0.875 8.63258 0.875 8.63347 0.875 8.63436C0.875 8.63525 0.875 8.63614 0.875 8.63702C0.875 8.63791 0.875 8.6388 0.875 8.63969C0.875 8.64058 0.875 8.64146 0.875 8.64235C0.875 8.64324 0.875 8.64413 0.875 8.64502C0.875 8.64591 0.875 8.6468 0.875 8.64769C0.875 8.64857 0.875 8.64946 0.875 8.65035C0.875 8.65124 0.875 8.65213 0.875 8.65302C0.875 8.65391 0.875 8.6548 0.875 8.65569C0.875 8.65658 0.875 8.65747 0.875 8.65836C0.875 8.65925 0.875 8.66014 0.875 8.66103C0.875 8.66192 0.875 8.66281 0.875 8.6637C0.875 8.66459 0.875 8.66548 0.875 8.66638C0.875 8.66727 0.875 8.66816 0.875 8.66905C0.875 8.66994 0.875 8.67083 0.875 8.67172C0.875 8.67262 0.875 8.67351 0.875 8.6744C0.875 8.67529 0.875 8.67618 0.875 8.67707C0.875 8.67797 0.875 8.67886 0.875 8.67975C0.875 8.68064 0.875 8.68154 0.875 8.68243C0.875 8.68332 0.875 8.68421 0.875 8.68511C0.875 8.686 0.875 8.68689 0.875 8.68779C0.875 8.68868 0.875 8.68957 0.875 8.69047C0.875 8.69136 0.875 8.69225 0.875 8.69315C0.875 8.69404 0.875 8.69493 0.875 8.69583C0.875 8.69672 0.875 8.69762 0.875 8.69851C0.875 8.69941 0.875 8.7003 0.875 8.70119C0.875 8.70209 0.875 8.70298 0.875 8.70388C0.875 8.70477 0.875 8.70567 0.875 8.70656C0.875 8.70746 0.875 8.70835 0.875 8.70925C0.875 8.71014 0.875 8.71104 0.875 8.71194C0.875 8.71283 0.875 8.71373 0.875 8.71462C0.875 8.71552 0.875 8.71642 0.875 8.71731C0.875 8.71821 0.875 8.7191 0.875 8.72C0.875 8.7209 0.875 8.72179 0.875 8.72269C0.875 8.72359 0.875 8.72448 0.875 8.72538C0.875 8.72628 0.875 8.72718 0.875 8.72807C0.875 8.72897 0.875 8.72987 0.875 8.73077C0.875 8.73166 0.875 8.73256 0.875 8.73346C0.875 8.73436 0.875 8.73525 0.875 8.73615C0.875 8.73705 0.875 8.73795 0.875 8.73885C0.875 8.73975 0.875 8.74064 0.875 8.74154C0.875 8.74244 0.875 8.74334 0.875 8.74424C0.875 8.74514 0.875 8.74604 0.875 8.74694C0.875 8.74784 0.875 8.74874 0.875 8.74964C0.875 8.75054 0.875 8.75144 0.875 8.75233C0.875 8.75323 0.875 8.75413 0.875 8.75503C0.875 8.75593 0.875 8.75684 0.875 8.75774C0.875 8.75864 0.875 8.75954 0.875 8.76044C0.875 8.76134 0.875 8.76224 0.875 8.76314C0.875 8.76404 0.875 8.76494 0.875 8.76584C0.875 8.76674 0.875 8.76765 0.875 8.76855C0.875 8.76945 0.875 8.77035 0.875 8.77125C0.875 8.77215 0.875 8.77306 0.875 8.77396C0.875 8.77486 0.875 8.77576 0.875 8.77666C0.875 8.77757 0.875 8.77847 0.875 8.77937C0.875 8.78027 0.875 8.78118 0.875 8.78208C0.875 8.78298 0.875 8.78389 0.875 8.78479C0.875 8.78569 0.875 8.7866 0.875 8.7875C0.875 8.7884 0.875 8.78931 0.875 8.79021C0.875 8.79111 0.875 8.79202 0.875 8.79292C0.875 8.79383 0.875 8.79473 0.875 8.79563C0.875 8.79654 0.875 8.79744 0.875 8.79835C0.875 8.79925 0.875 8.80016 0.875 8.80106C0.875 8.80197 0.875 8.80287 0.875 8.80378C0.875 8.80468 0.875 8.80559 0.875 8.80649C0.875 8.8074 0.875 8.8083 0.875 8.80921C0.875 8.81011 0.875 8.81102 0.875 8.81193C0.875 8.81283 0.875 8.81374 0.875 8.81464C0.875 8.81555 0.875 8.81646 0.875 8.81736C0.875 8.81827 0.875 8.81918 0.875 8.82008C0.875 8.82099 0.875 8.8219 0.875 8.8228C0.875 8.82371 0.875 8.82462 0.875 8.82552C0.875 8.82643 0.875 8.82734 0.875 8.82825C0.875 8.82915 0.875 8.83006 0.875 8.83097C0.875 8.83188 0.875 8.83279 0.875 8.83369C0.875 8.8346 0.875 8.83551 0.875 8.83642C0.875 8.83733 0.875 8.83824 0.875 8.83915C0.875 8.84005 0.875 8.84096 0.875 8.84187C0.875 8.84278 0.875 8.84369 0.875 8.8446C0.875 8.84551 0.875 8.84642 0.875 8.84733C0.875 8.84824 0.875 8.84915 0.875 8.85006C0.875 8.85097 0.875 8.85188 0.875 8.85279C0.875 8.8537 0.875 8.85461 0.875 8.85552C0.875 8.85643 0.875 8.85734 0.875 8.85825C0.875 8.85916 0.875 8.86007 0.875 8.86098C0.875 8.86189 0.875 8.8628 0.875 8.86371C0.875 8.86463 0.875 8.86554 0.875 8.86645C0.875 8.86736 0.875 8.86827 0.875 8.86918C0.875 8.8701 0.875 8.87101 0.875 8.87192C0.875 8.87283 0.875 8.87374 0.875 8.87466C0.875 8.87557 0.875 8.87648 0.875 8.87739C0.875 8.87831 0.875 8.87922 0.875 8.88013C0.875 8.88104 0.875 8.88196 0.875 8.88287C0.875 8.88378 0.875 8.8847 0.875 8.88561C0.875 8.88652 0.875 8.88744 0.875 8.88835C0.875 8.88927 0.875 8.89018 0.875 8.89109C0.875 8.89201 0.875 8.89292 0.875 8.89384C0.875 8.89475 0.875 8.89566 0.875 8.89658C0.875 8.89749 0.875 8.89841 0.875 8.89932C0.875 8.90024 0.875 8.90115 0.875 8.90207C0.875 8.90298 0.875 8.9039 0.875 8.90481C0.875 8.90573 0.875 8.90665 0.875 8.90756C0.875 8.90848 0.875 8.90939 0.875 8.91031C0.875 8.91122 0.875 8.91214 0.875 8.91306C0.875 8.91397 0.875 8.91489 0.875 8.91581C0.875 8.91672 0.875 8.91764 0.875 8.91856C0.875 8.91947 0.875 8.92039 0.875 8.92131C0.875 8.92222 0.875 8.92314 0.875 8.92406C0.875 8.92498 0.875 8.92589 0.875 8.92681C0.875 8.92773 0.875 8.92865 0.875 8.92956C0.875 8.93048 0.875 8.9314 0.875 8.93232C0.875 8.93324 0.875 8.93416 0.875 8.93507C0.875 8.93599 0.875 8.93691 0.875 8.93783C0.875 8.93875 0.875 8.93967 0.875 8.94059C0.875 8.94151 0.875 8.94242 0.875 8.94334C0.875 8.94426 0.875 8.94518 0.875 8.9461C0.875 8.94702 0.875 8.94794 0.875 8.94886C0.875 8.94978 0.875 8.9507 0.875 8.95162C0.875 8.95254 0.875 8.95346 0.875 8.95438C0.875 8.9553 0.875 8.95622 0.875 8.95714C0.875 8.95807 0.875 8.95899 0.875 8.95991C0.875 8.96083 0.875 8.96175 0.875 8.96267C0.875 8.96359 0.875 8.96451 0.875 8.96543C0.875 8.96636 0.875 8.96728 0.875 8.9682C0.875 8.96912 0.875 8.97004 0.875 8.97097C0.875 8.97189 0.875 8.97281 0.875 8.97373C0.875 8.97466 0.875 8.97558 0.875 8.9765C0.875 8.97742 0.875 8.97835 0.875 8.97927C0.875 8.98019 0.875 8.98112 0.875 8.98204C0.875 8.98296 0.875 8.98389 0.875 8.98481C0.875 8.98573 0.875 8.98666 0.875 8.98758C0.875 8.9885 0.875 8.98943 0.875 8.99035C0.875 8.99128 0.875 8.9922 0.875 8.99312H1.5ZM5.88743 1.50099L6.08984 2.0923L6.56718 1.92891L6.36477 1.33759L6.16236 0.746273L5.68502 0.909669L5.88743 1.50099ZM11.6352 1.33759L11.4328 1.92891L11.9102 2.0923L12.1126 1.50099L12.315 0.90967L11.8376 0.746273L11.6352 1.33759ZM10.7512 16.9397L10.501 16.367C10.1914 16.5022 10.0127 16.5788 9.81367 16.6297C9.6236 16.6784 9.39167 16.7087 9 16.7087L9 17.3337L9 17.9587C9.45772 17.9587 9.80078 17.9233 10.1237 17.8406C10.4376 17.7603 10.7097 17.6399 11.0014 17.5125L10.7512 16.9397ZM7.2488 16.9397L6.99861 17.5125C7.29026 17.6399 7.5624 17.7603 7.87634 17.8406C8.19922 17.9233 8.54228 17.9587 9 17.9587L9 17.3337L9 16.7087C8.60833 16.7087 8.3764 16.6784 8.18633 16.6297C7.98732 16.5788 7.80856 16.5022 7.49899 16.367L7.2488 16.9397ZM16.5 7.68087H17.125C17.125 6.35649 17.1252 5.33651 17.0848 4.59313C17.0645 4.22085 17.0331 3.89662 16.981 3.62634C16.9309 3.36636 16.8512 3.09629 16.697 2.87661L16.1854 3.23567L15.6738 3.59472C15.6724 3.59264 15.6836 3.60837 15.7005 3.65577C15.7171 3.70253 15.7356 3.76957 15.7536 3.86287C15.79 4.05174 15.8175 4.31117 15.8366 4.66109C15.8748 5.36208 15.875 6.3406 15.875 7.68087H16.5ZM12.1126 1.50099L11.9102 2.0923C13.1707 2.52377 14.0899 2.8387 14.7353 3.1009C15.0575 3.23177 15.2909 3.34145 15.4548 3.4366C15.5356 3.48358 15.5914 3.52234 15.6286 3.5526C15.6663 3.58322 15.6761 3.59799 15.6738 3.59472L16.1854 3.23567L16.697 2.87661C16.541 2.65436 16.3114 2.48858 16.0825 2.35566C15.8447 2.21755 15.5493 2.08238 15.2058 1.94281C14.5198 1.66414 13.56 1.33584 12.315 0.90967L12.1126 1.50099ZM6.36477 1.33759L6.56718 1.92891C7.91262 1.46836 8.45188 1.29199 9 1.29199V0.666992V0.0419922C8.1958 0.0419922 7.42901 0.312693 6.16236 0.746273L6.36477 1.33759ZM11.6352 1.33759L11.8376 0.746273C10.571 0.312693 9.8042 0.0419922 9 0.0419922V0.666992V1.29199C9.54812 1.29199 10.0874 1.46836 11.4328 1.92891L11.6352 1.33759ZM1.5 7.68087H2.125C2.125 6.3406 2.12523 5.36208 2.1634 4.66109C2.18245 4.31117 2.21003 4.05174 2.24643 3.86287C2.26441 3.76957 2.28287 3.70253 2.29952 3.65577C2.31641 3.60837 2.32763 3.59264 2.32617 3.59472L1.8146 3.23567L1.30303 2.87661C1.14884 3.09629 1.06911 3.36636 1.01901 3.62634C0.966927 3.89662 0.93552 4.22085 0.915249 4.59313C0.87477 5.33651 0.875 6.35649 0.875 7.68087H1.5ZM5.88743 1.50099L5.68502 0.909669C4.44002 1.33583 3.48017 1.66414 2.79419 1.94281C2.45065 2.08237 2.15531 2.21755 1.91748 2.35566C1.68862 2.48858 1.45902 2.65436 1.30303 2.87661L1.8146 3.23567L2.32617 3.59472C2.32387 3.59799 2.33371 3.58322 2.37139 3.5526C2.40861 3.52234 2.46435 3.48358 2.54524 3.4366C2.70908 3.34145 2.9425 3.23177 3.26466 3.1009C3.91008 2.8387 4.82934 2.52377 6.08984 2.0923L5.88743 1.50099ZM10.2498 9.91515L9.93729 9.37388C9.04069 9.89153 7.89422 9.58434 7.37656 8.68774L6.8353 9.00024L6.29403 9.31274C7.15686 10.8072 9.06783 11.3192 10.5623 10.4564L10.2498 9.91515ZM6.8353 9.00024L7.37656 8.68774C6.85891 7.79114 7.16611 6.64466 8.06271 6.12701L7.75021 5.58574L7.43771 5.04448C5.94324 5.90731 5.4312 7.81827 6.29403 9.31274L6.8353 9.00024ZM7.75021 5.58574L8.06271 6.12701C8.4288 5.91565 8.83477 5.84197 9.22369 5.88911L9.2989 5.26865L9.3741 4.64819C8.72565 4.56959 8.04626 4.69313 7.43771 5.04448L7.75021 5.58574ZM9.2989 5.26865L9.22369 5.88911C9.79076 5.95785 10.317 6.28237 10.6234 6.81315L11.1647 6.50065L11.706 6.18815C11.1946 5.30251 10.3146 4.7622 9.3741 4.64819L9.2989 5.26865ZM11.1647 6.50065L10.6234 6.81315C10.9299 7.34393 10.9478 7.96193 10.7238 8.48739L11.2987 8.73249L11.8737 8.97759C12.2452 8.10607 12.2173 7.0738 11.706 6.18815L11.1647 6.50065ZM11.2987 8.73249L10.7238 8.48739C10.5702 8.84778 10.3034 9.16252 9.93729 9.37388L10.2498 9.91515L10.5623 10.4564C11.1708 10.1051 11.6175 9.57847 11.8737 8.97759L11.2987 8.73249ZM9 10.2504H8.375V12.7504H9H9.625V10.2504H9Z" fill="#B58C43"/>
</svg>
