<svg width="20" height="20" viewBox="0 0 20 20" fill="none" xmlns="http://www.w3.org/2000/svg">
<g clip-path="url(#clip0_1215_1434)">
<path d="M6.34766 0.25H13.3965L19.25 6.10352V17.3965C19.2499 18.6823 18.1317 19.75 16.7197 19.75H6.28516C4.86758 19.75 3.75011 18.682 3.75 17.3965V2.60352C3.75006 1.32482 4.92261 0.25 6.34766 0.25Z" fill="white" stroke="#DBDBDB" stroke-width="0.5"/>
<path d="M13.5128 4.08V0L19.5 6H15.5085C13.7124 6 13.4297 4.72 13.5128 4.08Z" fill="#D4D4D8"/>
<rect x="0.5" y="9.5" width="13" height="7" rx="1.5" fill="#D92D20"/>
<path d="M2.87453 14.5V11.2273H4.16573C4.41395 11.2273 4.62542 11.2747 4.80014 11.3695C4.97485 11.4632 5.10802 11.5937 5.19964 11.761C5.29233 11.9272 5.33867 12.119 5.33867 12.3363C5.33867 12.5536 5.29179 12.7454 5.19804 12.9116C5.10429 13.0778 4.96846 13.2072 4.79055 13.2999C4.6137 13.3926 4.39957 13.4389 4.14815 13.4389H3.32517V12.8844H4.03629C4.16946 12.8844 4.27919 12.8615 4.36548 12.8157C4.45284 12.7688 4.51782 12.7044 4.56044 12.6223C4.60411 12.5392 4.62595 12.4439 4.62595 12.3363C4.62595 12.2276 4.60411 12.1328 4.56044 12.0518C4.51782 11.9698 4.45284 11.9064 4.36548 11.8617C4.27812 11.8159 4.16733 11.793 4.03309 11.793H3.56647V14.5H2.87453ZM6.94826 14.5H5.78811V11.2273H6.95785C7.28704 11.2273 7.57042 11.2928 7.80799 11.4238C8.04557 11.5538 8.22827 11.7408 8.35611 11.9847C8.48502 12.2287 8.54947 12.5206 8.54947 12.8604C8.54947 13.2013 8.48502 13.4943 8.35611 13.7393C8.22827 13.9844 8.0445 14.1724 7.8048 14.3034C7.56616 14.4345 7.28065 14.5 6.94826 14.5ZM6.48005 13.9071H6.9195C7.12405 13.9071 7.2961 13.8709 7.43566 13.7985C7.57628 13.725 7.68175 13.6115 7.75206 13.4581C7.82344 13.3036 7.85913 13.1044 7.85913 12.8604C7.85913 12.6186 7.82344 12.421 7.75206 12.2676C7.68175 12.1142 7.57682 12.0012 7.43726 11.9288C7.2977 11.8564 7.12564 11.8201 6.9211 11.8201H6.48005V13.9071ZM9.06203 14.5V11.2273H11.2289V11.7978H9.75397V12.5776H11.0851V13.1481H9.75397V14.5H9.06203Z" fill="white"/>
</g>
<defs>
<clipPath id="clip0_1215_1434">
<rect width="20" height="20" fill="white"/>
</clipPath>
</defs>
</svg>
