<svg width="16" height="22" viewBox="0 0 16 22" fill="none" xmlns="http://www.w3.org/2000/svg">
<path d="M6.15277 6.43841L6.31828 7.16992L6.31828 7.16992L6.15277 6.43841ZM6.79764 5.94887L6.14255 5.58369L6.14255 5.58369L6.79764 5.94887ZM5.43403 8.17898L4.86403 8.66642L4.86403 8.66642L5.43403 8.17898ZM5.96186 6.48161L5.79635 5.7501L5.79635 5.7501L5.96186 6.48161ZM5.8105 9.12327L6.557 9.19561V9.1956L5.8105 9.12327ZM5.56418 8.33117L6.13418 7.84372L6.13417 7.84372L5.56418 8.33117ZM7.1727 10.3754L7.48637 11.0566L7.48638 11.0566L7.1727 10.3754ZM5.79082 9.32632L5.04432 9.25398V9.25398L5.79082 9.32632ZM8.14855 10.2931L8.46223 9.6118L8.46223 9.61179L8.14855 10.2931ZM7.35145 10.2931L7.03777 9.61179L7.03777 9.6118L7.35145 10.2931ZM7.75 10.1575V9.40746V10.1575ZM9.70918 9.32632L8.96268 9.39866L9.70918 9.32632ZM8.3273 10.3754L8.01362 11.0566L8.01363 11.0566L8.3273 10.3754ZM9.93582 8.33117L9.36583 7.84372L9.36582 7.84372L9.93582 8.33117ZM9.6895 9.12327L10.436 9.05093L9.6895 9.12327ZM9.53814 6.48161L9.70365 5.7501L9.70365 5.7501L9.53814 6.48161ZM10.066 8.17898L10.636 8.66642L10.636 8.66642L10.066 8.17898ZM8.70236 5.94887L8.04727 6.31405L8.04727 6.31405L8.70236 5.94887ZM9.34723 6.43841L9.18172 7.16992L9.18172 7.16992L9.34723 6.43841ZM8.60405 5.77251L9.25914 5.40734V5.40734L8.60405 5.77251ZM6.89595 5.77251L7.55104 6.13769L7.55104 6.13769L6.89595 5.77251ZM7.75 4.75V4V4.75ZM3.82442 13.9483C3.93394 13.5488 3.69889 13.1362 3.29942 13.0267C2.89994 12.9172 2.48732 13.1522 2.3778 13.5517L3.10111 13.75L3.82442 13.9483ZM2.46424 16.073L1.74093 15.8747L2.46424 16.073ZM13.0358 16.073L12.3125 16.2713L13.0358 16.073ZM13.1222 13.5517C13.0127 13.1522 12.6001 12.9172 12.2006 13.0267C11.8011 13.1362 11.5661 13.5488 11.6756 13.9483L12.3989 13.75L13.1222 13.5517ZM6.18933 19.408L6.5359 20.0731H6.5359L6.18933 19.408ZM7.55143 18.8459L7.6309 19.5917H7.6309L7.55143 18.8459ZM9.31067 19.408L9.65724 18.7428L9.31067 19.408ZM7.94857 18.8459L7.8691 19.5917H7.8691L7.94857 18.8459ZM13.559 20.1381L14.1826 20.5548L14.1826 20.5548L13.559 20.1381ZM12.9863 20.6508L13.3266 21.3192H13.3266L12.9863 20.6508ZM1.94097 20.1381L1.31741 20.5548H1.31741L1.94097 20.1381ZM2.51372 20.6508L2.17341 21.3192H2.17341L2.51372 20.6508ZM8.60405 5.77251L7.94896 6.13769L8.04727 6.31405L8.70236 5.94887L9.35745 5.58369L9.25914 5.40734L8.60405 5.77251ZM9.34723 6.43841L9.18172 7.16992L9.37263 7.21312L9.53814 6.48161L9.70365 5.7501L9.51274 5.7069L9.34723 6.43841ZM10.066 8.17898L9.49597 7.69153L9.36583 7.84372L9.93582 8.33117L10.5058 8.81861L10.636 8.66642L10.066 8.17898ZM9.6895 9.12327L8.943 9.1956L8.96268 9.39866L9.70918 9.32632L10.4557 9.25398L10.436 9.05093L9.6895 9.12327ZM8.3273 10.3754L8.64097 9.6941L8.46223 9.6118L8.14855 10.2931L7.83488 10.9743L8.01362 11.0566L8.3273 10.3754ZM7.35145 10.2931L7.03777 9.6118L6.85903 9.6941L7.1727 10.3754L7.48638 11.0566L7.66512 10.9743L7.35145 10.2931ZM5.79082 9.32632L6.53732 9.39866L6.557 9.19561L5.8105 9.12327L5.06399 9.05093L5.04432 9.25398L5.79082 9.32632ZM5.56418 8.33117L6.13417 7.84372L6.00403 7.69153L5.43403 8.17898L4.86403 8.66642L4.99418 8.81861L5.56418 8.33117ZM5.96186 6.48161L6.12737 7.21312L6.31828 7.16992L6.15277 6.43841L5.98726 5.7069L5.79635 5.7501L5.96186 6.48161ZM6.79764 5.94887L7.45273 6.31405L7.55104 6.13769L6.89595 5.77251L6.24086 5.40734L6.14255 5.58369L6.79764 5.94887ZM6.15277 6.43841L6.31828 7.16992C6.4635 7.13707 6.76142 7.0856 7.00497 6.90071L6.55148 6.30334L6.098 5.70597C6.1204 5.68897 6.14196 5.67657 6.15907 5.66837C6.17445 5.661 6.18167 5.65924 6.17363 5.66177C6.16481 5.66455 6.1475 5.66948 6.11424 5.67757C6.08078 5.68572 6.04139 5.69466 5.98725 5.70691L6.15277 6.43841ZM6.79764 5.94887L6.14255 5.58369C6.11474 5.63357 6.09415 5.67048 6.07606 5.70179C6.05805 5.73295 6.04743 5.74999 6.04113 5.75946C6.03046 5.7755 6.05 5.74241 6.098 5.70597L6.55148 6.30334L7.00497 6.90071C7.24381 6.7194 7.37735 6.44928 7.45273 6.31405L6.79764 5.94887ZM5.43403 8.17898L6.00403 7.69154C5.7364 7.37858 5.59227 7.20705 5.51377 7.08235C5.44037 6.96575 5.53734 7.06357 5.4834 7.23703L4.76723 7.01432L4.05106 6.79161C3.90934 7.24734 4.08817 7.63336 4.24436 7.88146C4.39544 8.12146 4.62861 8.39112 4.86403 8.66642L5.43403 8.17898ZM5.96186 6.48161L5.79635 5.7501C5.45288 5.82781 5.10777 5.9037 4.84576 6.00695C4.56962 6.11577 4.19532 6.3277 4.05106 6.79161L4.76723 7.01432L5.4834 7.23703C5.46027 7.31139 5.41552 7.37039 5.37535 7.40483C5.34639 7.42966 5.33954 7.42463 5.39573 7.40249C5.45028 7.38099 5.53317 7.35514 5.66197 7.32222C5.78953 7.28962 5.93984 7.25555 6.12737 7.21312L5.96186 6.48161ZM5.8105 9.12327L6.557 9.1956C6.57255 9.03512 6.61451 8.74423 6.52693 8.46261L5.81076 8.68531L5.09459 8.90802C5.0786 8.85661 5.08137 8.82327 5.08094 8.84432C5.08069 8.85676 5.07965 8.87772 5.07667 8.91419C5.07367 8.95085 5.06955 8.99356 5.06399 9.05093L5.8105 9.12327ZM5.56418 8.33117L4.99418 8.81861C5.031 8.86167 5.05814 8.89343 5.08095 8.92097C5.10362 8.94833 5.1157 8.96397 5.12227 8.97302C5.12839 8.98144 5.1251 8.97786 5.11842 8.96546C5.1109 8.95148 5.10196 8.93174 5.09459 8.90802L5.81076 8.68531L6.52693 8.46261C6.43836 8.17779 6.23663 7.96353 6.13418 7.84372L5.56418 8.33117ZM7.1727 10.3754L6.85903 9.69409C6.68348 9.77493 6.54256 9.83974 6.42087 9.89177C6.29787 9.94436 6.21619 9.97437 6.16013 9.99043C6.10172 10.0072 6.10732 9.99787 6.15029 10.0005C6.20978 10.0042 6.28981 10.0274 6.36003 10.0807L5.90654 10.6781L5.45306 11.2754C5.85247 11.5786 6.29358 11.5126 6.5733 11.4324C6.84339 11.355 7.16485 11.2046 7.48637 11.0566L7.1727 10.3754ZM5.79082 9.32632L5.04432 9.25398C5.00862 9.62233 4.97207 9.98048 4.98473 10.2645C4.99743 10.5497 5.06589 10.9815 5.45306 11.2754L5.90654 10.6781L6.36003 10.0807C6.51739 10.2002 6.48996 10.3485 6.48324 10.1977C6.47647 10.0457 6.49696 9.81517 6.53732 9.39866L5.79082 9.32632ZM8.14855 10.2931L8.46223 9.61179C8.32879 9.55035 8.05698 9.40746 7.75 9.40746V10.1575V10.9075C7.71978 10.9075 7.69368 10.904 7.67443 10.8999C7.65714 10.8963 7.65004 10.8932 7.65816 10.8961C7.66697 10.8993 7.68389 10.906 7.71548 10.92C7.74723 10.934 7.78421 10.951 7.83488 10.9743L8.14855 10.2931ZM7.35145 10.2931L7.66512 10.9743C7.71579 10.951 7.75277 10.934 7.78452 10.92C7.81611 10.906 7.83303 10.8993 7.84184 10.8961C7.84996 10.8932 7.84286 10.8963 7.82557 10.8999C7.80633 10.904 7.78022 10.9075 7.75 10.9075V10.1575V9.40746C7.44302 9.40746 7.17121 9.55036 7.03777 9.61179L7.35145 10.2931ZM9.70918 9.32632L8.96268 9.39866C9.00304 9.81517 9.02353 10.0457 9.01676 10.1977C9.01004 10.3485 8.98261 10.2002 9.13997 10.0807L9.59346 10.6781L10.0469 11.2754C10.4341 10.9815 10.5026 10.5497 10.5153 10.2645C10.5279 9.98047 10.4914 9.62232 10.4557 9.25398L9.70918 9.32632ZM8.3273 10.3754L8.01363 11.0566C8.33515 11.2046 8.65661 11.355 8.9267 11.4324C9.20642 11.5126 9.64753 11.5786 10.0469 11.2754L9.59346 10.6781L9.13997 10.0807C9.21019 10.0274 9.29022 10.0042 9.34971 10.0005C9.39268 9.99787 9.39828 10.0072 9.33987 9.99043C9.28381 9.97437 9.20212 9.94436 9.07913 9.89177C8.95744 9.83974 8.81652 9.77493 8.64097 9.69409L8.3273 10.3754ZM9.93582 8.33117L9.36582 7.84372C9.26337 7.96353 9.06164 8.17778 8.97307 8.46261L9.68924 8.68531L10.4054 8.90802C10.398 8.93174 10.3891 8.95148 10.3816 8.96546C10.3749 8.97786 10.3716 8.98144 10.3777 8.97302C10.3843 8.96397 10.3964 8.94833 10.419 8.92097C10.4419 8.89343 10.469 8.86168 10.5058 8.81861L9.93582 8.33117ZM9.6895 9.12327L10.436 9.05093C10.4304 8.99356 10.4263 8.95085 10.4233 8.91419C10.4204 8.87771 10.4193 8.85676 10.4191 8.84432C10.4186 8.82326 10.4214 8.85661 10.4054 8.90802L9.68924 8.68531L8.97307 8.46261C8.88549 8.74424 8.92745 9.03513 8.943 9.1956L9.6895 9.12327ZM9.53814 6.48161L9.37263 7.21312C9.56016 7.25555 9.71047 7.28962 9.83803 7.32222C9.96683 7.35515 10.0497 7.38099 10.1043 7.40249C10.1605 7.42463 10.1536 7.42966 10.1247 7.40483C10.0845 7.37039 10.0397 7.31139 10.0166 7.23703L10.7328 7.01432L11.4489 6.79161C11.3047 6.3277 10.9304 6.11577 10.6542 6.00695C10.3922 5.9037 10.0471 5.82781 9.70365 5.7501L9.53814 6.48161ZM10.066 8.17898L10.636 8.66642C10.8714 8.39112 11.1046 8.12146 11.2556 7.88146C11.4118 7.63336 11.5907 7.24734 11.4489 6.79161L10.7328 7.01432L10.0166 7.23703C9.96266 7.06357 10.0596 6.96575 9.98623 7.08235C9.90773 7.20705 9.7636 7.37857 9.49597 7.69153L10.066 8.17898ZM8.70236 5.94887L8.04727 6.31405C8.12265 6.44928 8.25619 6.7194 8.49503 6.90071L8.94852 6.30334L9.402 5.70597C9.45 5.74241 9.46953 5.7755 9.45887 5.75946C9.45257 5.74999 9.44195 5.73295 9.42394 5.70178C9.40585 5.67048 9.38525 5.63357 9.35745 5.58369L8.70236 5.94887ZM9.34723 6.43841L9.51274 5.70691C9.45861 5.69466 9.41922 5.68572 9.38576 5.67757C9.3525 5.66948 9.33519 5.66455 9.32637 5.66177C9.31833 5.65924 9.32555 5.661 9.34093 5.66837C9.35804 5.67657 9.3796 5.68897 9.402 5.70597L8.94852 6.30334L8.49503 6.90071C8.73858 7.0856 9.0365 7.13707 9.18172 7.16992L9.34723 6.43841ZM8.60405 5.77251L9.25914 5.40734C9.08136 5.08842 8.9083 4.77397 8.7365 4.54963C8.56434 4.32481 8.2517 4 7.75 4V4.75V5.5C7.65592 5.5 7.57798 5.46748 7.53287 5.43731C7.50111 5.41607 7.50548 5.40924 7.54559 5.46163C7.58395 5.51171 7.63453 5.58848 7.7049 5.70731C7.77456 5.82495 7.85252 5.96468 7.94896 6.13769L8.60405 5.77251ZM6.89595 5.77251L7.55104 6.13769C7.64748 5.96468 7.72544 5.82495 7.7951 5.70731C7.86547 5.58848 7.91605 5.51171 7.95441 5.46163C7.99452 5.40924 7.99889 5.41607 7.96713 5.43731C7.92202 5.46748 7.84408 5.5 7.75 5.5V4.75V4C7.2483 4 6.93566 4.32481 6.7635 4.54963C6.5917 4.77397 6.41864 5.08842 6.24086 5.40734L6.89595 5.77251ZM14.75 7.75H14C14 11.2018 11.2018 14 7.75 14V14.75V15.5C12.0302 15.5 15.5 12.0302 15.5 7.75H14.75ZM7.75 14.75V14C4.29822 14 1.5 11.2018 1.5 7.75H0.75H0C0 12.0302 3.46979 15.5 7.75 15.5V14.75ZM0.75 7.75H1.5C1.5 4.29822 4.29822 1.5 7.75 1.5V0.75V0C3.46979 0 0 3.46979 0 7.75H0.75ZM7.75 0.75V1.5C11.2018 1.5 14 4.29822 14 7.75H14.75H15.5C15.5 3.46979 12.0302 0 7.75 0V0.75ZM3.10111 13.75L2.3778 13.5517L1.74093 15.8747L2.46424 16.073L3.18755 16.2713L3.82442 13.9483L3.10111 13.75ZM13.0358 16.073L13.7591 15.8747L13.1222 13.5517L12.3989 13.75L11.6756 13.9483L12.3125 16.2713L13.0358 16.073ZM6.18933 19.408L6.5359 20.0731C7.26014 19.6957 7.44924 19.611 7.6309 19.5917L7.55143 18.8459L7.47196 18.1001C6.94109 18.1567 6.45963 18.4214 5.84276 18.7428L6.18933 19.408ZM9.31067 19.408L9.65724 18.7428C9.04037 18.4214 8.55891 18.1567 8.02804 18.1001L7.94857 18.8459L7.8691 19.5917C8.05076 19.611 8.23986 19.6957 8.9641 20.0731L9.31067 19.408ZM7.55143 18.8459L7.6309 19.5917C7.71012 19.5832 7.78988 19.5832 7.8691 19.5917L7.94857 18.8459L8.02804 18.1001C7.84316 18.0804 7.65684 18.0804 7.47196 18.1001L7.55143 18.8459ZM13.0358 16.073L12.3125 16.2713C12.6315 17.435 12.8531 18.2473 12.9497 18.8487C13.0502 19.4735 12.9753 19.6617 12.9355 19.7213L13.559 20.1381L14.1826 20.5548C14.562 19.9871 14.5397 19.2887 14.4307 18.6107C14.318 17.9094 14.0684 17.0028 13.7591 15.8747L13.0358 16.073ZM9.31067 19.408L8.9641 20.0731C9.9535 20.5886 10.7569 21.0087 11.3946 21.2495C12.0099 21.4818 12.6968 21.6399 13.3266 21.3192L12.9863 20.6508L12.646 19.9825C12.6231 19.9941 12.4799 20.0558 11.9244 19.8461C11.3912 19.6449 10.6832 19.2774 9.65724 18.7428L9.31067 19.408ZM13.559 20.1381L12.9355 19.7213C12.8576 19.8378 12.7567 19.9261 12.646 19.9825L12.9863 20.6508L13.3266 21.3192C13.6733 21.1427 13.9666 20.878 14.1826 20.5548L13.559 20.1381ZM2.46424 16.073L1.74093 15.8747C1.43163 17.0028 1.18197 17.9094 1.06926 18.6107C0.960314 19.2887 0.938 19.9871 1.31741 20.5548L1.94097 20.1381L2.56454 19.7213C2.5247 19.6617 2.44985 19.4735 2.55026 18.8487C2.64691 18.2473 2.86851 17.435 3.18755 16.2713L2.46424 16.073ZM6.18933 19.408L5.84276 18.7428C4.81684 19.2774 4.10876 19.6449 3.57563 19.8461C3.02015 20.0558 2.87687 19.9941 2.85403 19.9825L2.51372 20.6508L2.17341 21.3192C2.8032 21.6399 3.49006 21.4818 4.10539 21.2495C4.74308 21.0087 5.5465 20.5886 6.5359 20.0731L6.18933 19.408ZM1.94097 20.1381L1.31741 20.5548C1.53341 20.878 1.82674 21.1427 2.17341 21.3192L2.51372 20.6508L2.85403 19.9825C2.74326 19.9261 2.64239 19.8378 2.56454 19.7213L1.94097 20.1381Z" fill="#0295DD"/>
</svg>
