<svg width="21" height="20" viewBox="0 0 21 20" fill="none" xmlns="http://www.w3.org/2000/svg">
<path d="M17.4601 8.76766L18.053 8.9653L17.4601 8.76766ZM16.0297 13.0588L15.4368 12.8611L16.0297 13.0588ZM7.44156 4.47059L7.24392 3.87767L7.44156 4.47059ZM11.7327 3.04022L11.9303 3.63315L11.7327 3.04022ZM9.2496 13.0588L9.84252 12.8611V12.8611L9.2496 13.0588ZM8.87078 12.1271L8.35142 12.4747L8.35142 12.4747L8.87078 12.1271ZM7.44156 11.2507L7.6392 10.6578H7.6392L7.44156 11.2507ZM8.37328 11.6296L8.72097 11.1102L8.72097 11.1102L8.37328 11.6296ZM2.47339 6.72281L1.93306 6.40869L2.47339 6.72281ZM2.47339 8.99852L1.93306 9.31264H1.93306L2.47339 8.99852ZM13.7775 18.0269L13.4634 17.4866L13.4634 17.4866L13.7775 18.0269ZM11.5018 18.0269L11.1877 18.5673H11.1877L11.5018 18.0269ZM14.0097 7.37411C14.2551 7.13138 14.2573 6.73566 14.0146 6.49024C13.7718 6.24481 13.3761 6.24262 13.1307 6.48534L13.5702 6.92972L14.0097 7.37411ZM17.4601 8.76766L16.8672 8.57002L15.4368 12.8611L16.0297 13.0588L16.6227 13.2564L18.053 8.9653L17.4601 8.76766ZM7.44156 4.47059L7.6392 5.06352L11.9303 3.63315L11.7327 3.04022L11.535 2.44729L7.24392 3.87767L7.44156 4.47059ZM9.2496 13.0588L9.84252 12.8611C9.69162 12.4084 9.58398 12.0689 9.39015 11.7794L8.87078 12.1271L8.35142 12.4747C8.42941 12.5912 8.48371 12.7375 8.65667 13.2564L9.2496 13.0588ZM7.44156 11.2507L7.24392 11.8437C7.76279 12.0166 7.90909 12.0709 8.0256 12.1489L8.37328 11.6296L8.72097 11.1102C8.43142 10.9163 8.09192 10.8087 7.6392 10.6578L7.44156 11.2507ZM8.87078 12.1271L9.39015 11.7794C9.21297 11.5147 8.98562 11.2874 8.72097 11.1102L8.37328 11.6296L8.02559 12.1489C8.15446 12.2352 8.26515 12.3459 8.35142 12.4747L8.87078 12.1271ZM7.44156 4.47059L7.24392 3.87767C5.74204 4.37829 4.57843 4.76564 3.73949 5.12246C2.93425 5.46494 2.26272 5.84164 1.93306 6.40869L2.47339 6.72281L3.01371 7.03693C3.11394 6.86453 3.41373 6.61937 4.22873 6.27274C5.01002 5.94044 6.11555 5.5714 7.6392 5.06352L7.44156 4.47059ZM7.44156 11.2507L7.6392 10.6578C6.11555 10.1499 5.01002 9.78089 4.22873 9.44859C3.41373 9.10196 3.11394 8.8568 3.01371 8.6844L2.47339 8.99852L1.93306 9.31264C2.26272 9.87969 2.93425 10.2564 3.73949 10.5989C4.57843 10.9557 5.74204 11.343 7.24392 11.8437L7.44156 11.2507ZM2.47339 6.72281L1.93306 6.40869C1.41121 7.30634 1.41121 8.41499 1.93306 9.31264L2.47339 8.99852L3.01371 8.6844C2.71766 8.17514 2.71766 7.54619 3.01371 7.03693L2.47339 6.72281ZM16.0297 13.0588L15.4368 12.8611C14.9289 14.3848 14.5599 15.4903 14.2276 16.2716C13.881 17.0866 13.6358 17.3864 13.4634 17.4866L13.7775 18.0269L14.0916 18.5673C14.6587 18.2376 15.0354 17.5661 15.3779 16.7608C15.7347 15.9219 16.122 14.7583 16.6227 13.2564L16.0297 13.0588ZM9.2496 13.0588L8.65667 13.2564C9.15729 14.7583 9.54464 15.9219 9.90146 16.7608C10.2439 17.5661 10.6206 18.2376 11.1877 18.5673L11.5018 18.0269L11.8159 17.4866C11.6435 17.3864 11.3984 17.0866 11.0517 16.2716C10.7194 15.4903 10.3504 14.3848 9.84252 12.8611L9.2496 13.0588ZM13.7775 18.0269L13.4634 17.4866C12.9541 17.7827 12.3252 17.7827 11.8159 17.4866L11.5018 18.0269L11.1877 18.5673C12.0853 19.0891 13.194 19.0891 14.0916 18.5673L13.7775 18.0269ZM17.4601 8.76766L18.053 8.9653C18.6711 7.11115 19.1588 5.65309 19.3575 4.53621C19.5554 3.42386 19.5076 2.43401 18.787 1.71335L18.345 2.15529L17.9031 2.59723C18.1718 2.86596 18.3064 3.30796 18.1268 4.31729C17.9481 5.32208 17.4987 6.67551 16.8672 8.57002L17.4601 8.76766ZM11.7327 3.04022L11.9303 3.63315C13.8248 3.00165 15.1783 2.55224 16.183 2.37349C17.1924 2.19394 17.6344 2.3285 17.9031 2.59723L18.345 2.15529L18.787 1.71335C18.0663 0.992682 17.0765 0.944935 15.9641 1.14281C14.8472 1.3415 13.3892 1.82924 11.535 2.44729L11.7327 3.04022ZM8.94607 11.5029L9.38556 11.9472L14.0097 7.37411L13.5702 6.92972L13.1307 6.48534L8.50659 11.0585L8.94607 11.5029Z" fill="white"/>
</svg>
