<svg width="18" height="18" viewBox="0 0 18 18" fill="none" xmlns="http://www.w3.org/2000/svg">
<path d="M11.5 9.00033C11.5 10.381 10.3807 11.5003 9 11.5003C7.61929 11.5003 6.5 10.381 6.5 9.00033C6.5 7.61961 7.61929 6.50033 9 6.50033C10.3807 6.50033 11.5 7.61961 11.5 9.00033Z" stroke="#B78A44" stroke-width="1.25"/>
<path d="M10.4711 0.79386C10.1649 0.666992 9.77657 0.666992 9 0.666992C8.22343 0.666992 7.83515 0.666992 7.52886 0.79386C7.12048 0.963016 6.79602 1.28747 6.62687 1.69585C6.54965 1.88228 6.51943 2.09908 6.5076 2.41532C6.49022 2.88006 6.25189 3.31024 5.84913 3.54277C5.44637 3.7753 4.95467 3.76661 4.54351 3.54929C4.26371 3.40141 4.06085 3.31918 3.86079 3.29284C3.42254 3.23514 2.97933 3.3539 2.62864 3.62299C2.36563 3.82481 2.17149 4.16107 1.7832 4.8336C1.39492 5.50613 1.20078 5.8424 1.1575 6.17108C1.09981 6.60933 1.21857 7.05254 1.48766 7.40323C1.61048 7.56329 1.7831 7.69785 2.051 7.86618C2.44484 8.11365 2.69825 8.53521 2.69823 9.00034C2.6982 9.46543 2.4448 9.88693 2.051 10.1344C1.78305 10.3027 1.61041 10.4373 1.48758 10.5974C1.21849 10.9481 1.09973 11.3913 1.15742 11.8295C1.2007 12.1582 1.39484 12.4945 1.78312 13.167C2.17141 13.8395 2.36555 14.1758 2.62856 14.3776C2.97925 14.6467 3.42246 14.7655 3.86071 14.7078C4.06076 14.6814 4.26361 14.5992 4.54338 14.4513C4.95457 14.234 5.44631 14.2253 5.84909 14.4579C6.25188 14.6904 6.49022 15.1206 6.50761 15.5854C6.51943 15.9016 6.54965 16.1184 6.62687 16.3048C6.79602 16.7132 7.12048 17.0376 7.52886 17.2068C7.83515 17.3337 8.22343 17.3337 9 17.3337C9.77657 17.3337 10.1649 17.3337 10.4711 17.2068C10.8795 17.0376 11.204 16.7132 11.3731 16.3048C11.4504 16.1184 11.4806 15.9016 11.4924 15.5853C11.5098 15.1206 11.7481 14.6904 12.1508 14.4579C12.5536 14.2253 13.0454 14.234 13.4566 14.4513C13.7363 14.5991 13.9392 14.6814 14.1392 14.7077C14.5775 14.7654 15.0207 14.6466 15.3714 14.3775C15.6344 14.1757 15.8285 13.8395 16.2168 13.1669C16.6051 12.4944 16.7992 12.1581 16.8425 11.8295C16.9002 11.3912 16.7814 10.948 16.5123 10.5973C16.3895 10.4372 16.2169 10.3027 15.949 10.1343C15.5551 9.88688 15.3017 9.46535 15.3018 9.00025C15.3018 8.5352 15.5552 8.11373 15.949 7.86632C16.2169 7.69795 16.3896 7.56337 16.5124 7.40328C16.7815 7.0526 16.9003 6.60938 16.8426 6.17114C16.7993 5.84245 16.6052 5.50619 16.2169 4.83366C15.8286 4.16113 15.6345 3.82487 15.3714 3.62305C15.0208 3.35396 14.5775 3.2352 14.1393 3.2929C13.9392 3.31923 13.7364 3.40146 13.4566 3.54932C13.0454 3.76665 12.5537 3.77534 12.1509 3.54279C11.7481 3.31025 11.5098 2.88004 11.4924 2.41527C11.4806 2.09906 11.4503 1.88227 11.3731 1.69585C11.204 1.28747 10.8795 0.963016 10.4711 0.79386Z" stroke="#B78A44" stroke-width="1.25"/>
</svg>
