<svg width="20" height="20" viewBox="0 0 20 20" fill="none" xmlns="http://www.w3.org/2000/svg">
<path d="M6.41715 9.95042C6.41715 8.67096 5.37994 7.63376 4.10048 7.63376C2.82102 7.63376 1.78381 8.67096 1.78381 9.95042C1.78381 11.2299 2.82102 12.2671 4.10048 12.2671C5.37994 12.2671 6.41715 11.2299 6.41715 9.95042Z" stroke="#231F20" stroke-width="1.25" stroke-linecap="round" stroke-linejoin="round"/>
<path d="M16.5995 15.1409C16.5995 13.8614 15.5623 12.8242 14.2829 12.8242C13.0034 12.8242 11.9662 13.8614 11.9662 15.1409C11.9662 16.4203 13.0034 17.4575 14.2829 17.4575C15.5623 17.4575 16.5995 16.4203 16.5995 15.1409Z" stroke="#231F20" stroke-width="1.25" stroke-linecap="round" stroke-linejoin="round"/>
<path d="M16.5995 4.85765C16.5995 3.57819 15.5623 2.54098 14.2829 2.54098C13.0034 2.54098 11.9662 3.57819 11.9662 4.85765C11.9662 6.13711 13.0034 7.17432 14.2829 7.17432C15.5623 7.17432 16.5995 6.13711 16.5995 4.85765Z" stroke="#231F20" stroke-width="1.25" stroke-linecap="round" stroke-linejoin="round"/>
<path opacity="0.34" d="M12.0834 5.83333L6.25004 8.75" stroke="#231F20" stroke-width="1.25"/>
<path opacity="0.34" d="M12.0834 14.5832L6.25004 11.6665" stroke="#231F20" stroke-width="1.25"/>
</svg>
