<svg width="16" height="16" viewBox="0 0 16 16" fill="none" xmlns="http://www.w3.org/2000/svg">
<path d="M9.15339 2.34074L10.3267 4.68741C10.4867 5.01408 10.9134 5.32741 11.2734 5.38741L13.4001 5.74074C14.7601 5.96741 15.0801 6.95408 14.1001 7.92741L12.4467 9.58074C12.1667 9.86074 12.0134 10.4007 12.1001 10.7874L12.5734 12.8341C12.9467 14.4541 12.0867 15.0807 10.6534 14.2341L8.66006 13.0541C8.30006 12.8407 7.70673 12.8407 7.34006 13.0541L5.34673 14.2341C3.92006 15.0807 3.05339 14.4474 3.42673 12.8341L3.90006 10.7874C3.98673 10.4007 3.83339 9.86074 3.55339 9.58074L1.90006 7.92741C0.926728 6.95408 1.24006 5.96741 2.60006 5.74074L4.72673 5.38741C5.08006 5.32741 5.50673 5.01408 5.66673 4.68741L6.84006 2.34074C7.48006 1.06741 8.52006 1.06741 9.15339 2.34074Z" fill="#E4B600" stroke="#E4B600" stroke-width="1.5" stroke-linecap="round" stroke-linejoin="round"/>
</svg>
