<svg width="18" height="18" viewBox="0 0 18 18" fill="none" xmlns="http://www.w3.org/2000/svg">
<path d="M17.0075 10.3016L17.1985 8.27226C17.3485 6.67841 17.4235 5.88148 17.1508 5.55205C17.0033 5.37385 16.8028 5.26466 16.5883 5.24583C16.1919 5.21101 15.6941 5.77774 14.6984 6.91122C14.1835 7.4974 13.9261 7.79049 13.6388 7.83588C13.4797 7.86103 13.3176 7.83518 13.1706 7.76123C12.9054 7.62776 12.7286 7.26542 12.3749 6.54075L10.5109 2.72104C9.84262 1.35167 9.50849 0.666992 8.99999 0.666992C8.49149 0.666992 8.15736 1.35167 7.4891 2.72104L5.62505 6.54075C5.2714 7.26542 5.09458 7.62776 4.82937 7.76123C4.68242 7.83518 4.52027 7.86103 4.36113 7.83588C4.07392 7.79049 3.81646 7.4974 3.30155 6.91122C2.30589 5.77774 1.80806 5.21101 1.41165 5.24583C1.1972 5.26466 0.996639 5.37385 0.849144 5.55205C0.576487 5.88148 0.65149 6.67841 0.801496 8.27225L0.992492 10.3016C1.3072 13.6455 1.46455 15.3174 2.45007 16.3255C3.43558 17.3337 4.91263 17.3337 7.86672 17.3337H10.1333C13.0874 17.3337 14.5644 17.3337 15.5499 16.3255C16.5354 15.3174 16.6928 13.6455 17.0075 10.3016Z" stroke="#B58C43" stroke-width="1.25"/>
<path d="M8.28828 9.43588C8.60494 8.86782 8.76327 8.58379 8.99999 8.58379C9.23671 8.58379 9.39504 8.86782 9.7117 9.43588L9.79362 9.58285C9.88361 9.74427 9.9286 9.82499 9.99875 9.87824C10.0689 9.9315 10.1563 9.95127 10.331 9.9908L10.4901 10.0268C11.105 10.1659 11.4125 10.2355 11.4856 10.4707C11.5588 10.706 11.3492 10.9511 10.93 11.4413L10.8215 11.5681C10.7024 11.7074 10.6428 11.7771 10.616 11.8632C10.5892 11.9494 10.5982 12.0423 10.6162 12.2282L10.6326 12.3974C10.696 13.0514 10.7277 13.3785 10.5362 13.5238C10.3447 13.6692 10.0568 13.5367 9.48107 13.2716L9.33212 13.203C9.16851 13.1277 9.0867 13.09 8.99999 13.09C8.91328 13.09 8.83147 13.1277 8.66786 13.203L8.51891 13.2716C7.94316 13.5367 7.65528 13.6692 7.46378 13.5238C7.27227 13.3785 7.30396 13.0514 7.36734 12.3974L7.38374 12.2282C7.40175 12.0423 7.41075 11.9494 7.38396 11.8632C7.35716 11.7771 7.2976 11.7074 7.17847 11.5681L7.07001 11.4413C6.6508 10.9511 6.4412 10.706 6.51434 10.4707C6.58749 10.2355 6.89495 10.1659 7.50987 10.0268L7.66896 9.9908C7.8437 9.95127 7.93107 9.9315 8.00123 9.87824C8.07138 9.82499 8.11637 9.74427 8.20636 9.58285L8.28828 9.43588Z" stroke="#B58C43" stroke-width="1.25"/>
</svg>
