<svg width="20" height="20" viewBox="0 0 20 20" fill="none" xmlns="http://www.w3.org/2000/svg">
<path d="M9.37504 17.5C9.37504 17.8452 9.65486 18.125 10 18.125C10.3452 18.125 10.625 17.8452 10.625 17.5H10H9.37504ZM16.0417 6.625C16.0417 6.97018 16.3215 7.25 16.6667 7.25C17.0119 7.25 17.2917 6.97018 17.2917 6.625H16.6667H16.0417ZM2.70837 6.625C2.70837 6.97018 2.9882 7.25 3.33337 7.25C3.67855 7.25 3.95837 6.97018 3.95837 6.625H3.33337H2.70837ZM16.1786 2.98816L16.6205 2.54621V2.54621L16.1786 2.98816ZM5.83337 16.875C5.4882 16.875 5.20837 17.1548 5.20837 17.5C5.20837 17.8452 5.4882 18.125 5.83337 18.125V17.5V16.875ZM14.1667 18.125C14.5119 18.125 14.7917 17.8452 14.7917 17.5C14.7917 17.1548 14.5119 16.875 14.1667 16.875V17.5V18.125ZM6.66671 2.5V3.125H10V2.5V1.875H6.66671V2.5ZM10 2.5V3.125H13.3334V2.5V1.875H10V2.5ZM10 17.5H10.625V2.5H10H9.37504V17.5H10ZM16.6667 5.83333H16.0417V6.625H16.6667H17.2917V5.83333H16.6667ZM3.33337 5.83333H2.70837V6.625H3.33337H3.95837V5.83333H3.33337ZM13.3334 2.5V3.125C14.1367 3.125 14.6763 3.12633 15.0789 3.18045C15.4634 3.23215 15.628 3.3215 15.7366 3.4301L16.1786 2.98816L16.6205 2.54621C16.2409 2.16666 15.7686 2.01193 15.2454 1.94159C14.7403 1.87367 14.1014 1.875 13.3334 1.875V2.5ZM16.6667 5.83333H17.2917C17.2917 5.06533 17.293 4.42645 17.2251 3.92127C17.1548 3.39811 17.0001 2.92577 16.6205 2.54621L16.1786 2.98816L15.7366 3.4301C15.8452 3.53869 15.9346 3.70328 15.9863 4.08783C16.0404 4.49036 16.0417 5.02999 16.0417 5.83333H16.6667ZM6.66671 2.5V1.875C5.8987 1.875 5.25982 1.87367 4.75464 1.94159C4.23148 2.01193 3.75915 2.16666 3.37959 2.54621L3.82153 2.98816L4.26347 3.4301C4.37207 3.3215 4.53665 3.23215 4.9212 3.18045C5.32373 3.12633 5.86336 3.125 6.66671 3.125V2.5ZM3.33337 5.83333H3.95837C3.95837 5.02999 3.9597 4.49036 4.01382 4.08783C4.06552 3.70328 4.15487 3.53869 4.26347 3.4301L3.82153 2.98816L3.37959 2.54621C3.00003 2.92577 2.8453 3.39811 2.77497 3.92127C2.70705 4.42645 2.70837 5.06533 2.70837 5.83333H3.33337ZM5.83337 17.5V18.125H14.1667V17.5V16.875H5.83337V17.5Z" fill="#B58C43"/>
</svg>
