<svg width="20" height="20" viewBox="0 0 20 20" fill="none" xmlns="http://www.w3.org/2000/svg">
<path d="M3.25 12.5C3.25 12.0858 2.91421 11.75 2.5 11.75C2.08579 11.75 1.75 12.0858 1.75 12.5H2.5H3.25ZM18.25 12.5C18.25 12.0858 17.9142 11.75 17.5 11.75C17.0858 11.75 16.75 12.0858 16.75 12.5H17.5H18.25ZM10.75 2.5C10.75 2.08579 10.4142 1.75 10 1.75C9.58579 1.75 9.25 2.08579 9.25 2.5H10H10.75ZM10 13.3333L9.44648 13.8394C9.58856 13.9948 9.78943 14.0833 10 14.0833C10.2106 14.0833 10.4114 13.9948 10.5535 13.8394L10 13.3333ZM13.8869 10.1936C14.1664 9.88788 14.1451 9.41348 13.8394 9.13398C13.5337 8.85448 13.0593 8.87572 12.7798 9.18142L13.3333 9.6875L13.8869 10.1936ZM7.22019 9.18142C6.94069 8.87572 6.46629 8.85448 6.16059 9.13398C5.85489 9.41348 5.83365 9.88788 6.11314 10.1936L6.66667 9.6875L7.22019 9.18142ZM12.5 17.5V16.75H7.5V17.5V18.25H12.5V17.5ZM7.5 17.5V16.75C6.30029 16.75 5.47595 16.7484 4.85676 16.6652C4.25914 16.5848 3.9661 16.441 3.76256 16.2374L3.23223 16.7678L2.7019 17.2981C3.2306 17.8268 3.89293 18.0491 4.65688 18.1518C5.39926 18.2516 6.34269 18.25 7.5 18.25V17.5ZM2.5 12.5H1.75C1.75 13.6573 1.74841 14.6007 1.84822 15.3431C1.95093 16.1071 2.17321 16.7694 2.7019 17.2981L3.23223 16.7678L3.76256 16.2374C3.55902 16.0339 3.41519 15.7409 3.33484 15.1432C3.25159 14.524 3.25 13.6997 3.25 12.5H2.5ZM17.5 12.5H16.75C16.75 13.6997 16.7484 14.524 16.6652 15.1432C16.5848 15.7409 16.441 16.0339 16.2374 16.2374L16.7678 16.7678L17.2981 17.2981C17.8268 16.7694 18.0491 16.1071 18.1518 15.3431C18.2516 14.6007 18.25 13.6573 18.25 12.5H17.5ZM12.5 17.5V18.25C13.6573 18.25 14.6007 18.2516 15.3431 18.1518C16.1071 18.0491 16.7694 17.8268 17.2981 17.2981L16.7678 16.7678L16.2374 16.2374C16.0339 16.441 15.7409 16.5848 15.1432 16.6652C14.524 16.7484 13.6997 16.75 12.5 16.75V17.5ZM10 2.5H9.25V13.3333H10H10.75V2.5H10ZM10 13.3333L10.5535 13.8394L13.8869 10.1936L13.3333 9.6875L12.7798 9.18142L9.44648 12.8273L10 13.3333ZM10 13.3333L10.5535 12.8273L7.22019 9.18142L6.66667 9.6875L6.11314 10.1936L9.44648 13.8394L10 13.3333Z" fill="#2E2E34"/>
</svg>
