<svg width="52" height="53" viewBox="0 0 52 53" fill="none" xmlns="http://www.w3.org/2000/svg">
<path d="M26.0004 5.9165C30.9199 5.91667 34.9496 9.79277 35.1967 14.6519L35.2084 15.1255C35.1866 20.1129 31.291 24.1375 26.3304 24.312H26.2699C26.0872 24.2925 25.8986 24.2927 25.723 24.3081C20.6491 24.1062 16.7916 20.0846 16.7914 15.1255C16.7914 10.0471 20.922 5.9165 26.0004 5.9165Z" fill="#B8B9C1" stroke="#B8B9C1" stroke-width="2.16667"/>
<path d="M26.0269 29.2188C29.843 29.2188 33.5979 30.1877 36.4058 32.0596C38.9074 33.7273 40.1491 35.8908 40.1704 38.1133H40.1694C40.1694 40.21 39.0674 42.2457 36.8579 43.8896L36.4028 44.2119C33.5842 46.1044 29.8192 47.083 25.9995 47.083C22.1799 47.0829 18.4157 46.1043 15.5972 44.2119L15.5942 44.21L15.1382 43.8906C12.9314 42.2652 11.8296 40.2317 11.8296 38.1562C11.8297 35.9411 13.0841 33.7527 15.6167 32.0576C18.4473 30.1856 22.2131 29.2188 26.0269 29.2188Z" fill="#B8B9C1" stroke="#B8B9C1" stroke-width="2.16667"/>
</svg>
