<svg width="20" height="21" viewBox="0 0 20 21" fill="none" xmlns="http://www.w3.org/2000/svg">
<path d="M2.24114 6.08705C2.10517 5.76978 1.73774 5.62281 1.42047 5.75879C1.1032 5.89476 0.956234 6.26218 1.09221 6.57945L1.66667 6.33325L2.24114 6.08705ZM12.9893 11.6072L12.7604 11.0256L12.7604 11.0256L12.9893 11.6072ZM7.53455 11.948C7.7228 11.6587 7.64087 11.2716 7.35155 11.0833C7.06222 10.895 6.67507 10.977 6.48682 11.2663L7.01068 11.6072L7.53455 11.948ZM5.30947 13.0757C5.12122 13.365 5.20315 13.7522 5.49247 13.9405C5.78179 14.1287 6.16895 14.0468 6.3572 13.7575L5.83334 13.4166L5.30947 13.0757ZM18.9078 6.57945C19.0438 6.26218 18.8968 5.89476 18.5795 5.75879C18.2623 5.62281 17.8948 5.76978 17.7589 6.08705L18.3333 6.33325L18.9078 6.57945ZM15.8333 9.77395L15.4056 9.31824L15.4056 9.31824L15.8333 9.77395ZM16.6414 11.4659C16.8855 11.71 17.2812 11.71 17.5253 11.4659C17.7694 11.2218 17.7694 10.8261 17.5253 10.582L17.0833 11.024L16.6414 11.4659ZM9.375 14.2499C9.375 14.5951 9.65483 14.8749 10 14.8749C10.3452 14.8749 10.625 14.5951 10.625 14.2499H10H9.375ZM13.6428 13.7575C13.8311 14.0468 14.2182 14.1287 14.5075 13.9405C14.7969 13.7522 14.8788 13.365 14.6905 13.0757L14.1667 13.4166L13.6428 13.7575ZM4.60861 10.2159C4.85269 9.97181 4.85269 9.57609 4.60861 9.33201C4.36454 9.08793 3.96881 9.08793 3.72473 9.33201L4.16667 9.77395L4.60861 10.2159ZM2.47473 10.582C2.23065 10.8261 2.23065 11.2218 2.47473 11.4659C2.71881 11.71 3.11454 11.71 3.35861 11.4659L2.91667 11.0239L2.47473 10.582ZM10 12.1666V11.5416C7.31343 11.5416 5.38444 10.2038 4.10383 8.82464C3.46372 8.13528 2.99438 7.44395 2.6855 6.92503C2.53141 6.66617 2.41823 6.45185 2.3445 6.30439C2.30766 6.23071 2.28075 6.17387 2.26357 6.13668C2.25498 6.11809 2.24883 6.10442 2.2451 6.09603C2.24323 6.09183 2.24197 6.08896 2.24131 6.08745C2.24098 6.08669 2.2408 6.08628 2.24077 6.08621C2.24076 6.08617 2.24078 6.08623 2.24084 6.08637C2.24087 6.08644 2.24095 6.08661 2.24096 6.08664C2.24105 6.08684 2.24114 6.08705 1.66667 6.33325C1.09221 6.57945 1.09232 6.57971 1.09244 6.57999C1.09249 6.58012 1.09262 6.58042 1.09273 6.58067C1.09294 6.58116 1.09319 6.58175 1.09349 6.58242C1.09407 6.58377 1.09481 6.58547 1.0957 6.58751C1.09749 6.59161 1.0999 6.5971 1.10294 6.60394C1.10903 6.61763 1.11763 6.63671 1.12878 6.66085C1.15107 6.7091 1.18356 6.77759 1.22647 6.86341C1.31225 7.03497 1.43995 7.27638 1.61138 7.56439C1.95355 8.13922 2.4738 8.90623 3.18784 9.6752C4.61557 11.2127 6.85325 12.7916 10 12.7916V12.1666ZM12.9893 11.6072L12.7604 11.0256C11.9518 11.3439 11.0348 11.5416 10 11.5416V12.1666V12.7916C11.1985 12.7916 12.2705 12.5618 13.2182 12.1887L12.9893 11.6072ZM7.01068 11.6072L6.48682 11.2663L5.30947 13.0757L5.83334 13.4166L6.3572 13.7575L7.53455 11.948L7.01068 11.6072ZM18.3333 6.33325C17.7589 6.08705 17.7589 6.08693 17.759 6.08681C17.759 6.08678 17.759 6.08667 17.7591 6.0866C17.7591 6.08648 17.7592 6.08639 17.7592 6.08632C17.7592 6.08619 17.7593 6.08616 17.7592 6.08625C17.7591 6.08642 17.7589 6.08702 17.7584 6.08805C17.7575 6.09011 17.7559 6.09388 17.7535 6.09929C17.7486 6.11011 17.7408 6.1275 17.7298 6.15096C17.7079 6.19789 17.6738 6.26905 17.6272 6.36048C17.5339 6.54347 17.3909 6.80684 17.1962 7.11926C16.8057 7.74588 16.2136 8.55989 15.4056 9.31824L15.8333 9.77395L16.2611 10.2297C17.1686 9.37782 17.8264 8.47148 18.2571 7.78031C18.473 7.43382 18.6334 7.13892 18.7407 6.92838C18.7945 6.82304 18.835 6.73861 18.8627 6.67915C18.8766 6.64941 18.8873 6.6259 18.8948 6.60912C18.8985 6.60073 18.9015 6.59402 18.9036 6.58905C18.9047 6.58657 18.9056 6.58452 18.9063 6.58292C18.9067 6.58212 18.907 6.58143 18.9072 6.58085C18.9073 6.58056 18.9074 6.5803 18.9075 6.58007C18.9076 6.57995 18.9077 6.5798 18.9077 6.57974C18.9077 6.57959 18.9078 6.57945 18.3333 6.33325ZM15.8333 9.77395L15.4056 9.31824C14.6898 9.99013 13.8116 10.6119 12.7604 11.0256L12.9893 11.6072L13.2182 12.1887C14.4462 11.7054 15.4555 10.9858 16.2611 10.2297L15.8333 9.77395ZM15.8333 9.77395L15.3914 10.2159L16.6414 11.4659L17.0833 11.024L17.5253 10.582L16.2753 9.33201L15.8333 9.77395ZM10 12.1666H9.375V14.2499H10H10.625V12.1666H10ZM12.9893 11.6072L12.4655 11.948L13.6428 13.7575L14.1667 13.4166L14.6905 13.0757L13.5132 11.2663L12.9893 11.6072ZM4.16667 9.77395L3.72473 9.33201L2.47473 10.582L2.91667 11.0239L3.35861 11.4659L4.60861 10.2159L4.16667 9.77395Z" fill="#2E2E34"/>
</svg>
