<svg width="24" height="16" viewBox="0 0 24 16" fill="none" xmlns="http://www.w3.org/2000/svg">
<path d="M23.4985 2.49845C23.2225 1.51497 22.4093 0.740517 21.3766 0.477678C19.505 9.53674e-07 12 0 12 0C12 0 4.495 9.53674e-07 2.62335 0.477678C1.59076 0.740517 0.777485 1.51497 0.501509 2.49845C0 4.28094 0 8 0 8C0 8 0 11.719 0.501509 13.5017C0.777485 14.485 1.59076 15.2595 2.62335 15.5224C4.495 16 12 16 12 16C12 16 19.505 16 21.3766 15.5224C22.4093 15.2595 23.2225 14.485 23.4985 13.5017C24 11.719 24 8 24 8C24 8 24 4.28094 23.4985 2.49845Z" fill="#ED1D24"/>
<path d="M9.5459 11.377L15.8186 8.0005L9.5459 4.62373V11.377Z" fill="white"/>
</svg>
